<svg xmlns="http://www.w3.org/2000/svg" width="217.249" height="236.862" viewBox="0 0 217.249 236.862">
  <g id="Group_1884" data-name="Group 1884" transform="translate(-42.196 -19.676)">
    <g id="Background_Simple" data-name="Background Simple" transform="translate(42.196 19.676)">
      <g id="Group_1868" data-name="Group 1868" transform="translate(0 10.638)">
        <path id="Path_1284" data-name="Path 1284" d="M190.034,40.081c-19.195.331-34,16.028-50.429,25.957-24.818,15-56.687,18.041-77.644,38.081-14.349,13.721-21.446,34.4-19.427,54.148s12.85,38.265,28.537,50.434c10,7.759,21.743,12.989,33.723,17.079,12.141,4.146,24.781,7.213,37.61,7.374,17.781.224,35.247-5.152,51.331-12.737C204.92,215.143,215.7,208.7,224.5,200.006a86.094,86.094,0,0,0,19.049-29.133c10.79-26.789,9.072-57.487-.28-84.811C235.532,63.461,216.614,39.623,190.034,40.081Z" transform="translate(-42.196 -40.075)" fill="#92e3a9"/>
        <path id="Path_1285" data-name="Path 1285" d="M190.034,40.081c-19.195.331-34,16.028-50.429,25.957-24.818,15-56.687,18.041-77.644,38.081-14.349,13.721-21.446,34.4-19.427,54.148s12.85,38.265,28.537,50.434c10,7.759,21.743,12.989,33.723,17.079,12.141,4.146,24.781,7.213,37.61,7.374,17.781.224,35.247-5.152,51.331-12.737C204.92,215.143,215.7,208.7,224.5,200.006a86.094,86.094,0,0,0,19.049-29.133c10.79-26.789,9.072-57.487-.28-84.811C235.532,63.461,216.614,39.623,190.034,40.081Z" transform="translate(-42.196 -40.075)" fill="#ffe5b9"/>
      </g>
      <g id="Group_1869" data-name="Group 1869" transform="translate(108.205)">
        <path id="Path_1286" data-name="Path 1286" d="M298.219,56.742c-1.083-12.14-2.166-24.281-3.285-36.827l6.578-.239c-.978,12.609-1.927,24.843-2.876,37.077Z" transform="translate(-271.33 -19.676)" fill="#13222e"/>
        <path id="Path_1287" data-name="Path 1287" d="M318.716,71.868,331.425,47.5l5.4,2.748Z" transform="translate(-282.709 -32.989)" fill="#13222e"/>
        <path id="Path_1288" data-name="Path 1288" d="M268.45,72.115,249.675,49.285l4.363-3.838,14.9,26.427Z" transform="translate(-249.675 -32.007)" fill="#13222e"/>
        <path id="Path_1289" data-name="Path 1289" d="M328.824,97.215l22.288-13.508L354.53,88l-25.5,9.633Z" transform="translate(-287.546 -50.313)" fill="#13222e"/>
      </g>
    </g>
    <g id="Wallet" transform="translate(52.591 94.13)">
      <g id="Group_1875" data-name="Group 1875">
        <path id="Path_1290" data-name="Path 1290" d="M214.988,213.514c-.138-3.929-.393-8.118-.816-12.453-.568-8.653-1.654-16.739-3.622-21.821v0h0v0h-.009c-10.813-2.215-67.061,1.889-67.1,1.892l-.354-1.563c-.045-.208-.093-.415-.141-.622l-.246-1.089-.071-.248c-.364-1.47-.774-2.928-1.257-4.371h0s-42.64-3.808-56.784-.115v0h0c0,.124,0,.244.005.368l.042,3.492c.041,6.754-.115,13.087.235,20.048v.048h-.006a1.4,1.4,0,0,0-.207.022,2.983,2.983,0,0,0-2.431,1.976h0a2.982,2.982,0,0,0-.154,1.261l.2,2.17c0,.035,0,.068.008.1.522,5.538,1.033,11.025,1.033,11.025h.006c.018.009.267.026.712.05l2.342.163c-4.985.463-10.417,7.043-10.19,12.7s-5.214,16.316-3.854,22.438c1.062,4.779,6.407,12.459,9.024,18.295q-.094.537-.206,1.158L69.469,291.881c.781-1.148,7.809,29.465,40.522,22.983l23.265-37.9h0a45.03,45.03,0,0,0,7.084-6.66,11.526,11.526,0,0,0,2.194-3.034v0a16.233,16.233,0,0,0,1.885-4.277q.155-.588.325-1.186c1.9-4.834,4.436-11.433,6.292-16,24.495-.725,50.246-2.222,63.172-5.265l.029,0A136.673,136.673,0,0,0,214.988,213.514ZM89.1,234.931a36.859,36.859,0,0,1-.361-4.262q.429,2.251.925,4.5C89.481,235.085,89.295,235,89.1,234.931Z" transform="translate(-65.64 -166.777)" opacity="0.1"/>
        <g id="Group_1874" data-name="Group 1874">
          <g id="Group_1870" data-name="Group 1870" transform="translate(0 39.22)">
            <path id="Path_1291" data-name="Path 1291" d="M64.361,322.031s10.473,30.958,43.186,24.476c0,0,7.258-34.078,13.341-39.095,3.924-3.236,12.588-9.036,14.437-13.233,1.886-4.279,9.289-24.137,10.729-26.537s-15.6-30-15.6-30l-35.9,18.523L74.571,291.649S70.74,314.559,64.361,322.031Z" transform="translate(-63.196 -237.64)" fill="#fff"/>
            <path id="Path_1292" data-name="Path 1292" d="M73.153,346.429s-2.562,19.145-11.026,29.148" transform="translate(-62.127 -289.693)" fill="none" stroke="#263238" stroke-linecap="round" stroke-linejoin="round" stroke-width="1"/>
            <path id="Path_1293" data-name="Path 1293" d="M147.169,378.359s7.22-32.973,13.341-39.095c0,0,13.829-8.046,16.323-17.512A134.192,134.192,0,0,1,183.2,304.21" transform="translate(-102.817 -269.492)" fill="none" stroke="#263238" stroke-linecap="round" stroke-linejoin="round" stroke-width="1"/>
            <path id="Path_1294" data-name="Path 1294" d="M152.732,306.2c-.536-.332,8.368,6.8,8.714,16.5" transform="translate(-105.468 -270.438)" fill="none" stroke="#263238" stroke-linecap="round" stroke-linejoin="round" stroke-width="1"/>
          </g>
          <path id="Path_1295" data-name="Path 1295" d="M216.8,231.457c-28.83,6.8-121.682,5.888-121.682,5.888-.782-1.648-1.726-5.8-2.639-10.608-1.825-9.653-3.531-21.956-3.531-21.956l-3.072-.214s-.511-5.486-1.033-11.025,2.587-5.533,2.587-5.533l-.224-19.171-.057-4.788c14.144-3.692,56.784.115,56.784.115l1.33,4.621.741,3.275,67.11-1.893C219.276,186.079,216.8,231.457,216.8,231.457Z" transform="translate(-72.968 -162.438)" fill="#f0966d"/>
          <g id="Group_1871" data-name="Group 1871" transform="translate(85.026 22.571)">
            <path id="Rectangle_1524" data-name="Rectangle 1524" d="M6.294,0H44.285a6.294,6.294,0,0,1,6.294,6.294V9.212a6.293,6.293,0,0,1-6.293,6.293H6.293A6.293,6.293,0,0,1,0,9.212V6.294A6.294,6.294,0,0,1,6.294,0Z" transform="translate(0 2.425) rotate(-2.748)" fill="#263238"/>
            <path id="Path_1296" data-name="Path 1296" d="M277.133,246.54l.137,1.486-50.681,1.963-.042-1.334Z" transform="translate(-225.824 -225.249)" fill="#263238"/>
            <path id="Path_1297" data-name="Path 1297" d="M277.531,256.451l.042,1.334L226.9,259.66l-.042-1.334Z" transform="translate(-225.971 -229.992)" fill="#263238"/>
          </g>
          <path id="Path_1298" data-name="Path 1298" d="M269.276,176.659s7.481,35.464,3.687,61.29c0,0-47.291,5.546-63.484,4.651l-.664-8.631,1.355-.211s-6.543-49.261-8.006-55.21C202.164,178.549,258.481,174.439,269.276,176.659Z" transform="translate(-129.131 -168.928)" opacity="0.3"/>
          <path id="Path_1299" data-name="Path 1299" d="M163.438,286.907l.566,6.525s-47.671,2.085-51.861.572.223-3.941,11.309-4.811S163.438,286.907,163.438,286.907Z" transform="translate(-85.312 -221.994)" fill="#fff" opacity="0.8"/>
          <ellipse id="Ellipse_27" data-name="Ellipse 27" cx="4.357" cy="3.941" rx="4.357" ry="3.941" transform="translate(45.309 29.36)" fill="#263238"/>
          <path id="Path_1300" data-name="Path 1300" d="M92.765,211.461a168.936,168.936,0,0,0,6.169,32.568c20.219-.173,40.434-.4,60.645-1.046a570.758,570.758,0,0,0,61.039-4.841s3.591-31.687-3.687-61.29c-8.04-1.673-66.888,1.884-66.888,1.884" transform="translate(-76.787 -169.121)" fill="none" stroke="#263238" stroke-linecap="round" stroke-linejoin="round" stroke-width="1"/>
          <path id="Path_1301" data-name="Path 1301" d="M153.261,227.54l.566,6.525-45.354,1.046c-1.873.16-4.786.405-6.507-.475a1.8,1.8,0,0,1-.979-2.186,2.606,2.606,0,0,1,1.993-1.135,132.055,132.055,0,0,1,16.864-2.04q18.14-1.34,36.331-1.818c-.251.007-3.212-24.4-3.54-26.653-1.283-8.816-2.5-17.665-4.088-26.434a71.3,71.3,0,0,0-2.447-10.017c-18.69-1.336-38.209-2.573-56.785-.114.169,8.278-.136,15.665.284,23.956" transform="translate(-75.136 -162.626)" fill="none" stroke="#263238" stroke-linecap="round" stroke-linejoin="round" stroke-width="1"/>
          <path id="Path_1302" data-name="Path 1302" d="M96.641,238.309s-2.347-6.132,8.534-7.342,35.3-3.437,48.083-3.783c-2.577-18.784-5.45-37.4-8.793-56.06,0,0-35.043-2.683-55.042-.956" transform="translate(-75.187 -165.86)" fill="none" stroke="#263238" stroke-linecap="round" stroke-linejoin="round" stroke-width="1" stroke-dasharray="4 4"/>
          <path id="Path_1303" data-name="Path 1303" d="M85.726,227.053l-1.246-13.3a2.986,2.986,0,0,1,2.8-3.261c7.665-.443,27.495-1.484,35.106-.875,3.655.293,7.618,1.463,9.4,4.958,1.467,2.879,1.689,7.2-.781,9.566-3.756,3.6-10.875,3.321-15.719,3.492C106.264,227.954,85.733,227.129,85.726,227.053Z" transform="translate(-72.816 -184.924)" fill="none" stroke="#263238" stroke-linecap="round" stroke-linejoin="round" stroke-width="1"/>
          <path id="Path_1304" data-name="Path 1304" d="M136.844,227.621c.015-.371,1.9,7.639-5.041,10.281s-39.038,1.813-39.038,1.813v-3.754s22.712.476,26.489.371S136.434,237.488,136.844,227.621Z" transform="translate(-76.787 -193.62)" fill="#263238"/>
          <path id="Path_1305" data-name="Path 1305" d="M164.489,313.432a19.562,19.562,0,0,1,7.8,9.562" transform="translate(-111.105 -234.685)" fill="none" stroke="#263238" stroke-linecap="round" stroke-linejoin="round" stroke-width="1"/>
          <path id="Path_1306" data-name="Path 1306" d="M84.788,214.291s27.83-1.309,34.91-1.073,10.551,1.792,11.259,6.231-3.588,7.223-7.01,7.694-38.067.674-38.067.674" transform="translate(-72.97 -186.722)" fill="none" stroke="#263238" stroke-linecap="round" stroke-linejoin="round" stroke-width="1" stroke-dasharray="4 4"/>
          <g id="Group_1873" data-name="Group 1873" transform="translate(1.704 33.301)">
            <g id="Group_1872" data-name="Group 1872">
              <path id="Path_1307" data-name="Path 1307" d="M94.632,276.121s-4.307-14.963-12.242-17.91c0,0-1.587-10.211,1.813-10.774s12.922-6.852,10.428-14.7-9.975,3.939-14.963,4.392-10.428,7.04-10.2,12.7-5.214,16.316-3.854,22.438,9.748,17,10.428,22.671" transform="translate(-65.395 -228.088)" fill="#fff" stroke="#263238" stroke-linecap="round" stroke-linejoin="round" stroke-width="1"/>
              <path id="Path_1308" data-name="Path 1308" d="M101.446,233.027s5.971,1.085,9.218-2.7-.492-4.033-.492-4.033Z" transform="translate(-82.644 -226.292)" fill="#fff" stroke="#263238" stroke-linecap="round" stroke-linejoin="round" stroke-width="1"/>
            </g>
            <path id="Path_1309" data-name="Path 1309" d="M81,255.411a6.532,6.532,0,0,1,3.069,1.007" transform="translate(-72.86 -240.225)" fill="none" stroke="#263238" stroke-linecap="round" stroke-linejoin="round" stroke-width="1"/>
            <path id="Path_1310" data-name="Path 1310" d="M80.651,259.57a5.739,5.739,0,0,1,2.982,1.181" transform="translate(-72.695 -242.215)" fill="none" stroke="#263238" stroke-linecap="round" stroke-linejoin="round" stroke-width="1"/>
          </g>
          <path id="Path_1311" data-name="Path 1311" d="M111.555,297.081s25.569-1.319,32.286-.936" transform="translate(-85.777 -226.38)" fill="none" stroke="#263238" stroke-linecap="round" stroke-linejoin="round" stroke-width="1"/>
          <path id="Path_1312" data-name="Path 1312" d="M161.532,292.268a66.71,66.71,0,0,1,10.438,0" transform="translate(-109.69 -224.452)" fill="none" stroke="#263238" stroke-linecap="round" stroke-linejoin="round" stroke-width="1"/>
          <line id="Line_1" data-name="Line 1" x2="10.408" transform="translate(68.132 69.695)" fill="none" stroke="#263238" stroke-linecap="round" stroke-linejoin="round" stroke-width="1"/>
          <path id="Path_1313" data-name="Path 1313" d="M204.836,184.221s45.7-4.08,64.065-1.75c0,0,4.954,9.111,3.879,55.813a584.949,584.949,0,0,1-62.21,4.625" transform="translate(-130.41 -171.679)" fill="none" stroke="#263238" stroke-linecap="round" stroke-linejoin="round" stroke-width="1" stroke-dasharray="4 4"/>
        </g>
      </g>
    </g>
    <g id="Card" transform="translate(76.087 44.238)">
      <g id="Group_1880" data-name="Group 1880" transform="translate(58.913 15.282)">
        <g id="Group_1876" data-name="Group 1876" transform="translate(0 4.633)" opacity="0.1">
          <path id="Path_1314" data-name="Path 1314" d="M335.877,212.1c-1.3-5.522-3.2-7.6-5.107-9.194a6.683,6.683,0,0,0-2.491-4.914,16.74,16.74,0,0,0-2.1-1.556c-2.3-1.722-4.828-3.67-4.828-3.671-1.189-3.442-2.8-7.609-4.538-11.709l.087.932c-1.782-4.354-3.53-8.691-4.021-10.128l-.01-.03c.508,1.386,1.048,2.723,1.619,3.962l-6.534-23.078c-.155-.929-.314-1.843-.479-2.722-.309-2.6-1.165-7.522-3.214-7.867a1.075,1.075,0,0,0-.228-.023s-2.413-1.047-2.413,3.239c-2.874.958-3.986,3.1-4.264,5.68a7.736,7.736,0,0,0-.048,2.449c.05.943.162,1.908.3,2.868L288.4,144.208l-.9-1.183L276.089,128,260.739,107.8a7.184,7.184,0,0,0-10.066-1.375l-19.028,14.461-7.435,5.645c-5.7,2.967-4.213,8.83-2.634,10.91l33.2,43.71a3.408,3.408,0,0,0-.515-.025,3.171,3.171,0,0,0-3.3-1.883,2.681,2.681,0,0,0-1.4.463,2.482,2.482,0,0,0-.93.849,7.229,7.229,0,0,0-.7,1c-1.2,2.047-.092,7.047,1.635,13.158.109.394.218.774.323,1.132l.017.057q.217.754.443,1.525c1.69,5.864,4.852,17.374,5.434,23.014q.063.82.08,1.6c.038,6.5-2.848,17.38-1.608,21.872.163.59.327,1.157.5,1.712a51.27,51.27,0,0,0,3.2,8.67c1.763,3.438,3.865,6.741,5.829,10.073q5.415,9.189,11.2,18.149c1.775,2.747,3.858,5.248,5.871,7.835.92,1.182,2.936,2.963,3.286,4.48,0,0,17.851,1.476,27.845-4.872l-.942-14.2,6.7-38.518c1.914-2.9,7.8-8.578,9.006-10.373.606-.892,1.2-1.776,1.779-2.645,4.41-4.112,6.617-7.323,7.584-11.01C336.123,213.21,336.054,212.789,335.877,212.1Zm-62.513,7.537,0-.01.005.013Zm.713.879-.086-.171a20.934,20.934,0,0,0,5.728,1.67C277.647,221.77,275.3,221.439,274.077,220.512Zm7.52,1.724h0q.468.04.96.065A6.559,6.559,0,0,1,281.6,222.236Zm-7.718-2.118-1.2-2.379c-1.672-4.789-5.442-16.073-5.457-16.12v0a64.442,64.442,0,0,0-2.942-9.518,5.685,5.685,0,0,0,5.328-.837l9.125-6.932c.942.568,1.909,1.078,2.854,1.529l8.545,6.683-6.778,27.866Zm34.6-64.18h0c.705,3.332,1.831,8.118,3.313,12.755A83.631,83.631,0,0,1,308.48,155.937Z" transform="translate(-220.145 -104.96)"/>
          <path id="Path_1315" data-name="Path 1315" d="M315.248,459.453l.056.247S315.285,459.61,315.248,459.453Z" transform="translate(-265.649 -274.576)"/>
        </g>
        <g id="Group_1879" data-name="Group 1879" transform="translate(5.954 0)">
          <g id="Group_1877" data-name="Group 1877" transform="translate(54.533 47.451)">
            <path id="Path_1316" data-name="Path 1316" d="M356.93,196.245c.542-.346,8.168-4.506,11.981,7.973s8.319,33.718,8.319,33.718l-9.093,1.781S359.711,235.232,352.16,224c0,0-10.587-2.744-15.2-9.264-4.189-5.926,8.7-27.676,8.7-27.676Z" transform="translate(-336.125 -187.06)" fill="#fff"/>
            <path id="Path_1317" data-name="Path 1317" d="M369.728,234.453c2.255,3.38,6.521,10.488,12.278,12.728" transform="translate(-352.203 -209.736)" fill="none" stroke="#263238" stroke-linecap="round" stroke-linejoin="round" stroke-width="1"/>
            <path id="Path_1318" data-name="Path 1318" d="M357.507,241.424c1.064.421,3.675,1.92,4.883,1.977,0,0,5.313,10.521,14.089,13.935" transform="translate(-346.356 -213.072)" fill="none" stroke="#263238" stroke-linecap="round" stroke-linejoin="round" stroke-width="1"/>
            <path id="Path_1319" data-name="Path 1319" d="M348.159,248.849c3.263,2.729,7.143,4.592,9.758,4.716,0,0,5.313,10.521,14.089,13.935" transform="translate(-341.883 -216.625)" fill="none" stroke="#263238" stroke-linecap="round" stroke-linejoin="round" stroke-width="1"/>
          </g>
          <g id="Group_1878" data-name="Group 1878" transform="translate(0)">
            <rect id="Rectangle_1525" data-name="Rectangle 1525" width="47.604" height="77.606" rx="10.917" transform="translate(0 28.796) rotate(-37.222)" fill="#263238"/>
            <path id="Path_1320" data-name="Path 1320" d="M314.017,160.961l-26.462,20.107a7.178,7.178,0,0,1-10.067-1.375l-38.253-50.359a7.185,7.185,0,0,1,1.375-10.06l7.435-5.646,19.027-14.461a7.185,7.185,0,0,1,10.067,1.375l15.35,20.206,11.409,15.02L315.392,150.9A7.175,7.175,0,0,1,314.017,160.961Z" transform="translate(-234.533 -96.854)" fill="#ec6421"/>
            <path id="Path_1321" data-name="Path 1321" d="M301.915,120.747l-44.444-7.119L276.5,99.167a7.185,7.185,0,0,1,10.067,1.375Z" transform="translate(-243.959 -96.854)" opacity="0.1"/>
            <path id="Path_1322" data-name="Path 1322" d="M314.183,187.451l-26.462,20.107a7.178,7.178,0,0,1-10.067-1.375L239.4,155.824a7.125,7.125,0,0,1-1.283-2.757l66.844,10.375,10.6,13.95A7.175,7.175,0,0,1,314.183,187.451Z" transform="translate(-234.699 -123.345)" opacity="0.1"/>
            <rect id="Rectangle_1526" data-name="Rectangle 1526" width="10.122" height="13.607" rx="4.075" transform="translate(29.951 12.258) rotate(-37.222)" fill="#fff" stroke="#263238" stroke-linecap="round" stroke-linejoin="round" stroke-width="1"/>
            <line id="Line_2" data-name="Line 2" x2="8.067" y2="10.96" transform="translate(34.083 9.119)" fill="#fff" stroke="#263238" stroke-linecap="round" stroke-linejoin="round" stroke-width="1"/>
            <line id="Line_3" data-name="Line 3" y1="6.114" x2="8.067" transform="translate(34.083 11.582)" fill="#fff" stroke="#263238" stroke-linecap="round" stroke-linejoin="round" stroke-width="1"/>
            <path id="Path_1323" data-name="Path 1323" d="M310.2,230.95l-1.375,1.013-16.8-22.114,1.362-1.033Z" transform="translate(-260.492 -150.019)"/>
            <path id="Path_1324" data-name="Path 1324" d="M314.646,227.62l-1.375,1.02-16.817-22.146,1.355-1.033Z" transform="translate(-262.611 -148.414)"/>
            <path id="Path_1325" data-name="Path 1325" d="M319.088,224.3l-1.375,1.013-16.843-22.173,1.362-1.033Z" transform="translate(-264.724 -146.808)"/>
            <path id="Path_1326" data-name="Path 1326" d="M323.759,221.258l-1.375,1.013-16.62-21.883,1.355-1.033Z" transform="translate(-267.066 -145.492)"/>
            <path id="Path_1327" data-name="Path 1327" d="M328.554,217.67l-1.375,1.013-16.646-21.916,1.362-1.033Z" transform="translate(-269.347 -143.76)"/>
            <path id="Path_1328" data-name="Path 1328" d="M328.554,168.223l-1.375,1.013-16.646-21.916,1.362-1.033Z" transform="translate(-269.347 -120.101)"/>
            <rect id="Rectangle_1527" data-name="Rectangle 1527" width="2.675" height="77.553" transform="matrix(0.796, -0.605, 0.605, 0.796, 20.821, 11.28)"/>
            <path id="Path_1329" data-name="Path 1329" d="M314.017,160.961l-26.462,20.107a7.178,7.178,0,0,1-10.067-1.375l-38.253-50.359a7.185,7.185,0,0,1,1.375-10.06l7.435-5.646,19.027-14.461a7.185,7.185,0,0,1,10.067,1.375l15.35,20.206,11.409,15.02L315.392,150.9A7.175,7.175,0,0,1,314.017,160.961Z" transform="translate(-234.533 -96.854)" fill="none" stroke="#263238" stroke-linecap="round" stroke-linejoin="round" stroke-width="1"/>
          </g>
          <path id="Path_1330" data-name="Path 1330" d="M316.824,325.329s30.8,10.96,40.119-12.906c0,0-14.577-17.719-6.619-32.218,5.009-9.125,18.855-29.273,18.855-29.273s5.782-5.491,7.584-11.01a20.377,20.377,0,0,0-5.353-10.308,6.683,6.683,0,0,0-2.491-4.914c-2.446-1.774-6.931-5.227-6.931-5.227s-7.375-17.693-8.474-20.9a97.116,97.116,0,0,1-4.394-15.919c-1.1-6.673-2.116-13.862-4.451-13.839,0,0-2.413-1.047-2.413,3.239,0,0-5.056,2.6-4.313,8.124s1.435,8.367,1.238,11.476.8,13.879,3.291,17.257c0,0,.833,15.126,2.081,19.065q.057.181.116.329c1.311,3.329-11.822,16.193-18.929,19.637,0,0-.742,1.39-3.5,1.011s-7.428-.558-8.233-2.6-6.139-18.017-6.139-18.017-4.324-20.493-12.959-20.491a3.186,3.186,0,0,0-4.7-1.42c-3.382,1.713-1.168,11.036.329,16.137s5.288,18.51,5.9,24.681-2.879,18.527-1.537,23.389,2.77,8.144,6.965,16.1S315.35,318.392,316.824,325.329Z" transform="translate(-258.773 -130.824)" fill="#fff"/>
          <path id="Path_1331" data-name="Path 1331" d="M316.5,359.507s-6.592-24.818-16.285-40.86-4.011-21.725-4.011-35.093-10.882-36.1-7.948-41.11,6.945-1,8.616,3.676-.669,7.353-5.348,7.687" transform="translate(-258.449 -165.001)" fill="none" stroke="#263238" stroke-linecap="round" stroke-linejoin="round" stroke-width="1"/>
          <path id="Path_1332" data-name="Path 1332" d="M300.845,243.745s5.624-.34,9.084,8.656,9,31.832,14.763,38.752" transform="translate(-264.712 -166.731)" fill="none" stroke="#263238" stroke-linecap="round" stroke-linejoin="round" stroke-width="1"/>
          <path id="Path_1333" data-name="Path 1333" d="M337.842,318.495c.033.071,8.055,4.546,20.512.625" transform="translate(-282.414 -202.498)" fill="none" stroke="#263238" stroke-linecap="round" stroke-linejoin="round" stroke-width="1"/>
          <path id="Path_1334" data-name="Path 1334" d="M302.89,292.473a5.638,5.638,0,0,1,5.267-2" transform="translate(-265.691 -189.055)" fill="none" stroke="#263238" stroke-linecap="round" stroke-linejoin="round" stroke-width="1"/>
          <path id="Path_1335" data-name="Path 1335" d="M304.944,298.328a4.477,4.477,0,0,1,4.528-1.473" transform="translate(-266.673 -192.077)" fill="none" stroke="#263238" stroke-linecap="round" stroke-linejoin="round" stroke-width="1"/>
          <path id="Path_1336" data-name="Path 1336" d="M374.477,175.125c-8.188,2.727-2.1,15.091-3.075,19.6s1.568,13.152,3.528,17.836c0,5.487,1.96,18.816,1.96,18.816-1.21,4.236-11.307,16.735-21.117,20.648" transform="translate(-290.994 -133.899)" fill="none" stroke="#263238" stroke-linecap="round" stroke-linejoin="round" stroke-width="1"/>
          <path id="Path_1337" data-name="Path 1337" d="M397.646,178.378s-.608-9.464-3.6-9.464-2.808,6.378-1.561,11.11S398.556,184.056,397.646,178.378Z" transform="translate(-308.155 -130.927)" fill="none" stroke="#263238" stroke-linecap="round" stroke-linejoin="round" stroke-width="1"/>
          <path id="Path_1338" data-name="Path 1338" d="M403.158,187.06s2.546,14.881,6.86,24.227" transform="translate(-313.666 -139.609)" fill="none" stroke="#263238" stroke-linecap="round" stroke-linejoin="round" stroke-width="1"/>
          <path id="Path_1339" data-name="Path 1339" d="M423.527,273.187a29.261,29.261,0,0,0,3.784-10.642c-.2-2.55-3.121-10.877-6.541-18.94" transform="translate(-322.093 -166.665)" fill="none" stroke="#263238" stroke-linecap="round" stroke-linejoin="round" stroke-width="1"/>
          <path id="Path_1340" data-name="Path 1340" d="M429.984,267.557c3.383,2.547,9.273,4.5,8.59,8.894a36.8,36.8,0,0,1-4.537,12.457" transform="translate(-326.502 -178.125)" fill="none" stroke="#263238" stroke-linecap="round" stroke-linejoin="round" stroke-width="1"/>
          <path id="Path_1341" data-name="Path 1341" d="M412.3,368.981s-11.79-16.372-9.429-27.677c1.737-8.318,12.906-22.86,20.915-34.91,4.41-4.112,6.617-7.322,7.583-11.01-1.416-6.962-3.707-8.992-5.918-10.773" transform="translate(-313.38 -186.285)" fill="none" stroke="#263238" stroke-linecap="round" stroke-linejoin="round" stroke-width="1"/>
          <path id="Path_1342" data-name="Path 1342" d="M420.06,272.4a9.977,9.977,0,0,0-7.861,1.071" transform="translate(-317.992 -180.263)" fill="none" stroke="#263238" stroke-linecap="round" stroke-linejoin="round" stroke-width="1"/>
          <path id="Path_1343" data-name="Path 1343" d="M421.752,278.033a7.391,7.391,0,0,0-4.665.82" transform="translate(-320.331 -183.097)" fill="none" stroke="#263238" stroke-linecap="round" stroke-linejoin="round" stroke-width="1"/>
        </g>
      </g>
      <g id="Group_1883" data-name="Group 1883">
        <g id="Group_1882" data-name="Group 1882" transform="translate(0 4.298)">
          <path id="Path_1344" data-name="Path 1344" d="M181.8,84.057a64.413,64.413,0,0,0-18.847-7.41,69.105,69.105,0,0,0-19.827-1.46A64.942,64.942,0,0,0,107.181,88.82a62.924,62.924,0,0,1,36.026-9.592A60.843,60.843,0,0,1,177.345,90.8Z" transform="translate(-107.181 -75.014)" fill="#13222e"/>
          <g id="Group_1881" data-name="Group 1881" transform="translate(64.056 1.98)">
            <path id="Path_1345" data-name="Path 1345" d="M230,96.3l20.922,1.264-9.363-18.752Z" transform="translate(-230.005 -78.811)" fill="#13222e"/>
          </g>
        </g>
        <path id="Path_1346" data-name="Path 1346" d="M206.11,75.382a45.12,45.12,0,0,0-9.919-5.111A55.779,55.779,0,0,0,185.348,67.4c-1.85-.314-3.725-.455-5.6-.6-.937-.045-1.879-.016-2.816-.027H175.53l-1.4.118c-.935.088-1.869.148-2.8.261l-2.762.51c-.457.1-.916.175-1.369.285l-1.344.4q-1.34.4-2.656.847c.93-.088,1.851-.185,2.765-.3l1.366-.175c.457-.041.919-.049,1.377-.075l2.736-.173,2.736,0a67.882,67.882,0,0,1,10.853.923,87.4,87.4,0,0,1,10.662,2.371A107.226,107.226,0,0,1,206.11,75.382Z" transform="translate(-133.984 -66.773)" fill="#13222e"/>
        <path id="Path_1347" data-name="Path 1347" d="M110.472,96.861c6.052-2.243,12.042-4.356,18.165-6.006,3.057-.835,6.15-1.476,9.269-2.031a82.519,82.519,0,0,1,9.518-.892,34.287,34.287,0,0,0-9.7-.675,54.245,54.245,0,0,0-9.612,1.647,65.824,65.824,0,0,0-9.159,3.265A49.971,49.971,0,0,0,110.472,96.861Z" transform="translate(-108.756 -76.534)" fill="#13222e"/>
      </g>
    </g>
  </g>
</svg>
