<?xml version="1.0" encoding="utf-8"?>
<!-- Generator: Adobe Illustrator 26.0.0, SVG Export Plug-In . SVG Version: 6.00 Build 0)  -->
<svg version="1.1" id="Layer_1" xmlns="http://www.w3.org/2000/svg" xmlns:xlink="http://www.w3.org/1999/xlink" x="0px" y="0px"
	 viewBox="0 0 2481.75 2000" style="enable-background:new 0 0 2481.75 2000;" xml:space="preserve">
<style type="text/css">
	.st0{fill:#FFFFFF;}
	.st1{fill:#FEEFDC;}
	.st2{fill:#ED7163;}
	.st3{fill:#FFCC8F;}
	.st4{fill:#FE9F73;}
	.st5{fill:#D6ECF0;}
	.st6{fill:#8BBECC;}
	.st7{opacity:0.5;}
	.st8{fill:#20111D;}
	.st9{fill:#000100;}
	.st10{fill:#333333;}
	.st11{fill:#212121;}
	.st12{fill:#FEB546;}
	.st13{fill:#FBC758;}
	.st14{fill:#FEC786;}
	.st15{fill:#F74E2F;}
	.st16{fill:#49263E;}
	.st17{fill:#9DF2CD;}
	.st18{fill:#7FC6A6;}
	.st19{fill:#C2F2DD;}
	.st20{fill:#FFE2BF;}
	.st21{fill:#FF5433;}
	.st22{fill:#FDC8CE;}
	.st23{fill:#FD7583;}
</style>
<rect x="0" class="st0" width="2481.75" height="2000"/>
<g>
	<path class="st1" d="M1703.67,1802.84c-431.91,131.97-1143.53,123.93-1400.18-275.31c-252-392-208-1028,224.42-990.44
		c401.52,34.88,178.02-347.38,595.58-433.56c417.56-86.19,974.88,149.84,1113.47,588.64S2220,1645.08,1703.67,1802.84z"/>
	<g>
		<g>
			<path class="st2" d="M1139.19,1677.68c0,0,262.68-80.33,333.65-240.77c70.97-160.44-213.01-226.83-209.03-226.18
				c3.99,0.64-304.1,32.7-331.78,77.34c-27.68,44.64-147.69,229.9-111.79,235.71C856.14,1529.58,1139.19,1677.68,1139.19,1677.68z"
				/>
		</g>
		<g>
			<path class="st3" d="M1682.84,393.69c0,0,73.91-7.22,83.21-3.6c9.31,3.63,10.64,36.35,9.45,44.01
				c-1.19,7.66-64.07,40.09-64.07,40.09L1682.84,393.69z"/>
		</g>
		<g>
			<path class="st4" d="M1618.41,391.06c0,0,99.61-8.45,121.72,31.96c22.12,40.42-61.82,129.18-114.97,128.77
				C1572.03,551.39,1618.41,391.06,1618.41,391.06z"/>
		</g>
		<g>
			<path d="M1717.48,498.98c1.82-1.87,44.44-46.18,22-81.55c-22.18-34.96-113.86-29.34-117.75-29.08l0.33,4.97
				c0.92-0.06,92.61-5.7,113.22,26.78c20.33,32.05-20.94,74.98-21.36,75.41L1717.48,498.98z"/>
		</g>
		<g>
			<path d="M1773.08,433.56c3.69-16.5-5.4-37.97-8.56-41.48c-5.04-1.69-45.48,0.82-81.45,4.09l-0.45-4.96
				c0.2-0.02,20.12-1.82,40.24-3.16c41.75-2.78,43.65-0.96,44.92,0.24c4.35,4.15,14.27,28.01,10.16,46.35L1773.08,433.56z
				 M1764.68,392.15L1764.68,392.15L1764.68,392.15z"/>
		</g>
		<g>
			
				<rect x="1109.54" y="1725.14" transform="matrix(0.1596 -0.9872 0.9872 0.1596 -711.9356 2618.9451)" width="145.47" height="4.98"/>
		</g>
		<g>
			<path d="M1179.82,1661.26c90.25-24.02,179.91-83.4,225.02-128.41c39.95-39.85,59.32-71.01,59.51-71.32l-4.24-2.61
				c-0.19,0.31-19.29,31.01-58.78,70.41c-44.66,44.55-133.42,103.33-222.78,127.12L1179.82,1661.26z"/>
		</g>
		<g>
			<g>
				<g>
					<path class="st5" d="M992.84,279.7c0-0.37,0.02-0.74,0.04-1.11c0.51-12.49,10.29-22.64,22.76-23.62
						c0.37-0.03,0.74-0.06,1.11-0.08c0.12,0,0.24-0.02,0.37-0.03l551.14-10.36c0.12,0,0.24,0.01,0.37,0.01
						c0.37,0,0.74,0.02,1.11,0.04c12.49,0.51,22.65,10.28,23.63,22.75c0.03,0.37,0.06,0.74,0.08,1.11c0,0.12,0.02,0.24,0.03,0.37
						l21.55,1145.96c0.22,11.92-9.26,21.76-21.17,21.98l-557.49,10.48c-11.91,0.22-21.76-9.25-21.98-21.17L992.83,280.06
						C992.83,279.94,992.84,279.82,992.84,279.7z"/>
				</g>
			</g>
			<g>
				<path class="st6" d="M1602.84,261.5l-45.66-30.02l-536.99,11.48l-46.32,42.32c0,0,5.45,47.85,8.42,48.53
					c2.97,0.67,626.45-3.8,626.24-13.39C1608.32,310.82,1602.84,261.5,1602.84,261.5z"/>
			</g>
			<g class="st7">
				<g>
					<g>
						<g>
							<g>
								<path class="st0" d="M1545.73,288.04c0.06,3.37,2.12,6.23,5.03,7.47c1.04,0.45,2.2,0.69,3.41,0.67
									c1.2-0.02,2.34-0.31,3.38-0.8c2.86-1.34,4.82-4.28,4.76-7.65c-0.09-4.58-3.88-8.22-8.45-8.13
									C1549.28,279.68,1545.64,283.46,1545.73,288.04z"/>
							</g>
						</g>
					</g>
				</g>
				<g>
					<g>
						<g>
							<g>
								<path class="st0" d="M1520.08,288.52c0.06,3.37,2.12,6.23,5.03,7.47c1.04,0.45,2.2,0.69,3.41,0.67
									c1.21-0.02,2.37-0.31,3.39-0.8c2.86-1.35,4.81-4.28,4.75-7.65c-0.09-4.58-3.87-8.22-8.45-8.13
									C1523.63,280.16,1519.99,283.94,1520.08,288.52z"/>
							</g>
						</g>
					</g>
				</g>
				<g>
					<g>
						<g>
							<g>
								<path class="st0" d="M1494.43,289c0.06,3.37,2.12,6.23,5.03,7.47c1.04,0.45,2.2,0.69,3.41,0.67
									c1.21-0.02,2.37-0.31,3.39-0.8c2.86-1.35,4.81-4.28,4.75-7.65c-0.09-4.58-3.87-8.22-8.45-8.13
									C1497.98,280.64,1494.34,284.42,1494.43,289z"/>
							</g>
						</g>
					</g>
				</g>
			</g>
			<g>
				<g>
					<g>
						<g>
							<g>
								<path class="st8" d="M993.06,292.64c-0.39-20.61,16.01-37.62,36.61-38.01l526.02-9.89c20.6-0.39,37.62,15.99,38.01,36.61
									l21.09,1121.53c0.35,18.47-14.35,33.72-32.82,34.07l-533.75,10.04c-18.46,0.35-33.72-14.34-34.07-32.81L993.06,292.64z
									 M967.71,292.48l21.31,1133.07c0.64,34,28.71,61.03,62.71,60.39l528.22-9.93c33.99-0.64,61.03-28.71,60.39-62.71
									l-21.31-1133.07c-0.64-34-28.72-61.03-62.71-60.39l-528.22,9.93C994.1,230.42,967.07,258.49,967.71,292.48z"/>
							</g>
						</g>
					</g>
				</g>
			</g>
		</g>
		<path class="st4" d="M1083.08,1341.15c4.45-179.39-69.12-281.34-69.12-281.34s57.36-228.13,46.32-311.79
			c-10.17-77.13-90.91-148.26-124.15-80.42c-2.81,5.74-5.28,12.48-7.34,20.28c0,0-5.67,60.29-19.43,115.66
			c-5.72,23.06-12.86,45.27-21.56,61.91c-29.61,56.62-98.64,205.09-113.6,272.26c-14.96,67.16,3.07,360.7,3.07,360.7l-126.24,533.55
			h482.05l60.82-376.13l-245.35-115.39C948.54,1540.44,1078.64,1520.53,1083.08,1341.15z"/>
		<g>
			<path class="st4" d="M857.52,1430.98c30.69-2.6,128.43-22.11,145.75,3.39c17.32,25.5,51.69,23.49,51.69,23.49
				s-54.66,94.52-8.93,128.43s-126.26,21.23-125.46,16.32C921.37,1597.69,826.83,1433.58,857.52,1430.98z"/>
		</g>
		<g>
			<g>
				<path class="st4" d="M1625.17,1175.09c80.96,20.53,77.96,65.81,76.06,92.6c-1.9,26.79-67.36,97.66-67.36,97.66
					s-36.03-10.44-44.2-66.52c-8.17-56.07,37.44-90.15,37.44-90.15L1625.17,1175.09z"/>
			</g>
			<g>
				<path class="st3" d="M1651.53,1284.52c7.98-8.37,16.51-10.17,29.08-4.95c4.09,1.7,10,4.42,13.32,6.99
					c-26.72,48.66-70.33,92.94-70.33,92.94l-2.2-0.63c-4.35-2.47-9.19-5.99-13.02-10.83c-9.95-12.58-3.84-21.91-3.84-21.91
					L1651.53,1284.52z"/>
			</g>
		</g>
		<g>
			<g>
				<path class="st4" d="M1616.35,993.59l1.82-45.81c107.07,38.54,97.01,99.53,90.89,135.61
					c-6.12,36.08-104.24,123.53-104.24,123.53s-47.48-18.92-51.14-96.03C1550.01,1033.77,1616.35,993.59,1616.35,993.59z"/>
			</g>
			<g>
				<path class="st3" d="M1639.44,1099.64c11.92-10.29,23.73-11.6,40.08-2.87c5.33,2.84,12.97,7.31,17.14,11.24
					c-42.66,62.45-107.65,116.72-107.65,116.72l-2.89-1.15c-5.57-3.92-11.67-9.34-16.22-16.4c-11.83-18.37-2.31-30.22-2.31-30.22
					L1639.44,1099.64z"/>
			</g>
		</g>
		<g>
			<g>
				<path class="st4" d="M1624.01,696.52c108.74,33.51,99.12,96.94,94.68,133.26c-4.44,36.32-98.38,128.24-98.38,128.24
					s-48.31-16.69-55.56-93.55c-7.25-76.86,59.54-126.02,59.54-126.02L1624.01,696.52z"/>
			</g>
			<g>
				<path class="st3" d="M1649.91,849.26c11.43-10.84,23.16-12.7,39.91-4.73c5.45,2.59,13.3,6.7,17.64,10.43
					c-39.7,64.37-102.1,121.61-102.1,121.61l-2.94-1.01c-5.74-3.66-12.09-8.79-16.96-15.63c-12.67-17.8-3.71-30.08-3.71-30.08
					L1649.91,849.26z"/>
			</g>
		</g>
		<g>
			<path d="M1627.26,986.13l2.08,4.53c-0.57,0.26-56.61,26.66-69.51,83.91c-12.93,57.39,12.6,97.38,12.86,97.78l-4.17,2.73
				c-1.11-1.69-26.97-42.06-13.55-101.6C1568.42,1013.77,1626.67,986.4,1627.26,986.13z"/>
		</g>
		<g>
			<path d="M1642.9,1093.96l3.53,3.51c-28.42,28.57-74.33,75.69-76.56,80.49c-7.3,16.55-0.41,31.58,20.46,44.66l-2.64,4.22
				c-16.02-10.04-32.9-27.01-22.38-50.89C1568.33,1169.12,1630.47,1106.45,1642.9,1093.96z"/>
		</g>
		<g>
			<path d="M1636.62,727.1l2.85,4.08c-0.53,0.37-53.38,37.76-69.2,89.26c-15.74,51.24,16.13,104.18,16.45,104.71l-4.25,2.6
				c-1.37-2.24-33.38-55.36-16.97-108.78C1581.85,765.81,1634.39,728.65,1636.62,727.1z"/>
		</g>
		<g>
			<path d="M1576.99,935.11c-1.47,6.94-4.9,23.18,27.03,43.55l2.68-4.2c-29.02-18.51-26.09-32.39-24.84-38.32
				c0.1-0.48,0.19-0.92,0.26-1.32c2.08-5.36,43.77-54.26,69.66-83.93l-3.75-3.27c-20.95,24.01-69.79,80.49-70.8,86.24
				C1577.17,934.23,1577.09,934.65,1576.99,935.11z M1582.15,934.71c0,0.01,0,0.02,0,0.02
				C1582.14,934.73,1582.14,934.72,1582.15,934.71z"/>
		</g>
		<g>
			<path d="M1638.58,1199.17l2.29,4.42c-0.41,0.21-40.98,21.71-48.3,66.39c-7.3,44.63,15.59,71.66,15.82,71.92l-3.75,3.27
				c-1.01-1.16-24.68-28.95-16.98-76C1595.37,1222.05,1636.82,1200.08,1638.58,1199.17z"/>
		</g>
		<g>
			<path d="M1647.52,1285.66l3.96,3.02l-44.85,58.81c-0.47,0.9-3.93,8.34,3.77,19.09c7.82,10.92,12.69,10.47,12.74,10.47
				c-0.09,0.01-0.13,0.03-0.13,0.03l1.15,4.85c-0.38,0.09-1.24,0.22-2.52,0.02c-3.05-0.49-8.45-2.91-15.29-12.45
				c-10.06-14.04-4.21-24.21-3.95-24.64L1647.52,1285.66z"/>
		</g>
		<g>
			<rect x="1620.22" y="278.57" transform="matrix(1 -7.037536e-03 7.037536e-03 1 -3.5385 11.4325)" width="4.98" height="459.9"/>
		</g>
		<g>
			<g>
				<g>
					<g>
						<g>
							<path class="st9" d="M831.9,1405.1c1.33-0.58,2.88,0.04,3.45,1.37c0.21,0.48,20.89,47.76,46.78,64.34
								c1.22,0.78,1.58,2.41,0.79,3.63c-0.26,0.41-0.62,0.72-1.03,0.93c-0.8,0.4-1.79,0.39-2.6-0.13
								c-27.25-17.45-47.9-64.68-48.76-66.68C829.96,1407.22,830.57,1405.69,831.9,1405.1z"/>
						</g>
					</g>
				</g>
			</g>
		</g>
		<g>
			<g>
				<g>
					<g>
						<g>
							<path class="st9" d="M858.33,1417.94c0.3,0.42,30.7,42.13,59.56,52.74c1.36,0.5,2.06,2.01,1.56,3.37
								c-0.24,0.65-0.71,1.15-1.28,1.44c-0.63,0.32-1.38,0.38-2.09,0.12c-30.37-11.16-60.73-52.82-62-54.59
								c-0.85-1.18-0.59-2.82,0.59-3.67C855.84,1416.5,857.48,1416.77,858.33,1417.94z"/>
						</g>
					</g>
				</g>
			</g>
		</g>
		<g>
			<path class="st2" d="M941.83,667.72c6.15,0.99-3.5,37.27-4.7,44.64c-1.19,7.37-10.21,47.54-10.21,47.54l-8.73,2.21l0.2-1.08
				c-0.26-1.29,13.21-92.44,13.21-92.44S935.69,666.72,941.83,667.72z"/>
		</g>
		<g>
			<path d="M771.76,1137.17c15.26-68.51,86.63-220.88,113.82-272.87c7.74-14.79,14.92-35.43,21.35-61.35
				c13.55-54.55,19.31-114.7,19.37-115.3l0.02-0.2l0.05-0.2c2.04-7.75,4.57-14.72,7.51-20.74c13.31-27.16,32.32-30.25,45.96-28.05
				c0.03,0,0.06,0.01,0.09,0.01c17.46,2.86,36.58,16.38,52.44,37.11c16.25,21.22,27.03,46.83,30.36,72.11
				c10.7,81.09-41.3,292.41-46.09,311.63c3.49,5.12,20.03,30.45,35.87,73.02c16.35,43.92,35.35,115.8,33.04,208.87
				c-1.02,41.27-8.8,77.54-23.13,107.82c-11.5,24.3-27.21,44.81-46.7,60.95c-33.23,27.52-65.46,32.71-66.82,32.92l-0.75-4.92
				c0.32-0.05,32.22-5.18,64.4-31.83c29.79-24.67,65.77-73.33,68.03-165.05c2.29-92.17-16.5-163.33-32.66-206.8
				c-17.51-47.11-35.81-72.76-35.99-73.01l-0.68-0.94l0.28-1.12c0.57-2.28,57.11-228.62,46.26-310.86
				c-6.49-49.25-43.99-99.28-78.67-104.96c-0.03,0-0.05-0.01-0.08-0.01c-17.15-2.77-31.22,5.98-40.69,25.32
				c-2.77,5.67-5.17,12.27-7.12,19.62c-0.38,3.95-6.23,62.52-19.47,115.82c-6.53,26.31-13.85,47.32-21.77,62.46
				c-27.1,51.82-98.22,203.6-113.38,271.65c-14.71,66.05,2.95,357.08,3.13,360.01l0.02,0.37l-54.19,229.02l-4.85-1.15l54.02-228.3
				C773.75,1481.75,757.02,1203.34,771.76,1137.17z"/>
		</g>
		<g>
			<path class="st3" d="M926.77,615.26c10.72-3.87,46.94-9.9,52.55,8.5c5.62,18.4-10.26,131.73-10.26,131.73l-3.3,37.18
				c0,0-2.19,13.52-21.62,16.68c-17.63,2.87-34.41-5.56-34.8-5.8C910.59,794.78,916.06,619.13,926.77,615.26z"/>
		</g>
		<g>
			<path d="M925.93,612.91c7.37-2.66,32.03-7.76,46.28-0.63c4.88,2.44,8.08,6.05,9.51,10.74l-4.76,1.45
				c-1.03-3.38-3.31-5.91-6.97-7.74c-11.62-5.81-33.37-2.32-42.15,0.78c-1.42,1.54-4.95,10.94-8.97,63.28
				c-2.55,33.25-4.38,71.5-5.59,96.82c-0.61,12.85-1,20.8-1.27,24.41c4.3,1.91,17.75,7.13,31.76,4.85l0.8,4.92
				c-6.13,1-12.14,0.7-17.45-0.16c-10.95-1.77-18.95-5.92-19.06-5.98l-1.39-0.85l0.23-1.61c0.25-1.8,0.76-12.39,1.4-25.81
				c1.25-26.06,3.13-65.43,5.78-99.26C918.98,615.43,923.33,613.85,925.93,612.91z"/>
		</g>
		<g>
			<g>
				<path class="st10" d="M707.75,1720.77c182.4,75.75,400.8,74.03,469.9,71.25c11.25-0.45,20.65,8.03,19.21,17.33l-15.28,98.81
					c-0.93,6.03-6.31,10.7-13.45,11.77c-209.86,31.23-435.49-54.03-489.35-76.16c-7.14-2.93-11.36-9.36-10.37-15.77l14.97-96.82
					C684.87,1721.57,697.07,1716.33,707.75,1720.77z"/>
			</g>
			<g>
				<path class="st11" d="M1155.03,1833.84l3.44,0.53c2.87,0.44,4.83,3.13,4.39,5.99l-5.03,32.57c-0.44,2.87-3.13,4.83-5.99,4.39
					l-3.44-0.53c-2.87-0.44-4.83-3.13-4.39-5.99l5.03-32.57C1149.48,1835.36,1152.17,1833.4,1155.03,1833.84z"/>
			</g>
			<g>
				<path class="st11" d="M1113.62,1835.57l3.44,0.53c2.87,0.44,4.83,3.13,4.39,5.99l-5.03,32.57c-0.44,2.87-3.13,4.83-5.99,4.39
					l-3.44-0.53c-2.87-0.44-4.83-3.13-4.39-5.99l5.03-32.56C1108.07,1837.09,1110.76,1835.12,1113.62,1835.57z"/>
			</g>
			<g>
				<path class="st11" d="M1072.24,1837.13l3.44,0.53c2.87,0.44,4.83,3.13,4.39,5.99l-5.03,32.56c-0.44,2.87-3.13,4.83-5.99,4.39
					l-3.44-0.53c-2.87-0.44-4.83-3.13-4.39-5.99l5.03-32.56C1066.69,1838.66,1069.37,1836.69,1072.24,1837.13z"/>
			</g>
			<g>
				<path class="st11" d="M1031.92,1834.68l3.44,0.53c2.87,0.44,4.83,3.13,4.39,5.99l-5.03,32.57c-0.44,2.87-3.13,4.83-5.99,4.39
					l-3.44-0.53c-2.87-0.44-4.83-3.13-4.39-5.99l5.03-32.57C1026.37,1836.2,1029.06,1834.24,1031.92,1834.68z"/>
			</g>
			<g>
				<path class="st11" d="M990.73,1835l3.44,0.53c2.87,0.44,4.83,3.13,4.39,5.99l-5.03,32.57c-0.44,2.87-3.13,4.83-5.99,4.39
					l-3.44-0.53c-2.87-0.44-4.83-3.13-4.39-6l5.03-32.56C985.18,1836.52,987.86,1834.56,990.73,1835z"/>
			</g>
			<g>
				<path class="st11" d="M950.23,1830.87l3.44,0.53c2.87,0.44,4.83,3.13,4.39,5.99l-5.03,32.56c-0.44,2.87-3.13,4.83-5.99,4.39
					l-3.44-0.53c-2.87-0.44-4.83-3.13-4.39-5.99l5.03-32.56C944.68,1832.39,947.36,1830.42,950.23,1830.87z"/>
			</g>
			<g>
				<path class="st11" d="M910.05,1824.65l3.44,0.53c2.87,0.44,4.83,3.13,4.39,5.99l-5.03,32.56c-0.44,2.87-3.13,4.83-5.99,4.39
					l-3.44-0.53c-2.87-0.44-4.83-3.13-4.39-5.99l5.03-32.57C904.49,1826.18,907.18,1824.21,910.05,1824.65z"/>
			</g>
			<g>
				<path class="st11" d="M870.18,1816.37l3.44,0.53c2.87,0.44,4.83,3.13,4.39,5.99l-5.03,32.57c-0.44,2.87-3.13,4.83-5.99,4.39
					l-3.44-0.53c-2.87-0.44-4.83-3.13-4.39-5.99l5.03-32.57C864.63,1817.89,867.32,1815.92,870.18,1816.37z"/>
			</g>
			<g>
				<path class="st11" d="M831.01,1803.62l3.44,0.53c2.87,0.44,4.83,3.13,4.39,5.99l-5.03,32.57c-0.44,2.87-3.13,4.83-5.99,4.39
					l-3.44-0.53c-2.87-0.44-4.83-3.13-4.39-5.99l5.03-32.57C825.46,1805.14,828.14,1803.17,831.01,1803.62z"/>
			</g>
			<g>
				<path class="st11" d="M791.37,1793.88l3.44,0.53c2.87,0.44,4.83,3.13,4.39,5.99l-5.03,32.57c-0.44,2.87-3.13,4.83-5.99,4.39
					l-3.44-0.53c-2.87-0.44-4.83-3.13-4.39-5.99l5.03-32.57C785.82,1795.4,788.51,1793.44,791.37,1793.88z"/>
			</g>
			<g>
				<path class="st11" d="M752.39,1779.89l3.44,0.53c2.87,0.44,4.83,3.13,4.39,5.99l-5.03,32.57c-0.44,2.87-3.13,4.83-5.99,4.39
					l-3.44-0.53c-2.87-0.44-4.83-3.13-4.39-5.99l5.03-32.57C746.84,1781.41,749.53,1779.44,752.39,1779.89z"/>
			</g>
			<g>
				<path class="st11" d="M713.44,1765.74l3.44,0.53c2.87,0.44,4.83,3.13,4.39,5.99l-5.03,32.56c-0.44,2.87-3.13,4.83-5.99,4.39
					l-3.44-0.53c-2.87-0.44-4.83-3.13-4.39-5.99l5.03-32.57C707.89,1767.26,710.57,1765.29,713.44,1765.74z"/>
			</g>
			<g>
				<path class="st12" d="M1044.28,1790.94l-48.97-7.57c-2.87-0.44-5.64,0.67-7.6,2.72c-3.96-0.39-7.93-0.8-11.95-1.23
					c3.52-8.83,12.22-14.45,21.33-13.04l48.97,7.57c10.73,1.66,18,12.44,16.21,24.04L1044,1921.68
					c-1.79,11.59-11.98,19.68-22.71,18.02l-48.97-7.57c-7.34-1.14-13.07-6.55-15.37-13.57c5.06,0.69,10.14,1.34,15.25,1.95
					l0.07-0.45c0.58,0.24,1.19,0.41,1.84,0.51l48.97,7.57c4.83,0.75,9.42-2.89,10.23-8.12l18.28-118.27
					C1052.39,1796.54,1049.12,1791.68,1044.28,1790.94z"/>
			</g>
			<g>
				<path class="st0" d="M1051.63,1859.71c-0.64,4.13-4.25,6.99-8.07,6.4l-21.3-3.29l2.31-14.94l21.3,3.29
					C1049.69,1851.77,1052.26,1855.59,1051.63,1859.71z"/>
			</g>
		</g>
	</g>
	<g>
		<g>
			<g>
				<g>
					<polygon class="st13" points="340.22,880.34 332.63,864.9 324.99,880.31 307.96,882.75 320.25,894.79 317.31,911.74 
						332.56,903.76 347.77,911.8 344.9,894.83 357.24,882.85 					"/>
				</g>
			</g>
		</g>
	</g>
	<g>
		<g>
			<g>
				<g>
					<polygon class="st14" points="2096.43,702.77 2119.63,740.28 2135.29,699.05 2178.14,688.58 2143.77,660.94 2147.05,616.95 
						2110.14,641.1 2069.32,624.39 2080.89,666.95 2052.38,700.61 					"/>
				</g>
			</g>
		</g>
	</g>
	<g>
		<g>
			<g>
				<g>
					<g>
						<g>
							<path class="st14" d="M1046.88,263.85c-8.35,4.7-20.94,13.25-20.16,29.49l12.81-0.54c0.15-5.64,1.54-8.79,5.34-12.09
								c43.35-23.58,3.37-36.89,26.18-53.58l-6.51-11.05C1035.76,232.46,1064.61,255.64,1046.88,263.85z"/>
						</g>
					</g>
				</g>
			</g>
		</g>
	</g>
	<g>
		<g>
			<g>
				<g>
					<g>
						<g>
							<path class="st15" d="M1959.49,386.13c-37.47,32.1,4.38,36.78-14.45,57.86l8.66,9.45c24.4-21.72-7.32-38.46,6.3-49.43
								c7.81-7.22,18.77-17.12,14.6-34.01l-12.41,3.2C1963.22,378.74,1962.52,382.12,1959.49,386.13z"/>
						</g>
					</g>
				</g>
			</g>
		</g>
	</g>
	<g>
		<g>
			<g>
				<g>
					<g>
						<g>
							<path class="st15" d="M806.3,573.75c21.45,44.44,36.67,5.17,52.23,28.77l11.35-5.96c-14.75-29.14-39.05-2.76-46.17-18.73
								c-4.99-9.39-11.74-22.52-29.14-22.82l-0.08,12.82C800.12,568.26,803.2,569.8,806.3,573.75z"/>
						</g>
					</g>
				</g>
			</g>
		</g>
	</g>
	<g>
		<g>
			<g>
				<g>
					<g>
						<g>
							<g>
								<g>
									<path class="st16" d="M1410.71,1731.82l-5.3,1.9l-0.95-2.65c-3.48-9.71-6.76-19.69-9.74-29.65l-0.81-2.69l5.39-1.61
										l0.81,2.69c2.95,9.87,6.2,19.75,9.65,29.37L1410.71,1731.82z M1392.71,1672.7l-5.47,1.32l-0.66-2.74
										c-2.46-10.19-4.63-20.46-6.46-30.53l-0.5-2.77l5.53-1l0.5,2.77c1.81,9.97,3.96,20.13,6.39,30.22L1392.71,1672.7z
										 M1715.65,1471.36c0,0-0.01,0.01-0.01,0.01c-4.1,2.1-8.53,3.87-13.16,5.27l-2.69,0.81l-1.62-5.39l2.69-0.81
										c4.31-1.3,8.42-2.94,12.22-4.88c0.01,0,0.01-0.01,0.01-0.01c4.99-2.56,9.57-5.71,13.62-9.36l2.09-1.88l3.77,4.18
										l-2.09,1.88C1726.06,1465.16,1721.07,1468.59,1715.65,1471.36z M1673.47,1480.66l-2.79-0.34
										c-10.46-1.26-20.1-6.28-28.64-14.89l-1.98-2l3.99-3.96l1.98,2c7.62,7.69,16.14,12.16,25.32,13.27l2.79,0.34
										L1673.47,1480.66z M1747.58,1437.45l-5.21-2.12l1.06-2.61c3.57-8.79,5.65-18.64,6.16-29.29l0.14-2.81l5.62,0.27l-0.14,2.81
										c-0.55,11.28-2.76,21.76-6.57,31.14L1747.58,1437.45z M1381.42,1612.02l-5.58,0.65l-0.33-2.79
										c-1.23-10.5-2.09-20.98-2.56-31.13l-0.13-2.81l5.62-0.26l0.13,2.81c0.46,10.02,1.31,20.36,2.53,30.74L1381.42,1612.02z
										 M1630.88,1439.06l-5.15,2.25l-1.13-2.58c-3.96-9.05-7.05-19.22-9.16-30.23l-0.53-2.76l5.52-1.06l0.53,2.76
										c2.04,10.6,5,20.37,8.79,29.04L1630.88,1439.06z M1753.21,1374.91l-5.51,1.13l-0.56-2.76c-2-9.78-5.11-19.52-9.25-28.94
										l-1.13-2.57l5.15-2.26l1.13,2.57c4.3,9.78,7.53,19.9,9.61,30.08L1753.21,1374.91z M1378.22,1550.49l-5.62-0.17l0.09-2.81
										c0.33-10.57,1.11-21.06,2.31-31.18l0.33-2.79l5.59,0.66l-0.33,2.79c-1.18,9.96-1.95,20.29-2.28,30.7L1378.22,1550.49z
										 M1617.83,1379.88l-5.62,0.15l-0.07-2.81c-0.27-10.18,0.18-20.73,1.33-31.36l0.3-2.8l5.59,0.61l-0.3,2.8
										c-1.13,10.38-1.57,20.67-1.3,30.6L1617.83,1379.88z M1724.5,1320.2l-1.64-2.28c-2.33-3.25-4.8-6.4-7.35-9.38
										c-4.02-4.71-8.41-9.05-13.05-12.92l-2.16-1.8l3.6-4.32l2.16,1.8c4.88,4.07,9.5,8.64,13.73,13.59
										c2.64,3.09,5.22,6.37,7.64,9.75l1.64,2.28L1724.5,1320.2z M1385.06,1489.4l-5.49-1.2l0.6-2.75
										c2.25-10.29,5.03-20.45,8.27-30.19l0.89-2.67l5.34,1.77l-0.89,2.67c-3.17,9.55-5.9,19.52-8.11,29.62L1385.06,1489.4z
										 M1623.61,1318.97l-5.48-1.28l0.64-2.74c2.34-10.03,5.31-20.14,8.83-30.06l0.94-2.65l5.3,1.88l-0.94,2.65
										c-3.45,9.72-6.36,19.63-8.65,29.46L1623.61,1318.97z M1403.89,1431.06l-5.1-2.37l1.18-2.55
										c4.4-9.47,9.39-18.76,14.84-27.59l1.48-2.39l4.79,2.95l-1.48,2.39c-5.33,8.64-10.21,17.72-14.52,27L1403.89,1431.06z
										 M1679.4,1280.97l-2.58-1.12c-9.01-3.91-18.79-6.68-29.06-8.23l-2.78-0.42l0.84-5.56l2.78,0.42
										c10.75,1.63,21,4.53,30.46,8.63l2.58,1.12L1679.4,1280.97z M1435.48,1378.61l-4.42-3.48l1.74-2.21
										c6.44-8.16,13.35-16.1,20.55-23.6l1.95-2.03l4.06,3.9l-1.95,2.03c-7.08,7.37-13.87,15.17-20.19,23.19L1435.48,1378.61z
										 M1643.48,1260.95l-5.07-2.43l1.21-2.54c4.45-9.3,9.46-18.55,14.9-27.52l1.46-2.41l4.81,2.92l-1.46,2.4
										c-5.35,8.8-10.27,17.9-14.63,27.02L1643.48,1260.95z M1620.22,1270.25l-2.81,0.18c-9.78,0.61-19.93,2.16-30.16,4.6
										l-2.74,0.65l-1.3-5.47l2.74-0.65c10.55-2.51,21.01-4.11,31.11-4.75l2.81-0.18L1620.22,1270.25z M1477.63,1333.93
										l-3.65-4.28l2.14-1.83c7.97-6.81,16.32-13.24,24.8-19.11l2.31-1.6l3.2,4.62l-2.32,1.6c-8.32,5.76-16.51,12.07-24.35,18.76
										L1477.63,1333.93z M1560.69,1283.23l-2.62,1.03c-9.28,3.65-18.63,8.02-27.79,12.98l-2.47,1.34l-2.68-4.95l2.47-1.34
										c9.34-5.07,18.92-9.53,28.41-13.27l2.62-1.03L1560.69,1283.23z M1674.87,1208.22l-4.45-3.43l1.72-2.23
										c6.26-8.11,13.22-16.04,20.7-23.56l1.98-1.99l3.99,3.96l-1.98,2c-7.31,7.36-14.12,15.11-20.23,23.04L1674.87,1208.22z
										 M1918.76,1076.84l-2.76,0.57c-10.04,2.06-20.17,4.4-30.1,6.96l-2.72,0.7l-1.41-5.45l2.72-0.7
										c10.02-2.59,20.24-4.95,30.38-7.03l2.75-0.56L1918.76,1076.84z M1858.89,1092.03l-2.68,0.85
										c-9.93,3.13-19.74,6.53-29.17,10.1l-2.63,1l-1.99-5.26l2.63-1c9.53-3.61,19.44-7.05,29.48-10.21l2.68-0.84L1858.89,1092.03
										z M1717.46,1164.2l-3.53-4.38l2.19-1.76c7.9-6.37,16.42-12.56,25.31-18.41l2.35-1.55l3.09,4.7l-2.35,1.55
										c-8.74,5.75-17.11,11.84-24.87,18.09L1717.46,1164.2z M1801.11,1113.64l-2.56,1.16c-9.49,4.31-18.63,8.85-27.6,13.73
										l-2.47,1.34l-2.69-4.94l2.47-1.34c9.08-4.94,18.35-9.55,27.96-13.91l2.56-1.16L1801.11,1113.64z"/>
								</g>
							</g>
						</g>
					</g>
				</g>
			</g>
		</g>
		<g>
			<g>
				<g>
					<g>
						<g>
							<g>
								<path class="st15" d="M1951.6,1094.19l8.7-33.93c0,0,96.47-62.51,97.54-63.95c1.06-1.44,40.25-54.21,40.25-54.21
									l-67.85,29.41l-99.95,69.83L1951.6,1094.19z"/>
							</g>
						</g>
					</g>
				</g>
			</g>
			<g>
				<g>
					<g>
						<g>
							<g>
								<polygon class="st14" points="1879.27,1000.9 2098.08,942.1 1930.28,1041.33 								"/>
							</g>
						</g>
					</g>
				</g>
			</g>
			<g>
				<g>
					<g>
						<g>
							<g>
								<polygon class="st14" points="1960.3,1060.25 2014.22,1103.51 2098.08,942.1 								"/>
							</g>
						</g>
					</g>
				</g>
			</g>
		</g>
	</g>
	<g>
		<g>
			<g>
				<path class="st17" d="M1402.16,845.58h560.92c5.43,0,9.83-4.4,9.83-9.83V497.41c0-5.43-4.4-9.83-9.83-9.83h-560.92
					c-5.43,0-9.83,4.4-9.83,9.83v338.34C1392.32,841.17,1396.73,845.58,1402.16,845.58z"/>
			</g>
		</g>
		<g>
			<g>
				<g>
					<path class="st18" d="M1446.85,552.76h484.11c3.35,0,6.07-2.72,6.07-6.07c0-3.35-2.72-6.07-6.07-6.07h-484.11
						c-3.35,0-6.07,2.72-6.07,6.07C1440.78,550.04,1443.49,552.76,1446.85,552.76z"/>
				</g>
			</g>
		</g>
		<g>
			<g>
				<g>
					<path class="st18" d="M1446.85,621.66h484.11c3.35,0,6.07-2.72,6.07-6.07c0-3.35-2.72-6.07-6.07-6.07h-484.11
						c-3.35,0-6.07,2.72-6.07,6.07C1440.78,618.95,1443.49,621.66,1446.85,621.66z"/>
				</g>
			</g>
		</g>
		<g>
			<g>
				<g>
					<path class="st18" d="M1616.41,690.56h314.55c3.35,0,6.07-2.72,6.07-6.07c0-3.35-2.72-6.07-6.07-6.07h-314.55
						c-3.35,0-6.07,2.72-6.07,6.07C1610.34,687.85,1613.06,690.56,1616.41,690.56z"/>
				</g>
			</g>
		</g>
		<g>
			<g>
				<g>
					<path class="st18" d="M1443.25,690.56h125.52c3.35,0,6.07-2.72,6.07-6.07c0-3.35-2.72-6.07-6.07-6.07h-125.52
						c-3.35,0-6.07,2.72-6.07,6.07C1437.19,687.85,1439.9,690.56,1443.25,690.56z"/>
				</g>
			</g>
		</g>
		<g>
			<g>
				<g>
					<path class="st18" d="M1733.24,759.47h197.72c3.35,0,6.07-2.72,6.07-6.07c0-3.35-2.72-6.07-6.07-6.07h-197.72
						c-3.35,0-6.07,2.72-6.07,6.07C1727.17,756.75,1729.89,759.47,1733.24,759.47z"/>
				</g>
			</g>
		</g>
		<g>
			<g>
				<g>
					<path class="st18" d="M1443.25,759.47h245.65c3.35,0,6.07-2.72,6.07-6.07c0-3.35-2.72-6.07-6.07-6.07h-245.65
						c-3.35,0-6.07,2.72-6.07,6.07C1437.19,756.75,1439.9,759.47,1443.25,759.47z"/>
				</g>
			</g>
		</g>
		<g>
			<g>
				<path class="st17" d="M1569.86,829.75c-0.6,2.4-132.68,120.43-132.68,120.43l35.57-122.91L1569.86,829.75z"/>
			</g>
		</g>
	</g>
	<g>
		<g>
			<g>
				<path class="st19" d="M178.28,1092.28h498.64c4.41,0,7.98-3.57,7.98-7.98V782.94c0-4.41-3.57-7.98-7.98-7.98H178.28
					c-4.41,0-7.98,3.57-7.98,7.98v301.36C170.3,1088.7,173.88,1092.28,178.28,1092.28z"/>
			</g>
		</g>
		<g>
			<g>
				<g>
					<path class="st18" d="M218.63,832.73h429.1c2.97,0,5.38-2.41,5.38-5.38c0-2.97-2.41-5.38-5.38-5.38h-429.1
						c-2.97,0-5.38,2.41-5.38,5.38C213.25,830.33,215.66,832.73,218.63,832.73z"/>
				</g>
			</g>
		</g>
		<g>
			<g>
				<g>
					<path class="st18" d="M218.63,893.81h429.1c2.97,0,5.38-2.41,5.38-5.38c0-2.97-2.41-5.38-5.38-5.38h-429.1
						c-2.97,0-5.38,2.41-5.38,5.38C213.25,891.4,215.66,893.81,218.63,893.81z"/>
				</g>
			</g>
		</g>
		<g>
			<g>
				<g>
					<path class="st18" d="M368.92,954.88h278.81c2.97,0,5.38-2.41,5.38-5.38c0-2.97-2.41-5.38-5.38-5.38H368.92
						c-2.97,0-5.38,2.41-5.38,5.38C363.54,952.47,365.95,954.88,368.92,954.88z"/>
				</g>
			</g>
		</g>
		<g>
			<g>
				<g>
					<path class="st18" d="M215.44,954.88H326.7c2.97,0,5.38-2.41,5.38-5.38c0-2.97-2.41-5.38-5.38-5.38H215.44
						c-2.97,0-5.38,2.41-5.38,5.38C210.07,952.47,212.47,954.88,215.44,954.88z"/>
				</g>
			</g>
		</g>
		<g>
			<g>
				<g>
					<path class="st18" d="M472.48,1015.95h175.25c2.97,0,5.38-2.41,5.38-5.38c0-2.97-2.41-5.38-5.38-5.38H472.48
						c-2.97,0-5.38,2.41-5.38,5.38C467.1,1013.54,469.51,1015.95,472.48,1015.95z"/>
				</g>
			</g>
		</g>
		<g>
			<g>
				<g>
					<path class="st18" d="M215.44,1015.95h217.74c2.97,0,5.38-2.41,5.38-5.38c0-2.97-2.41-5.38-5.38-5.38H215.44
						c-2.97,0-5.38,2.41-5.38,5.38C210.07,1013.54,212.47,1015.95,215.44,1015.95z"/>
				</g>
			</g>
		</g>
		<g>
			<g>
				<path class="st19" d="M327.67,1078.25c-0.53,2.12-117.6,106.74-117.6,106.74l31.53-108.94L327.67,1078.25z"/>
			</g>
		</g>
	</g>
	<g>
		<g>
			<g>
				<path class="st20" d="M532.18,397.99h562.83c4.8,0,8.69-3.89,8.69-8.69V141.37c0-4.8-3.89-8.69-8.69-8.69H532.18
					c-4.8,0-8.69,3.89-8.69,8.69V389.3C523.49,394.1,527.38,397.99,532.18,397.99z"/>
			</g>
		</g>
		<g>
			<g>
				<g>
					<path class="st21" d="M571.68,200.07h494.94c2.96,0,5.36-2.4,5.36-5.36c0-2.96-2.4-5.36-5.36-5.36H571.68
						c-2.96,0-5.36,2.4-5.36,5.36C566.32,197.67,568.72,200.07,571.68,200.07z"/>
				</g>
			</g>
		</g>
		<g>
			<g>
				<g>
					<path class="st21" d="M721.56,260.97h345.07c2.96,0,5.36-2.4,5.36-5.36c0-2.96-2.4-5.36-5.36-5.36H721.56
						c-2.96,0-5.36,2.4-5.36,5.36C716.19,258.57,718.59,260.97,721.56,260.97z"/>
				</g>
			</g>
		</g>
		<g>
			<g>
				<g>
					<path class="st21" d="M568.51,260.97h110.95c2.96,0,5.36-2.4,5.36-5.36c0-2.96-2.4-5.36-5.36-5.36H568.51
						c-2.96,0-5.36,2.4-5.36,5.36C563.14,258.57,565.54,260.97,568.51,260.97z"/>
				</g>
			</g>
		</g>
		<g>
			<g>
				<g>
					<path class="st21" d="M824.82,321.88h241.8c2.96,0,5.36-2.4,5.36-5.36c0-2.96-2.4-5.36-5.36-5.36h-241.8
						c-2.96,0-5.36,2.4-5.36,5.36C819.46,319.48,821.86,321.88,824.82,321.88z"/>
				</g>
			</g>
		</g>
		<g>
			<g>
				<g>
					<path class="st21" d="M568.51,321.88h217.13c2.96,0,5.36-2.4,5.36-5.36c0-2.96-2.4-5.36-5.36-5.36H568.51
						c-2.96,0-5.36,2.4-5.36,5.36C563.14,319.48,565.54,321.88,568.51,321.88z"/>
				</g>
			</g>
		</g>
		<g>
			<g>
				<path class="st20" d="M680.42,384c-0.53,2.12-117.27,106.45-117.27,106.45l31.44-108.64L680.42,384z"/>
			</g>
		</g>
	</g>
	<g>
		<g>
			<g>
				<path class="st22" d="M1716.02,285.76h-340.59c-4.89,0-8.86-3.97-8.86-8.86V121.51c0-4.89,3.97-8.86,8.86-8.86h340.59
					c4.89,0,8.86,3.97,8.86,8.86V276.9C1724.88,281.79,1720.91,285.76,1716.02,285.76z"/>
			</g>
		</g>
		<g>
			<g>
				<g>
					<path class="st23" d="M1691.23,152.88h-298.78c-2.07,0-3.74-1.68-3.74-3.74c0-2.07,1.68-3.74,3.74-3.74h298.78
						c2.07,0,3.74,1.68,3.74,3.74C1694.98,151.2,1693.3,152.88,1691.23,152.88z"/>
				</g>
			</g>
		</g>
		<g>
			<g>
				<g>
					<path class="st23" d="M1691.23,195.4h-298.78c-2.07,0-3.74-1.68-3.74-3.74c0-2.07,1.68-3.74,3.74-3.74h298.78
						c2.07,0,3.74,1.68,3.74,3.74C1694.98,193.72,1693.3,195.4,1691.23,195.4z"/>
				</g>
			</g>
		</g>
		<g>
			<g>
				<g>
					<path class="st23" d="M1586.59,237.92h-194.13c-2.07,0-3.74-1.68-3.74-3.74c0-2.07,1.68-3.74,3.74-3.74h194.13
						c2.07,0,3.74,1.68,3.74,3.74C1590.33,236.25,1588.65,237.92,1586.59,237.92z"/>
				</g>
			</g>
		</g>
		<g>
			<g>
				<g>
					<path class="st23" d="M1693.45,237.92h-77.47c-2.07,0-3.74-1.68-3.74-3.74c0-2.07,1.68-3.74,3.74-3.74h77.47
						c2.07,0,3.74,1.68,3.74,3.74C1697.19,236.25,1695.52,237.92,1693.45,237.92z"/>
				</g>
			</g>
		</g>
		<g>
			<g>
				<path class="st22" d="M1615.31,275.99c0.37,1.48,81.88,74.32,81.88,74.32l-21.95-75.85L1615.31,275.99z"/>
			</g>
		</g>
	</g>
</g>
</svg>
