<svg id="Group_398" data-name="Group 398" xmlns="http://www.w3.org/2000/svg" width="47" height="47" viewBox="0 0 47 47">
  <path id="Path_1426" data-name="Path 1426" d="M23.5,0A23.5,23.5,0,1,1,0,23.5,23.5,23.5,0,0,1,23.5,0Z" fill="#ec6421"/>
  <g id="open-book" transform="translate(7.306 1.173)">
    <path id="Path_42" data-name="Path 42" d="M70.406,36.448A.406.406,0,0,1,70,36.042V33.516a.406.406,0,0,1,.811,0v2.527A.406.406,0,0,1,70.406,36.448Z" transform="translate(-40.423 -12.765)" fill="#fff"/>
    <path id="Path_43" data-name="Path 43" d="M29.983,37.955H2.406A.406.406,0,0,1,2,37.549v-17.2a.406.406,0,0,1,.406-.406H4.518a.406.406,0,0,1,0,.811H2.811V37.143H29.577V34.8a.406.406,0,0,1,.811,0v2.75A.406.406,0,0,1,29.983,37.955Z" transform="translate(0 -4.936)" fill="#fff"/>
    <path id="Path_44" data-name="Path 44" d="M70.406,47.682A.406.406,0,0,1,70,47.276V44.746a.406.406,0,1,1,.811,0v2.531A.406.406,0,0,1,70.406,47.682Z" transform="translate(-40.423 -19.441)" fill="#fff"/>
    <path id="Path_45" data-name="Path 45" d="M67.308,24.064a.406.406,0,0,1-.406-.406V20.751H65.2a.406.406,0,1,1,0-.811h2.113a.406.406,0,0,1,.406.406v3.313A.406.406,0,0,1,67.308,24.064Z" transform="translate(-37.326 -4.936)" fill="#fff"/>
    <path id="Path_46" data-name="Path 46" d="M30.968,32.882H7.611a.406.406,0,0,1-.406-.406V15.537a.406.406,0,0,1,.406-.406H9.754a.406.406,0,1,1,0,.811H8.016V32.07H30.563V15.942h-1.74a.406.406,0,1,1,0-.811h2.145a.406.406,0,0,1,.406.406V32.476A.406.406,0,0,1,30.968,32.882Z" transform="translate(-3.094 -2.078)" fill="#fff"/>
    <path id="Path_47" data-name="Path 47" d="M36.406,30.808A.406.406,0,0,1,36,30.4V15.408a.406.406,0,0,1,.113-.281c2.4-2.507,5.526-3.615,9.839-3.48a.406.406,0,0,1,.393.406V28.046a.406.406,0,0,1-.811,0v-15.6c-3.8-.046-6.578.95-8.722,3.123V30.4a.406.406,0,0,1-.406.406Z" transform="translate(-20.211 0)" fill="#fff"/>
    <path id="Path_48" data-name="Path 48" d="M22.426,30.808a.406.406,0,0,1-.406-.406V15.572c-2.147-2.173-4.937-3.18-8.726-3.123v15.6a.406.406,0,1,1-.811,0V12.053a.406.406,0,0,1,.393-.406c4.31-.134,7.437.973,9.842,3.48a.406.406,0,0,1,.113.281V30.4A.406.406,0,0,1,22.426,30.808Z" transform="translate(-6.232 0)" fill="#fff"/>
    <path id="Path_49" data-name="Path 49" d="M36.4,54.265a.406.406,0,0,1-.179-.771c3.123-1.527,9.4-2.361,9.661-2.4a.406.406,0,1,1,.105.8c-.064.009-6.408.852-9.409,2.32A.406.406,0,0,1,36.4,54.265Z" transform="translate(-20.208 -23.457)" fill="#fff"/>
    <path id="Path_50" data-name="Path 50" d="M22.431,54.267a.406.406,0,0,1-.178-.041c-3-1.469-9.346-2.312-9.409-2.32a.406.406,0,1,1,.105-.8c.265.035,6.538.869,9.661,2.4a.406.406,0,0,1-.178.771Z" transform="translate(-6.236 -23.458)" fill="#fff"/>
    <path id="Path_51" data-name="Path 51" d="M41.4,24.386a.406.406,0,0,1-.215-.75,11.4,11.4,0,0,1,5.743-1.766.406.406,0,1,1,.024.811,10.6,10.6,0,0,0-5.338,1.644A.406.406,0,0,1,41.4,24.386Z" transform="translate(-23.177 -6.083)" fill="#fff"/>
    <path id="Path_52" data-name="Path 52" d="M41.4,31.313a.406.406,0,0,1-.215-.75A11.4,11.4,0,0,1,46.924,28.8a.395.395,0,0,1,.417.393.406.406,0,0,1-.393.417,10.6,10.6,0,0,0-5.339,1.645A.406.406,0,0,1,41.4,31.313Z" transform="translate(-23.177 -10.202)" fill="#fff"/>
    <path id="Path_53" data-name="Path 53" d="M41.4,38.238a.406.406,0,0,1-.215-.75,11.4,11.4,0,0,1,5.743-1.766.406.406,0,0,1,.024.811,10.591,10.591,0,0,0-5.338,1.644.406.406,0,0,1-.214.061Z" transform="translate(-23.177 -14.318)" fill="#fff"/>
    <path id="Path_54" data-name="Path 54" d="M41.393,45.161a.406.406,0,0,1-.215-.751,11.4,11.4,0,0,1,5.743-1.767.406.406,0,1,1,.024.811A10.6,10.6,0,0,0,41.606,45.1.406.406,0,0,1,41.393,45.161Z" transform="translate(-23.174 -18.433)" fill="#fff"/>
    <path id="Path_55" data-name="Path 55" d="M23.294,24.386a.406.406,0,0,1-.214-.061,10.6,10.6,0,0,0-5.338-1.644.406.406,0,0,1-.393-.417.411.411,0,0,1,.417-.393,11.4,11.4,0,0,1,5.743,1.766.406.406,0,0,1-.215.75Z" transform="translate(-9.124 -6.084)" fill="#fff"/>
    <path id="Path_56" data-name="Path 56" d="M23.294,31.311a.406.406,0,0,1-.214-.061,10.6,10.6,0,0,0-5.339-1.645.406.406,0,0,1-.393-.417.4.4,0,0,1,.417-.393,11.4,11.4,0,0,1,5.743,1.767.406.406,0,0,1-.215.75Z" transform="translate(-9.124 -10.2)" fill="#fff"/>
    <path id="Path_57" data-name="Path 57" d="M23.294,38.237a.406.406,0,0,1-.214-.061,10.591,10.591,0,0,0-5.338-1.644.406.406,0,0,1,.024-.811,11.4,11.4,0,0,1,5.743,1.766.406.406,0,0,1-.215.75Z" transform="translate(-9.123 -14.317)" fill="#fff"/>
    <path id="Path_58" data-name="Path 58" d="M23.294,45.163a.406.406,0,0,1-.214-.061,10.6,10.6,0,0,0-5.338-1.645.406.406,0,0,1-.393-.417.412.412,0,0,1,.417-.394,11.4,11.4,0,0,1,5.743,1.765.406.406,0,0,1-.215.75Z" transform="translate(-9.124 -18.434)" fill="#fff"/>
  </g>
</svg>
