<svg id="Group_398" data-name="Group 398" xmlns="http://www.w3.org/2000/svg" width="47" height="47" viewBox="0 0 47 47">
  <path id="Path_1426" data-name="Path 1426" d="M23.5,0A23.5,23.5,0,1,1,0,23.5,23.5,23.5,0,0,1,23.5,0Z" fill="#ec6421"/>
  <g id="bus_1_" data-name="bus (1)" transform="translate(7.693 8.17)">
    <path id="Path_25" data-name="Path 25" d="M41.254,2.762H38.881a.381.381,0,0,1,0-.762h2.373a.381.381,0,0,1,0,.762Z" transform="translate(-22.122)" fill="#fff"/>
    <path id="Path_26" data-name="Path 26" d="M28.128,26.333H10.2A2.009,2.009,0,0,1,8.19,24.326V4.007A2.009,2.009,0,0,1,10.2,2h3.736a.381.381,0,1,1,0,.762H10.2A1.247,1.247,0,0,0,8.952,4.007V24.326A1.247,1.247,0,0,0,10.2,25.572H28.128a1.247,1.247,0,0,0,1.245-1.245V4.007a1.247,1.247,0,0,0-1.245-1.245H24.392a.381.381,0,0,1,0-.762h3.736a2.009,2.009,0,0,1,2.007,2.007V24.326a2.009,2.009,0,0,1-2.007,2.007Z" transform="translate(-3.356 0)" fill="#fff"/>
    <path id="Path_27" data-name="Path 27" d="M30.024,2.762H27.651a.381.381,0,0,1,0-.762h2.373a.381.381,0,0,1,0,.762Z" transform="translate(-15.169)" fill="#fff"/>
    <path id="Path_28" data-name="Path 28" d="M51.8,66.981H49.187a.788.788,0,0,1-.787-.787v-1.92a.381.381,0,0,1,.381-.381h3.428a.381.381,0,0,1,.381.381v1.92a.788.788,0,0,1-.789.787Zm-2.639-2.326v1.539l2.639.026.021-1.564Z" transform="translate(-28.251 -38.32)" fill="#fff"/>
    <path id="Path_29" data-name="Path 29" d="M18.005,66.981H15.392a.788.788,0,0,1-.787-.787v-1.92a.381.381,0,0,1,.381-.381h3.428a.381.381,0,0,1,.381.381v1.92A.788.788,0,0,1,18.005,66.981Zm-2.639-2.326v1.539l2.639.026.02-1.564Z" transform="translate(-7.327 -38.32)" fill="#fff"/>
    <path id="Path_30" data-name="Path 30" d="M29.759,26.654H8.581a.381.381,0,0,1-.381-.381V14.129a.381.381,0,0,1,.381-.381h21.18a.381.381,0,0,1,.381.381V26.274a.381.381,0,0,1-.383.381Zm-20.8-.762H29.378V14.51H8.962Z" transform="translate(-3.362 -7.274)" fill="#fff"/>
    <path id="Path_31" data-name="Path 31" d="M50.018,54.5a1.9,1.9,0,1,1,1.9-1.9,1.9,1.9,0,0,1-1.9,1.9Zm0-3.04A1.14,1.14,0,1,0,51.157,52.6a1.14,1.14,0,0,0-1.138-1.139Z" transform="translate(-28.075 -30.152)" fill="#fff"/>
    <path id="Path_32" data-name="Path 32" d="M17.8,54.5a1.9,1.9,0,1,1,1.9-1.9,1.9,1.9,0,0,1-1.9,1.9Zm0-3.04A1.14,1.14,0,1,0,18.937,52.6,1.14,1.14,0,0,0,17.8,51.462Z" transform="translate(-8.127 -30.152)" fill="#fff"/>
    <path id="Path_33" data-name="Path 33" d="M34.022,8.426H26.481a.381.381,0,1,1,0-.762h7.541a.381.381,0,0,1,0,.762Z" transform="translate(-14.444 -3.507)" fill="#fff"/>
    <path id="Path_34" data-name="Path 34" d="M65.488,22.327h-1.3a.381.381,0,1,1,0-.762h1.3a.384.384,0,0,0,.384-.384v-3.6a.384.384,0,0,0-.384-.383h-1.3a.381.381,0,1,1,0-.762h1.3a1.146,1.146,0,0,1,1.145,1.145v3.6a1.146,1.146,0,0,1-1.145,1.146Z" transform="translate(-37.789 -8.936)" fill="#fff"/>
    <path id="Path_35" data-name="Path 35" d="M36.381,26.654A.381.381,0,0,1,36,26.274V14.129a.381.381,0,1,1,.762,0V26.274A.381.381,0,0,1,36.381,26.654Z" transform="translate(-20.574 -7.274)" fill="#fff"/>
    <path id="Path_36" data-name="Path 36" d="M34.657,53.11H29.144a.381.381,0,0,1,0-.762h5.513a.381.381,0,0,1,0,.762Z" transform="translate(-16.093 -31.172)" fill="#fff"/>
    <path id="Path_37" data-name="Path 37" d="M34.657,57.83H29.144a.381.381,0,0,1,0-.762h5.513a.381.381,0,0,1,0,.762Z" transform="translate(-16.093 -34.095)" fill="#fff"/>
    <path id="Path_38" data-name="Path 38" d="M5.219,22.327h-1.3A1.146,1.146,0,0,1,2.77,21.181v-3.6a1.146,1.146,0,0,1,1.145-1.145h1.3a.381.381,0,0,1,0,.762h-1.3a.384.384,0,0,0-.384.383v3.6a.384.384,0,0,0,.384.383h1.3a.381.381,0,0,1,0,.762Z" transform="translate(0 -8.936)" fill="#fff"/>
  </g>
</svg>
