<?xml version="1.0" encoding="utf-8"?>
<!-- Generator: Adobe Illustrator 27.0.0, SVG Export Plug-In . SVG Version: 6.00 Build 0)  -->
<svg version="1.1" id="Layer_1" xmlns="http://www.w3.org/2000/svg" xmlns:xlink="http://www.w3.org/1999/xlink" x="0px" y="0px"
	 viewBox="0 0 196.74 273" style="enable-background:new 0 0 196.74 273;" xml:space="preserve">
<style type="text/css">
	.st0{fill:#BB000C;}
	.st1{fill:#E82828;}
	.st2{fill:#5E5DA9;}
	.st3{fill:#534A9E;}
	.st4{fill:#279436;}
	.st5{fill:#006318;}
	.st6{fill:#3BA2DB;}
	.st7{fill:#0A62AE;}
	.st8{fill:#EAA325;}
	.st9{fill:#E57B15;}
	.st10{fill:#7B7B7B;}
	.st11{fill:#434343;}
	.st12{fill:#FFFFFF;}
</style>
<g>
	<g>
		<g>
			<polygon class="st0" points="132.08,273 132.08,196.74 196.74,196.74 			"/>
			<g>
				<g>
					<rect class="st1" width="196.74" height="196.74"/>
				</g>
			</g>
		</g>
	</g>
</g>
<g>
	<rect x="-505.01" y="-140" class="st2" width="46" height="46"/>
	<rect x="-459.01" y="-140" class="st3" width="46" height="46"/>
</g>
<g>
	<rect x="-505.01" y="-85" class="st4" width="46" height="46"/>
	<rect x="-459.01" y="-85" class="st5" width="46" height="46"/>
</g>
<g>
	<rect x="-505.01" y="-19" class="st6" width="46" height="46"/>
	<rect x="-459.01" y="-19" class="st7" width="46" height="46"/>
</g>
<g>
	<rect x="-505.01" y="51" class="st8" width="46" height="46"/>
	<rect x="-459.01" y="51" class="st9" width="46" height="46"/>
</g>
<g>
	<rect x="-505.01" y="121" class="st1" width="46" height="46"/>
	<rect x="-459.01" y="121" class="st0" width="46" height="46"/>
</g>
<g>
	<rect x="-505.01" y="196" class="st10" width="46" height="46"/>
	<rect x="-459.01" y="196" class="st11" width="46" height="46"/>
</g>
<g>
	<path class="st12" d="M98.66,136.95c-14.49,0-28.98-0.05-43.47,0.05c-2.45,0.02-3.23-0.62-3.2-3.16
		c0.12-14.59,0.02-29.19,0.1-43.79c0.01-1.94-0.4-3.01-2.39-3.73c-2.96-1.07-5.14-3.26-6.69-6.04c-2.48-4.46-2.35-6.25,0.82-10.24
		c6.39-8.03,12.81-16.02,19.15-24.08c1.07-1.37,2.17-1.97,3.96-1.97c21.05,0.06,42.1,0.06,63.14,0c1.65,0,2.7,0.48,3.72,1.78
		c6.77,8.67,13.58,17.3,20.48,25.86c1.22,1.52,1.43,2.97,0.95,4.69c-1.24,4.46-4,7.72-8.24,9.45c-1.94,0.79-2.37,1.8-2.36,3.72
		c0.08,14.28,0.04,28.56,0.04,42.84c0,4.6,0,4.6-4.45,4.6C126.37,136.95,112.51,136.95,98.66,136.95z M98.14,109.62
		c0,0.01,0,0.01,0,0.02c12.37,0,24.74-0.06,37.11,0.05c2.38,0.02,3.36-0.48,3.24-3.1c-0.22-4.75-0.2-9.52-0.02-14.27
		c0.13-3.4,0.26-6.55-3.99-7.57c-0.47-0.11-0.93-0.56-1.23-0.97c-1.06-1.44-1.84-1.24-3.19-0.11c-5.72,4.78-12.86,4.79-18.52,0.03
		c-1.36-1.14-1.98-1.05-3.3,0.04c-5.62,4.65-12.73,4.74-18.3,0.18c-1.52-1.24-2.24-1.33-3.8-0.02c-4.32,3.64-9.26,4.22-14.56,2.19
		c-2.11-0.81-3.68-3.47-5.44-3.35c-2,0.14-3.69,2.64-5.99,3.24c-1.5,0.39-1.9,1.24-1.88,2.73c0.08,5.92,0.15,11.84-0.02,17.76
		c-0.07,2.44,0.55,3.23,3.11,3.2C73.62,109.54,85.88,109.62,98.14,109.62z M85.39,47.17c-0.74,0-1.5,0.11-2.21-0.02
		c-3.05-0.53-4.67,0.7-5.96,3.57c-2.98,6.62-6.4,13.05-9.64,19.56c-1.95,3.92-1.52,7.13,1.51,10.29c2.93,3.06,6.52,4.32,10.65,3.15
		c4.44-1.26,7.21-4.27,7.97-8.89c1.14-6.97,2.12-13.96,3.28-20.93C92.1,47.15,92.16,47.17,85.39,47.17z M113.55,47.17
		c-2.25,0-3.74,0.11-5.2-0.03c-2.06-0.19-2.39,0.47-2.04,2.5c1.46,8.41,2.7,16.86,4,25.3c0.97,6.3,7.16,10.45,13.33,8.92
		c6.67-1.65,9.63-7.96,6.6-14.06c-2.82-5.66-5.9-11.21-8.35-17.02C120.07,48.46,117.83,45.78,113.55,47.17z"/>
</g>
</svg>
