<?xml version="1.0" encoding="utf-8"?>
<!-- Generator: Adobe Illustrator 27.0.0, SVG Export Plug-In . SVG Version: 6.00 Build 0)  -->
<svg version="1.1" id="Layer_1" xmlns="http://www.w3.org/2000/svg" xmlns:xlink="http://www.w3.org/1999/xlink" x="0px" y="0px"
	 viewBox="0 0 196.74 273" style="enable-background:new 0 0 196.74 273;" xml:space="preserve">
<style type="text/css">
	.st0{fill:#BB000C;}
	.st1{fill:#E82828;}
	.st2{fill:#FFFFFF;}
</style>
<g>
	<g>
		<g>
			<polygon class="st0" points="132.08,273 132.08,196.74 196.74,196.74 			"/>
			<g>
				<g>
					<rect class="st1" width="196.74" height="196.74"/>
				</g>
				<g>
					<path class="st2" d="M98.32,108.93c-10.05,0-20.1,0.02-30.15-0.03c-1.28-0.01-1.68,0.31-1.67,1.64
						c0.05,13.07,0.01,26.14,0.05,39.2c0,1.24-0.24,1.75-1.61,1.68c-2.49-0.12-5-0.1-7.5-0.01c-1.22,0.05-1.58-0.26-1.57-1.54
						c0.05-13.07,0.01-26.14,0.07-39.2c0.01-1.42-0.33-1.86-1.77-1.78c-2.54,0.13-5.09,0.01-7.64,0.05
						c-0.86,0.01-1.26-0.15-1.26-1.15c0.03-13.4,0.03-26.8,0-40.19c0-1.01,0.43-1.15,1.27-1.14c2.74,0.04,5.47-0.02,8.21,0.03
						c0.95,0.02,1.23-0.3,1.17-1.21c-0.07-1.08,0.01-2.17-0.02-3.25c-0.02-0.61,0.21-0.84,0.82-0.82c1.04,0.03,2.08-0.06,3.11,0.02
						c1.03,0.08,1.44-0.23,1.39-1.33c-0.08-1.55-0.05-3.11,0.03-4.67c0.28-5.47,4.73-9.74,10.26-9.91
						c5.49-0.17,10.21,3.87,10.78,9.34c0.19,1.82,0.14,3.67,0.13,5.51c0,0.8,0.27,1.09,1.07,1.06c1.08-0.05,2.17,0.02,3.25-0.02
						c0.74-0.03,1.01,0.23,0.98,0.97c-0.04,1.08,0.01,2.17-0.01,3.25c-0.02,0.67,0.13,1.05,0.92,1.05c6.46-0.02,12.93-0.02,19.39,0
						c0.79,0,0.95-0.35,0.93-1.03c-0.03-1.08,0.02-2.17-0.02-3.25c-0.03-0.72,0.22-1.03,0.97-1c1.08,0.04,2.17-0.04,3.25,0.03
						c0.87,0.05,1.12-0.27,1.13-1.13c0-1.98-0.17-3.96,0.17-5.93c0.92-5.44,5.71-9.21,11.23-8.82c5.44,0.39,9.65,4.77,9.8,10.23
						c0.04,1.41,0.07,2.83,0,4.24c-0.06,1.07,0.2,1.57,1.38,1.44c1.03-0.11,2.07,0.01,3.11-0.03c0.69-0.03,0.9,0.24,0.88,0.9
						c-0.04,1.08,0.05,2.17-0.03,3.25c-0.06,0.91,0.31,1.11,1.14,1.1c2.78-0.04,5.57,0.01,8.35-0.03c0.83-0.01,1.16,0.22,1.16,1.11
						c-0.02,13.45-0.02,26.89,0,40.34c0,0.81-0.29,1.05-1.08,1.04c-2.59-0.03-5.19,0.06-7.78-0.04c-1.37-0.06-1.82,0.25-1.81,1.75
						c0.07,13.07,0.02,26.14,0.07,39.2c0,1.22-0.25,1.63-1.53,1.58c-2.54-0.11-5.1-0.09-7.64-0.01c-1.18,0.04-1.5-0.33-1.5-1.5
						c0.04-13.02,0.03-26.04,0.02-39.06c0-1.92,0-1.92-1.89-1.92C118.32,108.93,108.32,108.93,98.32,108.93z M76.87,77.13
						c-3.03,0-6.09,0.05-9.14-0.03c-0.97-0.02-1.39,0.35-1.79,1.16c-3.11,6.29-6.26,12.55-9.39,18.83c-0.18,0.36-0.5,0.7-0.37,1.27
						c3.03,0,6.09-0.05,9.14,0.03c0.97,0.02,1.39-0.35,1.79-1.16c3.11-6.29,6.26-12.55,9.39-18.83C76.68,78.04,77,77.71,76.87,77.13
						z M98.37,77.13c-3.26,0-6.27,0.04-9.28-0.02c-0.98-0.02-1.49,0.28-1.92,1.17c-3.1,6.29-6.26,12.55-9.39,18.83
						c-0.18,0.36-0.51,0.7-0.35,1.25c3.18,0,6.38-0.02,9.58,0.02c0.73,0.01,0.95-0.4,1.21-0.92c1.71-3.46,3.45-6.91,5.17-10.36
						C95,83.86,96.62,80.62,98.37,77.13z M98.39,98.36c3.31,0,6.37-0.03,9.43,0.02c0.88,0.02,1.31-0.27,1.7-1.06
						c3.12-6.33,6.31-12.64,9.45-18.96c0.18-0.36,0.52-0.69,0.33-1.23c-3.04,0-6.1,0.03-9.16-0.02c-0.88-0.02-1.31,0.27-1.7,1.06
						c-2.76,5.62-5.58,11.21-8.38,16.81C99.54,96.02,99.03,97.07,98.39,98.36z M140.81,77.13c-3.31,0-6.37,0.03-9.43-0.02
						c-0.88-0.02-1.31,0.28-1.7,1.07c-3.12,6.33-6.31,12.64-9.45,18.96c-0.18,0.35-0.53,0.69-0.32,1.23c3.04,0,6.1-0.03,9.16,0.02
						c0.88,0.02,1.31-0.28,1.7-1.07c2.91-5.91,5.88-11.8,8.83-17.69C139.96,78.87,140.33,78.11,140.81,77.13z"/>
				</g>
			</g>
		</g>
	</g>
</g>
</svg>
