<?xml version="1.0" encoding="utf-8"?>
<!-- Generator: Adobe Illustrator 27.0.0, SVG Export Plug-In . SVG Version: 6.00 Build 0)  -->
<svg version="1.1" id="Layer_1" xmlns="http://www.w3.org/2000/svg" xmlns:xlink="http://www.w3.org/1999/xlink" x="0px" y="0px"
	 viewBox="0 0 187.02 391.85" style="enable-background:new 0 0 187.02 391.85;" xml:space="preserve">
<style type="text/css">
	.st0{fill:#3DB54A;}
	.st1{fill:#FFFFFF;}
</style>
<g>
	<g>
		<path class="st0" d="M119.56,387.35l-0.79-0.31c-6.52-2.57-11.1-6.7-13.68-12.35c-2.58,5.64-7.14,9.77-13.64,12.35l-0.8,0.32
			H79.39L78.55,387c-11.76-4.95-16.13-11.52-16.13-24.24l0-97.71c-1.29,0.37-2.57,0.55-3.85,0.55c-2.33,0-4.64-0.61-6.85-1.82
			c-5.29-2.88-8.1-7.78-8.14-14.17c-0.03-5.1-0.03-10.2-0.03-15.3c0-3.6,0-7.2-0.01-10.8c-1.84,0.64-3.82,1.07-5.98,1.07
			c-1.11,0-2.23-0.12-3.33-0.35c-7.76-1.63-12.97-6.08-15.06-12.88c-4.75-15.42-9.43-31.33-13.92-47.28
			c-1.72-6.12-0.46-12.32,3.55-17.44c2.73-3.49,5.45-6.98,8.17-10.48c7.24-9.31,14.73-18.93,22.27-28.28
			c7.95-9.85,18.81-14.85,32.3-14.85c6.64,0,13.27-0.01,19.91-0.01C98.73,93,106,93,113.27,93c9.44,0,18.87,0.01,28.31,0.04
			c19.41,0.06,33.99,11.09,39,29.49c0.95,3.49,1.41,7.29,1.42,11.63l0,13.47c0,17.69,0,35.98,0.08,53.97
			c0.02,4.76,0.12,9.62,0.22,14.32c0.11,4.98,0.22,10.12,0.23,15.21c0.03,11.35-5.6,19.25-15.43,21.68
			c-1.43,0.35-2.91,0.53-4.39,0.53c-5.86,0-11.31-2.74-14.92-6.99c0,28.12,0,56.1,0,83.67v32.35c0,13.12-4.22,19.56-16.12,24.62
			l-0.84,0.36H119.56z M58.75,195.43c1.24,0,2.47,0.16,3.68,0.5v-36.06c0-5.98,0-11.97-0.01-17.95c-1.11,1.42-2.22,2.84-3.34,4.26
			c-4.35,5.55-8.69,11.09-13.06,16.63c-0.1,0.12-0.16,0.21-0.2,0.28c3.26,10.91,6.49,22.01,9.61,32.76
			C56.55,195.57,57.65,195.43,58.75,195.43z"/>
		<path class="st1" d="M113.19,97.5c9.46,0,18.91,0.01,28.37,0.04c17.3,0.06,30.23,9.85,34.67,26.18c0.92,3.39,1.26,6.91,1.26,10.45
			c0.01,22.49-0.01,44.97,0.08,67.46c0.04,9.84,0.43,19.68,0.45,29.52c0.02,9.41-4.26,15.39-12.01,17.31
			c-1.1,0.27-2.21,0.4-3.32,0.4c-7.08,0-13.77-5.35-14.75-12.56c-0.36-2.64-0.54-5.32-0.55-7.99c-0.11-30.51-0.14-61.02-0.3-91.52
			c-0.01-2.18,1.34-6.06-1.79-6.12c-0.02,0-0.05,0-0.07,0c-3.03,0-1.91,3.83-1.92,6.01c-0.06,75.24-0.05,150.47-0.05,225.71
			c0,11.34-3.13,16.12-13.38,20.47c-3.16,0-6.32,0-9.48,0c-9.63-3.79-13.38-11.07-13.34-21.15c0.13-41.67,0.06-83.34,0.02-125.01
			c0-1.53,0.7-3.85-1.98-3.87c-0.01,0-0.02,0-0.03,0c-2.65,0-1.85,2.3-1.99,3.84c-0.1,1.08-0.02,2.18-0.02,3.28
			c0,40.58-0.07,81.15,0.05,121.73c0.03,10.07-3.72,17.38-13.33,21.19c-3.16,0-6.32,0-9.48,0c-10.14-4.27-13.38-9.12-13.38-20.1
			c0-33.55,0-67.09,0-100.64c0-1.33,0-2.66,0-3.89c-0.2-0.1-0.38-0.15-0.53-0.15c-0.41,0-0.65,0.3-0.93,0.5
			c-2.22,1.57-4.51,2.53-6.89,2.53c-1.53,0-3.09-0.39-4.7-1.27c-4.03-2.2-5.77-5.79-5.79-10.24c-0.05-9.6,0-19.2-0.05-28.81
			c-0.01-1.28,0.39-2.65-0.55-4.06c-3.17,1.67-6.32,3.35-9.92,3.35c-0.78,0-1.58-0.08-2.4-0.25c-5.71-1.2-9.98-4.27-11.69-9.8
			c-4.83-15.66-9.45-31.39-13.89-47.17c-1.33-4.74-0.38-9.44,2.76-13.45c10.1-12.92,20.1-25.94,30.39-38.71
			c7.33-9.09,17.19-13.18,28.8-13.18C85.43,97.52,99.31,97.5,113.19,97.5 M53.33,201.18c0.31,0,0.68-0.09,1.14-0.29
			c1.46-0.64,2.88-0.96,4.28-0.96c2.74,0,5.41,1.23,8.18,3.66c0-13.49,0-26.2,0-38.91c0-10.31,0-20.62-0.02-30.93
			c0-0.93,0.27-2.12-0.9-2.52c-0.14-0.05-0.27-0.07-0.39-0.07c-0.74,0-1.13,0.84-1.56,1.39c-7.19,9.16-14.36,18.33-21.57,27.48
			c-1.05,1.33-1.5,2.59-0.98,4.34c3.47,11.61,6.85,23.25,10.23,34.88C52.06,200.32,52.38,201.18,53.33,201.18 M113.19,88.5
			c-7.26,0-14.52,0.01-21.78,0.01c-6.62,0.01-13.25,0.01-19.87,0.01c-14.71,0-27.09,5.72-35.81,16.53
			c-7.56,9.38-15.07,19.02-22.32,28.35c-2.72,3.49-5.43,6.98-8.16,10.47c-4.91,6.28-6.45,13.9-4.33,21.43
			c4.49,15.98,9.18,31.92,13.95,47.39c2.57,8.33,9.11,14,18.43,15.96c1.4,0.29,2.83,0.44,4.25,0.44c0.51,0,1-0.02,1.49-0.05
			c0,1.76,0,3.52,0,5.28c0,5.02,0,10.22,0.03,15.34c0.04,8.01,3.77,14.43,10.49,18.09c2.68,1.46,5.49,2.25,8.35,2.36l0,19.75
			c0,24.3,0,48.61,0,72.91c0,14.52,5.47,22.74,18.88,28.39l1.68,0.71h1.82h9.48h1.72l1.6-0.63c4.04-1.6,8.44-4.17,11.98-8.28
			c3.56,4.12,7.98,6.69,12.04,8.29l1.59,0.62h1.71h9.48h1.83l1.69-0.72c13.57-5.76,18.86-13.83,18.86-28.76l0-33.05
			c0-24.38,0-49.08,0-73.92c3.19,1.56,6.74,2.45,10.42,2.45c1.85,0,3.69-0.22,5.47-0.66c11.83-2.92,18.88-12.67,18.85-26.06
			c-0.01-5.12-0.12-10.28-0.23-15.28c-0.1-4.69-0.2-9.53-0.22-14.26c-0.07-18.07-0.07-36.46-0.08-54.24l0-13.19
			c0-4.74-0.52-8.93-1.57-12.81c-5.49-20.17-22.1-32.74-43.33-32.81C133.17,88.51,124.14,88.5,113.19,88.5L113.19,88.5z
			 M50.8,164.01c2.38-3.02,4.75-6.05,7.12-9.07c0,1.59,0,3.19,0,4.78l0,4.95l0,23.59C55.59,180.25,53.2,172.09,50.8,164.01
			L50.8,164.01z"/>
	</g>
	<g>
		<path class="st0" d="M104.56,60.2c-11.87,0-21.89-4.2-31.54-13.22c-2.58-2.41-4.84-4.67-6.93-6.92c-2.28-2.46-3.29-5.03-2.99-7.64
			c0.2-1.75,1.12-4.3,4.36-6.5c10.93-7.43,19.38-13.05,27.4-18.21c3.3-2.13,6.78-3.2,10.35-3.2c3.56,0,7.04,1.07,10.35,3.18
			c9.35,5.98,18.7,12.27,27.73,18.36c2.49,1.68,4.02,3.98,4.31,6.49c0.2,1.69-0.07,4.24-2.45,6.81
			c-8.22,8.86-17.39,17.72-31.12,20.26c-1.91,0.35-3.72,0.39-5.17,0.42c-0.69,0.01-1.48,0.03-1.81,0.08l-0.28,0.05l-0.28,0.01
			C105.83,60.19,105.19,60.2,104.56,60.2z M102.47,30.86c0.72,1.73,1.67,3.37,2.82,4.87c1.2-1.32,2.03-3.05,2.78-4.93
			c-0.92-0.4-1.8-0.59-2.69-0.59c-0.9,0-1.82,0.19-2.8,0.58c-0.04,0.02-0.08,0.03-0.11,0.04C102.46,30.85,102.46,30.86,102.47,30.86
			z"/>
		<path class="st1" d="M105.21,9c2.67,0,5.35,0.83,7.92,2.47c9.31,5.95,18.48,12.13,27.64,18.3c2.49,1.68,3.29,4.1,1.07,6.5
			c-7.99,8.62-16.4,16.63-28.64,18.9c-2.67,0.49-5.33,0.23-6.9,0.49c-0.59,0.02-1.17,0.03-1.74,0.03
			c-11.75,0-20.65-4.71-28.47-12.01c-2.31-2.16-4.56-4.38-6.7-6.69c-2.6-2.8-2.48-5.27,0.6-7.36c9.04-6.14,18.12-12.23,27.31-18.15
			C99.87,9.83,102.54,9,105.21,9 M105.23,40.94c0.55,0,1.12-0.19,1.71-0.64c3.41-2.6,4.85-6.51,6.21-10.21
			c0.13-1.56-0.91-2.13-1.81-2.67c-1.93-1.14-3.93-1.72-5.96-1.72c-1.47,0-2.96,0.3-4.47,0.9c-3.67,1.46-4.08,2.42-2.59,5.98
			c0.99,2.36,2.3,4.54,3.9,6.51C103.04,40.12,104.08,40.94,105.23,40.94 M105.21,0L105.21,0c-4.45,0-8.75,1.32-12.79,3.92
			C84.37,9.11,75.89,14.74,64.93,22.2c-4.65,3.16-5.99,7.03-6.3,9.72c-0.31,2.73,0.16,6.89,4.16,11.21
			c2.15,2.32,4.49,4.65,7.16,7.15c10.39,9.71,21.71,14.44,34.61,14.44c0.69,0,1.39-0.01,2.09-0.04l0.56-0.02l0.47-0.08
			c0.24-0.02,0.82-0.03,1.26-0.04c1.53-0.03,3.62-0.07,5.9-0.49c15.09-2.8,25.26-12.63,33.6-21.63c2.77-2.98,4.05-6.67,3.62-10.39
			c-0.44-3.84-2.67-7.28-6.26-9.7l-0.07-0.05c-9.04-6.08-18.38-12.38-27.75-18.37C113.94,1.31,109.64,0,105.21,0L105.21,0z"/>
	</g>
	<g>
		<path class="st0" d="M105.33,94.42c-9.76,0-18.99-4.11-25.33-11.29c-6.32-7.15-9.25-16.78-8.05-26.41
			c0.73-5.89,4.73-6.35,5.94-6.35c1.77,0,3.22,0.79,4.15,1.38c6,3.79,12.49,5.92,19.84,6.51c1.25,0.1,2.5,0.15,3.72,0.15
			c7.54,0,14.5-1.86,21.29-5.69c2.25-1.27,3.99-2.17,5.92-2.17c5.56,0,5.94,5.96,6.12,8.82c0.56,8.82-2.68,17.67-8.89,24.29
			c-6.4,6.83-15.4,10.75-24.69,10.75H105.33z"/>
		<path class="st1" d="M77.89,54.87c0.45,0,1.02,0.23,1.75,0.68c6.69,4.23,13.96,6.55,21.88,7.19c1.37,0.11,2.73,0.17,4.08,0.17
			c8.33,0,16.13-2.11,23.5-6.27c1.79-1.01,2.94-1.59,3.71-1.59c1.17,0,1.42,1.36,1.63,4.61c1.03,16.19-12.49,30.25-29.09,30.26
			c-0.01,0-0.01,0-0.02,0c-17.76,0-31.1-15.1-28.91-32.65C76.61,55.69,77.03,54.87,77.89,54.87 M77.89,45.87
			c-4.21,0-9.46,2.7-10.41,10.29c-1.36,10.91,1.97,21.83,9.14,29.95c7.19,8.14,17.65,12.81,28.7,12.81
			c10.55-0.01,20.74-4.44,27.99-12.18c7.06-7.53,10.74-17.61,10.1-27.66c-0.15-2.34-0.34-4.02-0.85-5.65
			c-1.41-4.49-5.24-7.38-9.76-7.38c-3.02,0-5.47,1.25-8.13,2.75c-6.09,3.44-12.33,5.11-19.08,5.11c-1.1,0-2.23-0.05-3.36-0.14
			c-6.61-0.53-12.43-2.44-17.8-5.83C82.23,46.55,80.09,45.87,77.89,45.87L77.89,45.87z"/>
	</g>
</g>
</svg>
