<?xml version="1.0" encoding="utf-8"?>
<!-- Generator: Adobe Illustrator 27.0.0, SVG Export Plug-In . SVG Version: 6.00 Build 0)  -->
<svg version="1.1" id="Layer_1" xmlns="http://www.w3.org/2000/svg" xmlns:xlink="http://www.w3.org/1999/xlink" x="0px" y="0px"
	 viewBox="0 0 187.02 391.85" style="enable-background:new 0 0 187.02 391.85;" xml:space="preserve">
<style type="text/css">
	.st0{fill:#737474;}
</style>
<g>
	<path class="st0" d="M80.3,382.85c-10.14-4.27-13.38-9.12-13.38-20.1c0-33.55,0-67.09,0-100.64c0-1.33,0-2.66,0-3.89
		c-0.75-0.38-1.08,0.09-1.45,0.35c-3.63,2.58-7.47,3.51-11.6,1.26c-4.03-2.2-5.77-5.79-5.79-10.24c-0.05-9.6,0-19.2-0.05-28.81
		c-0.01-1.28,0.39-2.65-0.55-4.06c-3.86,2.03-7.67,4.08-12.33,3.1c-5.71-1.2-9.98-4.27-11.69-9.8
		c-4.83-15.66-9.45-31.39-13.89-47.17c-1.33-4.74-0.38-9.44,2.76-13.45c10.1-12.92,20.1-25.94,30.39-38.71
		c7.33-9.09,17.19-13.18,28.8-13.18c23.34,0,46.67-0.06,70.01,0.02c17.3,0.06,30.23,9.85,34.67,26.18
		c0.92,3.39,1.26,6.91,1.26,10.45c0.01,22.49-0.01,44.97,0.08,67.46c0.04,9.84,0.43,19.68,0.45,29.52
		c0.02,9.41-4.26,15.39-12.01,17.31c-8.18,2.02-16.93-3.82-18.06-12.16c-0.36-2.64-0.54-5.32-0.55-7.99
		c-0.11-30.51-0.14-61.02-0.3-91.52c-0.01-2.18,1.34-6.06-1.79-6.12c-3.12-0.06-1.99,3.82-1.99,6.01
		c-0.06,75.24-0.05,150.47-0.05,225.71c0,11.34-3.13,16.12-13.38,20.47c-3.16,0-6.32,0-9.48,0c-9.63-3.79-13.38-11.07-13.34-21.15
		c0.13-41.67,0.06-83.34,0.02-125.01c0-1.53,0.7-3.85-1.98-3.87c-2.69-0.02-1.88,2.29-2.03,3.84c-0.1,1.08-0.02,2.18-0.02,3.28
		c0,40.58-0.07,81.15,0.05,121.73c0.03,10.07-3.72,17.38-13.33,21.19C86.62,382.85,83.46,382.85,80.3,382.85z M66.92,203.59
		c0-13.49,0-26.2,0-38.91c0-10.31,0-20.62-0.02-30.93c0-0.93,0.27-2.12-0.9-2.52c-1.01-0.35-1.45,0.68-1.95,1.32
		c-7.19,9.16-14.36,18.33-21.57,27.48c-1.05,1.33-1.5,2.59-0.98,4.34c3.47,11.61,6.85,23.25,10.23,34.88
		c0.42,1.44,0.84,2.48,2.73,1.66C58.81,198.99,62.75,199.93,66.92,203.59z"/>
	<path class="st0" d="M106.3,55.66c-12.62,0.49-22.02-4.32-30.21-11.98c-2.31-2.16-4.56-4.38-6.7-6.69c-2.6-2.8-2.48-5.27,0.6-7.36
		c9.04-6.14,18.12-12.23,27.31-18.15c5.16-3.32,10.69-3.3,15.84-0.01c9.31,5.95,18.48,12.13,27.64,18.3c2.49,1.68,3.29,4.1,1.07,6.5
		c-7.99,8.62-16.4,16.63-28.64,18.9C110.53,55.67,107.87,55.41,106.3,55.66z M113.14,30.1c0.13-1.56-0.91-2.13-1.81-2.67
		c-3.33-1.96-6.82-2.26-10.43-0.82c-3.67,1.46-4.08,2.42-2.59,5.98c0.99,2.36,2.3,4.54,3.9,6.51c1.22,1.5,2.91,2.58,4.72,1.2
		C110.35,37.7,111.79,33.79,113.14,30.1z"/>
	<path class="st0" d="M105.35,89.92c-17.77,0.01-31.12-15.1-28.93-32.65c0.3-2.41,1.11-3.05,3.23-1.72
		c6.69,4.23,13.96,6.55,21.88,7.19c9.87,0.8,19.02-1.27,27.58-6.11c4.54-2.56,4.99-2.34,5.34,3.02
		C135.47,75.84,121.95,89.91,105.35,89.92z"/>
</g>
</svg>
