<?xml version="1.0" encoding="utf-8"?>
<!-- Generator: Adobe Illustrator 26.0.0, SVG Export Plug-In . SVG Version: 6.00 Build 0)  -->
<svg version="1.1" id="Layer_1" xmlns="http://www.w3.org/2000/svg" xmlns:xlink="http://www.w3.org/1999/xlink" x="0px" y="0px"
	 viewBox="0 0 500 500" style="enable-background:new 0 0 500 500;" xml:space="preserve">
<style type="text/css">
	.st0{fill:#F27421;}
	.st1{fill:#FFFFFF;}
	.st2{opacity:0.2;fill:#E85C1E;}
	.st3{opacity:0.4;fill:#E85C1E;}
</style>
<g>
	<path class="st0" d="M138.82,482.5c-68.55,0-124.32-55.77-124.32-124.32V135.82C14.5,67.27,70.27,11.5,138.82,11.5h222.36
		c68.55,0,124.32,55.77,124.32,124.32v222.36c0,68.55-55.77,124.32-124.32,124.32H138.82z"/>
	<path class="st1" d="M361.18,26c29.33,0,56.91,11.42,77.65,32.17C459.58,78.91,471,106.49,471,135.82v222.36
		c0,29.33-11.42,56.91-32.17,77.65C418.09,456.58,390.51,468,361.18,468H138.82c-29.33,0-56.91-11.42-77.65-32.17
		C40.42,415.09,29,387.51,29,358.18V135.82c0-29.33,11.42-56.91,32.17-77.65S109.49,26,138.82,26H361.18 M361.18-3H138.82
		C62.15-3,0,59.15,0,135.82v222.36C0,434.85,62.15,497,138.82,497h222.36C437.85,497,500,434.85,500,358.18V135.82
		C500,59.15,437.85-3,361.18-3L361.18-3z"/>
</g>
<path class="st2" d="M332.18,471H167.82C91.15,471,29,408.85,29,332.18V167.82C29,91.15,91.15,29,167.82,29h164.36
	C408.85,29,471,91.15,471,167.82v164.36C471,408.85,408.85,471,332.18,471z"/>
<path class="st2" d="M312.11,413H187.89C132.17,413,87,367.83,87,312.11V187.89C87,132.17,132.17,87,187.89,87h124.21
	C367.83,87,413,132.17,413,187.89v124.21C413,367.83,367.83,413,312.11,413z"/>
<path class="st3" d="M289.54,357h-79.08C173.2,357,143,326.8,143,289.54v-79.08c0-37.26,30.2-67.46,67.46-67.46h79.08
	c37.26,0,67.46,30.2,67.46,67.46v79.08C357,326.8,326.8,357,289.54,357z"/>
<g>
	<polygon class="st1" points="367.36,273.54 423.15,275.19 422.09,284.52 	"/>
	<polyline class="st1" points="395.39,313.42 361.87,280.42 399.99,306.6 	"/>
	<polyline class="st1" points="408.47,247.83 365.03,265.87 403.98,240.94 	"/>
	<polyline class="st1" points="365.78,327.56 355.69,286.31 372.43,323.45 	"/>
	<path class="st1" d="M76.85,262.68v-86.1h31.34c9.61,0,16.99,1.76,22.15,5.28c5.16,3.52,7.74,8.49,7.74,14.89
		c0,4.64-1.57,8.71-4.71,12.19c-3.14,3.48-7.15,5.9-12.04,7.26v0.24c6.12,0.76,11.02,3.02,14.68,6.78
		c3.66,3.76,5.49,8.35,5.49,13.75c0,7.89-2.82,14.14-8.47,18.76c-5.64,4.62-13.35,6.93-23.11,6.93H76.85z M96.25,190.87v20.41h8.53
		c4,0,7.15-0.97,9.46-2.91c2.3-1.94,3.45-4.61,3.45-8.02c0-6.32-4.72-9.49-14.17-9.49H96.25z M96.25,225.69v22.69h10.51
		c4.48,0,7.99-1.04,10.54-3.12c2.54-2.08,3.81-4.92,3.81-8.53c0-3.44-1.25-6.14-3.75-8.11c-2.5-1.96-5.99-2.94-10.48-2.94H96.25z"/>
	<path class="st1" d="M172.8,262.68h-18.97v-91.02h18.97V262.68z"/>
	<path class="st1" d="M198.37,291.61c-3.63,0-6.61-1.09-8.92-3.28c-2.32-2.19-3.47-4.87-3.47-8.05c0-3.27,1.16-5.94,3.47-8.02
		c2.32-2.07,5.29-3.11,8.92-3.11c3.68,0,6.66,1.04,8.96,3.11c2.29,2.07,3.44,4.75,3.44,8.02c0,3.32-1.15,6.04-3.44,8.16
		C205.03,290.55,202.05,291.61,198.37,291.61z"/>
	<path class="st1" d="M220.5,317.59c-3.41,0-6.19-1.02-8.36-3.06c-2.17-2.04-3.26-4.54-3.26-7.5c0-3.05,1.09-5.53,3.26-7.47
		c2.17-1.93,4.96-2.9,8.36-2.9c3.45,0,6.25,0.97,8.4,2.9c2.15,1.93,3.22,4.42,3.22,7.47c0,3.09-1.08,5.62-3.22,7.59
		C226.75,316.61,223.95,317.59,220.5,317.59z"/>
	<path class="st1" d="M260.47,328.34c-3.07,0-5.57-0.87-7.53-2.6c-1.95-1.74-2.93-3.87-2.93-6.39c0-2.59,0.98-4.71,2.93-6.36
		c1.95-1.64,4.46-2.47,7.53-2.47c3.1,0,5.62,0.82,7.56,2.47c1.93,1.64,2.9,3.76,2.9,6.36c0,2.63-0.97,4.79-2.9,6.47
		C266.09,327.5,263.57,328.34,260.47,328.34z"/>
	<path class="st1" d="M302.27,322.84c-2.67,0-4.85-0.81-6.55-2.43c-1.7-1.62-2.55-3.61-2.55-5.97c0-2.43,0.85-4.41,2.55-5.94
		c1.7-1.54,3.88-2.31,6.55-2.31c2.7,0,4.89,0.77,6.58,2.31c1.68,1.54,2.53,3.52,2.53,5.94c0,2.46-0.84,4.48-2.53,6.05
		C307.16,322.05,304.97,322.84,302.27,322.84z"/>
	<path class="st1" d="M331.17,299.58c-2.04,0-3.72-0.64-5.02-1.92c-1.3-1.28-1.95-2.86-1.95-4.72c0-1.92,0.65-3.48,1.95-4.7
		c1.3-1.22,2.98-1.82,5.02-1.82c2.07,0,3.75,0.61,5.04,1.82c1.29,1.22,1.93,2.78,1.93,4.7c0,1.95-0.65,3.54-1.93,4.78
		C334.92,298.96,333.24,299.58,331.17,299.58z"/>
	<path class="st1" d="M350.23,277.54c-3.2,0-5.82-0.95-7.87-2.85c-2.04-1.9-3.06-4.23-3.06-6.99c0-2.84,1.02-5.16,3.06-6.96
		c2.04-1.8,4.66-2.7,7.87-2.7c3.24,0,5.87,0.9,7.9,2.7c2.02,1.8,3.03,4.12,3.03,6.96c0,2.88-1.01,5.24-3.03,7.08
		C356.1,276.62,353.47,277.54,350.23,277.54z"/>
	<polygon class="st1" points="204.64,262.68 190.7,262.68 186.44,201.2 210.45,201.2 	"/>
	<path class="st1" d="M283.09,262.68h-18.91v-34.16c0-9.53-3.4-14.29-10.21-14.29c-3.28,0-5.98,1.26-8.11,3.78
		c-2.12,2.52-3.18,5.72-3.18,9.61v35.06h-18.97V201.2h18.97v9.73h0.24c4.52-7.48,11.11-11.23,19.75-11.23
		c13.61,0,20.41,8.45,20.41,25.34V262.68z"/>
	<path class="st1" d="M359.7,262.68h-22.75l-19.63-30.5h-0.24v30.5H298.1v-91.02h18.97v57.94h0.24l18.31-28.4h22.51l-22.03,28.88
		L359.7,262.68z"/>
	<polygon class="st1" points="329.96,251.83 340.19,271.78 359.45,262.61 357.54,259.71 	"/>
</g>
</svg>
