<?xml version="1.0" encoding="utf-8"?>
<!-- Generator: Adobe Illustrator 26.0.0, SVG Export Plug-In . SVG Version: 6.00 Build 0)  -->
<svg version="1.1" id="Layer_1" xmlns="http://www.w3.org/2000/svg" xmlns:xlink="http://www.w3.org/1999/xlink" x="0px" y="0px"
	 viewBox="0 0 324.27 146.72" style="enable-background:new 0 0 324.27 146.72;" xml:space="preserve">
<style type="text/css">
	.st0{fill:url(#SVGID_1_);}
	.st1{fill:url(#SVGID_00000181053974372967446830000013848226115701770920_);}
	.st2{fill:url(#SVGID_00000096017982194892709230000001956545582825402269_);}
	.st3{fill:#F27521;}
</style>
<g>
	<linearGradient id="SVGID_1_" gradientUnits="userSpaceOnUse" x1="-8.5837" y1="76.6463" x2="54.5348" y2="13.5279">
		<stop  offset="5.722046e-07" style="stop-color:#E85C1E"/>
		<stop  offset="0.501" style="stop-color:#E85C1E"/>
		<stop  offset="1" style="stop-color:#F27421"/>
	</linearGradient>
	<path class="st0" d="M0,85.23V4.61h29.35c9,0,15.91,1.65,20.75,4.95c4.83,3.3,7.25,7.95,7.25,13.94c0,4.35-1.47,8.15-4.41,11.41
		s-6.7,5.53-11.27,6.8v0.22c5.73,0.71,10.32,2.83,13.75,6.35c3.43,3.52,5.14,7.81,5.14,12.87c0,7.38-2.64,13.24-7.93,17.57
		c-5.28,4.33-12.5,6.49-21.64,6.49H0V85.23z M18.16,17.99v19.12h7.98c3.75,0,6.7-0.91,8.85-2.73c2.15-1.82,3.23-4.32,3.23-7.51
		c0-5.92-4.42-8.88-13.27-8.88C24.95,17.99,18.16,17.99,18.16,17.99z M18.16,50.6v21.25H28c4.2,0,7.49-0.97,9.87-2.92
		s3.57-4.61,3.57-7.98c0-3.22-1.17-5.75-3.51-7.59s-5.61-2.75-9.81-2.75h-9.96V50.6z"/>
	
		<linearGradient id="SVGID_00000100374289883692619720000001443316202678858644_" gradientUnits="userSpaceOnUse" x1="55.205" y1="68.365" x2="106.705" y2="16.865">
		<stop  offset="5.722046e-07" style="stop-color:#E85C1E"/>
		<stop  offset="0.501" style="stop-color:#E85C1E"/>
		<stop  offset="1" style="stop-color:#F27421"/>
	</linearGradient>
	<path style="fill:url(#SVGID_00000100374289883692619720000001443316202678858644_);" d="M89.84,85.23H72.07V0h17.77V85.23z"/>
	
		<linearGradient id="SVGID_00000015322622939340364760000012838527587806761650_" gradientUnits="userSpaceOnUse" x1="137.02" y1="84.74" x2="189.0144" y2="32.7456">
		<stop  offset="5.722046e-07" style="stop-color:#E85C1E"/>
		<stop  offset="0.501" style="stop-color:#E85C1E"/>
		<stop  offset="1" style="stop-color:#F27421"/>
	</linearGradient>
	<path style="fill:url(#SVGID_00000015322622939340364760000012838527587806761650_);" d="M193.12,85.23h-17.71V53.24
		c0-8.92-3.19-13.38-9.56-13.38c-3.07,0-5.6,1.18-7.59,3.54c-1.99,2.36-2.98,5.36-2.98,9v32.83h-17.77V27.66h17.77v9.11h0.22
		c4.24-7.01,10.4-10.51,18.5-10.51c12.74,0,19.12,7.91,19.12,23.73L193.12,85.23L193.12,85.23z"/>
	<g>
		<polygon class="st3" points="272.03,95.4 324.27,96.95 323.28,105.68 		"/>
		<polyline class="st3" points="298.28,132.74 266.9,101.84 302.59,126.36 		"/>
		<polyline class="st3" points="310.53,71.33 269.85,88.22 306.32,64.88 		"/>
		<polyline class="st3" points="270.56,145.99 261.11,107.36 276.78,142.14 		"/>
		<path class="st3" d="M113.79,112.32c-3.4,0-6.19-1.02-8.35-3.07c-2.17-2.05-3.25-4.56-3.25-7.54c0-3.06,1.08-5.57,3.25-7.51
			s4.95-2.91,8.35-2.91c3.44,0,6.24,0.97,8.39,2.91s3.22,4.45,3.22,7.51c0,3.11-1.07,5.65-3.22,7.64
			C120.03,111.33,117.23,112.32,113.79,112.32z"/>
		<path class="st3" d="M134.52,136.65c-3.19,0-5.8-0.95-7.83-2.86s-3.05-4.25-3.05-7.02c0-2.85,1.02-5.18,3.05-6.99
			c2.03-1.81,4.64-2.71,7.83-2.71c3.23,0,5.85,0.9,7.86,2.71s3.02,4.14,3.02,6.99c0,2.89-1.01,5.26-3.02,7.11
			C140.36,135.73,137.74,136.65,134.52,136.65z"/>
		<path class="st3" d="M171.94,146.72c-2.87,0-5.22-0.81-7.05-2.44s-2.74-3.62-2.74-5.98c0-2.43,0.91-4.42,2.74-5.96
			c1.83-1.54,4.18-2.31,7.05-2.31c2.91,0,5.26,0.77,7.08,2.31c1.81,1.54,2.72,3.53,2.72,5.96c0,2.46-0.91,4.48-2.72,6.06
			C177.2,145.93,174.84,146.72,171.94,146.72z"/>
		<path class="st3" d="M211.08,141.57c-2.5,0-4.54-0.76-6.14-2.28c-1.59-1.52-2.39-3.38-2.39-5.59c0-2.27,0.8-4.13,2.39-5.57
			s3.64-2.16,6.14-2.16c2.53,0,4.58,0.72,6.16,2.16s2.37,3.3,2.37,5.57c0,2.3-0.79,4.19-2.37,5.66
			C215.67,140.83,213.61,141.57,211.08,141.57z"/>
		<path class="st3" d="M238.14,119.78c-1.91,0-3.48-0.6-4.7-1.8c-1.22-1.2-1.83-2.68-1.83-4.42c0-1.8,0.61-3.26,1.83-4.4
			s2.79-1.71,4.7-1.71c1.94,0,3.51,0.57,4.72,1.71s1.81,2.61,1.81,4.4c0,1.82-0.6,3.31-1.81,4.48
			C241.65,119.2,240.08,119.78,238.14,119.78z"/>
		<polygon class="st3" points="119.66,85.23 106.61,85.23 102.62,27.66 125.1,27.66 		"/>
		<path class="st3" d="M263.95,83.97L242.76,54.7l20.64-27.04h-21.08l-17.15,26.59h-0.22V0h-17.77v85.23h17.77V56.67h0.22
			l11.85,18.41l-0.01,0l9.58,18.67l0.01,0c0.48,1,1.15,1.91,2.03,2.73c1.91,1.78,4.36,2.67,7.36,2.67c3.03,0,5.5-0.86,7.39-2.59
			c1.89-1.72,2.84-3.93,2.84-6.63C266.22,87.55,265.46,85.57,263.95,83.97z"/>
	</g>
</g>
</svg>
