<?xml version="1.0" encoding="utf-8"?>
<!-- Generator: Adobe Illustrator 26.0.0, SVG Export Plug-In . SVG Version: 6.00 Build 0)  -->
<svg version="1.1" id="Layer_1" xmlns="http://www.w3.org/2000/svg" xmlns:xlink="http://www.w3.org/1999/xlink" x="0px" y="0px"
	 viewBox="0 0 324.27 146.72" style="enable-background:new 0 0 324.27 146.72;" xml:space="preserve">
<style type="text/css">
	.st0{fill:#FFFFFF;}
</style>
<g>
	<polygon class="st0" points="272.03,95.4 324.27,96.95 323.28,105.68 	"/>
	<polyline class="st0" points="298.28,132.74 266.9,101.84 302.59,126.36 	"/>
	<polyline class="st0" points="310.53,71.33 269.85,88.22 306.32,64.88 	"/>
	<polyline class="st0" points="270.56,145.99 261.11,107.36 276.78,142.14 	"/>
	<path class="st0" d="M0,85.23V4.61h29.35c9,0,15.91,1.65,20.75,4.95c4.83,3.3,7.25,7.95,7.25,13.94c0,4.35-1.47,8.15-4.41,11.41
		c-2.94,3.26-6.7,5.53-11.27,6.8v0.22c5.73,0.71,10.32,2.83,13.75,6.35c3.43,3.52,5.14,7.81,5.14,12.87
		c0,7.38-2.64,13.24-7.93,17.57c-5.28,4.33-12.5,6.49-21.64,6.49H0z M18.16,17.99v19.12h7.98c3.75,0,6.7-0.91,8.85-2.73
		c2.15-1.82,3.23-4.32,3.23-7.51c0-5.92-4.42-8.88-13.27-8.88H18.16z M18.16,50.6v21.25H28c4.2,0,7.49-0.97,9.87-2.92
		c2.38-1.95,3.57-4.61,3.57-7.98c0-3.22-1.17-5.75-3.51-7.59c-2.34-1.84-5.61-2.75-9.81-2.75H18.16z"/>
	<path class="st0" d="M89.84,85.23H72.07V0h17.77V85.23z"/>
	<path class="st0" d="M113.79,112.32c-3.4,0-6.19-1.02-8.35-3.07c-2.17-2.05-3.25-4.56-3.25-7.54c0-3.06,1.08-5.57,3.25-7.51
		c2.17-1.94,4.95-2.91,8.35-2.91c3.44,0,6.24,0.97,8.39,2.91c2.15,1.94,3.22,4.45,3.22,7.51c0,3.11-1.07,5.65-3.22,7.64
		C120.03,111.33,117.23,112.32,113.79,112.32z"/>
	<path class="st0" d="M134.52,136.65c-3.19,0-5.8-0.95-7.83-2.86c-2.03-1.91-3.05-4.25-3.05-7.02c0-2.85,1.02-5.18,3.05-6.99
		c2.03-1.81,4.64-2.71,7.83-2.71c3.23,0,5.85,0.9,7.86,2.71c2.01,1.81,3.02,4.14,3.02,6.99c0,2.89-1.01,5.26-3.02,7.11
		C140.36,135.73,137.74,136.65,134.52,136.65z"/>
	<path class="st0" d="M171.94,146.72c-2.87,0-5.22-0.81-7.05-2.44c-1.83-1.63-2.74-3.62-2.74-5.98c0-2.43,0.91-4.42,2.74-5.96
		c1.83-1.54,4.18-2.31,7.05-2.31c2.91,0,5.26,0.77,7.08,2.31c1.81,1.54,2.72,3.53,2.72,5.96c0,2.46-0.91,4.48-2.72,6.06
		C177.2,145.93,174.84,146.72,171.94,146.72z"/>
	<path class="st0" d="M211.08,141.57c-2.5,0-4.54-0.76-6.14-2.28c-1.59-1.52-2.39-3.38-2.39-5.59c0-2.27,0.8-4.13,2.39-5.57
		c1.59-1.44,3.64-2.16,6.14-2.16c2.53,0,4.58,0.72,6.16,2.16c1.58,1.44,2.37,3.3,2.37,5.57c0,2.3-0.79,4.19-2.37,5.66
		C215.67,140.83,213.61,141.57,211.08,141.57z"/>
	<path class="st0" d="M238.14,119.78c-1.91,0-3.48-0.6-4.7-1.8c-1.22-1.2-1.83-2.68-1.83-4.42c0-1.8,0.61-3.26,1.83-4.4
		s2.79-1.71,4.7-1.71c1.94,0,3.51,0.57,4.72,1.71c1.21,1.14,1.81,2.61,1.81,4.4c0,1.82-0.6,3.31-1.81,4.48
		C241.65,119.2,240.08,119.78,238.14,119.78z"/>
	<path class="st0" d="M255.99,99.15c-3,0-5.45-0.89-7.36-2.67c-1.91-1.78-2.87-3.96-2.87-6.55c0-2.66,0.96-4.83,2.87-6.52
		c1.91-1.69,4.37-2.53,7.36-2.53c3.04,0,5.5,0.84,7.39,2.53c1.89,1.69,2.84,3.86,2.84,6.52c0,2.7-0.95,4.91-2.84,6.63
		C261.49,98.29,259.02,99.15,255.99,99.15z"/>
	<polygon class="st0" points="119.66,85.23 106.61,85.23 102.62,27.66 125.1,27.66 	"/>
	<path class="st0" d="M193.12,85.23h-17.71V53.24c0-8.92-3.19-13.38-9.56-13.38c-3.07,0-5.6,1.18-7.59,3.54
		c-1.99,2.36-2.98,5.36-2.98,9v32.83h-17.77V27.66h17.77v9.11h0.22c4.24-7.01,10.4-10.51,18.5-10.51c12.74,0,19.12,7.91,19.12,23.73
		V85.23z"/>
	<path class="st0" d="M264.86,85.23h-21.31l-18.38-28.56h-0.22v28.56h-17.77V0h17.77v54.25h0.22l17.15-26.59h21.08L242.76,54.7
		L264.86,85.23z"/>
	<polygon class="st0" points="237.01,75.08 246.59,93.75 264.63,85.17 262.84,82.45 	"/>
</g>
</svg>
