<?xml version="1.0" encoding="utf-8"?>
<!-- Generator: Adobe Illustrator 26.3.1, SVG Export Plug-In . SVG Version: 6.00 Build 0)  -->
<svg version="1.1" id="Layer_1" xmlns="http://www.w3.org/2000/svg" xmlns:xlink="http://www.w3.org/1999/xlink" x="0px" y="0px"
	 viewBox="0 0 500 500" style="enable-background:new 0 0 500 500;" xml:space="preserve">
<style type="text/css">
	.st0{fill:#F27421;}
	.st1{opacity:0.2;fill:#E85C1E;enable-background:new    ;}
	.st2{opacity:0.4;fill:#E85C1E;enable-background:new    ;}
	.st3{fill:#FFFFFF;}
</style>
<g>
	<path class="st0" d="M138.8,482.5c-68.6,0-124.3-55.8-124.3-124.3V135.8c0-68.6,55.8-124.3,124.3-124.3h222.4
		c68.5,0,124.3,55.8,124.3,124.3v222.4c0,68.5-55.8,124.3-124.3,124.3H138.8z"/>
	<path class="st0" d="M361.2,27.4c29.3,0,56.9,11.4,77.6,32.2c20.8,20.7,32.2,48.3,32.2,77.7v222.4c0,29.3-11.4,56.9-32.2,77.6
		c-20.7,20.8-48.3,32.2-77.7,32.2H138.8c-29.3,0-56.9-11.4-77.7-32.2C40.4,416.5,29,388.9,29,359.6V137.2
		c0-29.3,11.4-56.9,32.2-77.7s48.3-32.2,77.7-32.2H361.2 M361.2-1.6H138.8C62.1-1.6,0,60.5,0,137.2v222.4
		c0,76.7,62.2,138.8,138.8,138.8h222.4c76.7,0,138.8-62.1,138.8-138.8V137.2C500,60.5,437.8-1.6,361.2-1.6L361.2-1.6z"/>
</g>
<path class="st1" d="M332.2,471H167.8C91.2,471,29,408.9,29,332.2V167.8C29,91.2,91.2,29,167.8,29h164.4
	C408.9,29,471,91.2,471,167.8v164.4C471,408.9,408.9,471,332.2,471z"/>
<path class="st1" d="M312.1,413H187.9C132.2,413,87,367.8,87,312.1V187.9C87,132.2,132.2,87,187.9,87h124.2
	C367.8,87,413,132.2,413,187.9v124.2C413,367.8,367.8,413,312.1,413z"/>
<path class="st2" d="M289.5,357h-79.1c-37.3,0-67.5-30.2-67.5-67.5v-79.1c0-37.3,30.2-67.5,67.5-67.5h79.1
	c37.3,0,67.5,30.2,67.5,67.5v79.1C357,326.8,326.8,357,289.5,357z"/>
<g>
	<polygon class="st3" points="394.1,278.9 462.6,280.9 461.3,292.4 	"/>
	<polyline class="st3" points="428.5,327.9 387.3,287.3 434.1,319.5 	"/>
	<polyline class="st3" points="444.5,247.3 391.2,269.5 439,238.9 	"/>
	<polyline class="st3" points="392.1,345.2 379.7,294.6 400.3,340.2 	"/>
	<path class="st3" d="M37.4,265.6V159.9h38.5c11.8,0,20.9,2.2,27.2,6.5c6.3,4.3,9.5,10.4,9.5,18.3c0,5.7-1.9,10.7-5.8,15
		c-3.9,4.3-8.8,7.2-14.8,8.9v0.3c7.5,0.9,13.5,3.7,18,8.3c4.5,4.6,6.7,10.3,6.7,16.9c0,9.7-3.5,17.4-10.4,23
		c-6.9,5.7-16.4,8.5-28.4,8.5L37.4,265.6L37.4,265.6z M61.3,177.4v25.1h10.5c4.9,0,8.8-1.2,11.6-3.6c2.8-2.4,4.2-5.7,4.2-9.8
		c0-7.8-5.8-11.6-17.4-11.6L61.3,177.4L61.3,177.4z M61.3,220.2V248h12.9c5.5,0,9.8-1.3,12.9-3.8c3.1-2.6,4.7-6,4.7-10.5
		c0-4.2-1.5-7.5-4.6-10c-3.1-2.4-7.4-3.6-12.9-3.6L61.3,220.2L61.3,220.2z"/>
	<path class="st3" d="M155.2,265.6h-23.3V153.8h23.3V265.6z"/>
	<path class="st3" d="M186.6,301.1c-4.5,0-8.1-1.3-11-4c-2.8-2.7-4.3-6-4.3-9.9c0-4,1.4-7.3,4.3-9.8c2.8-2.5,6.5-3.8,11-3.8
		c4.5,0,8.2,1.3,11,3.8c2.8,2.5,4.2,5.8,4.2,9.8c0,4.1-1.4,7.4-4.2,10C194.8,299.8,191.1,301.1,186.6,301.1z"/>
	<path class="st3" d="M213.8,333c-4.2,0-7.6-1.3-10.3-3.8c-2.7-2.5-4-5.6-4-9.2c0-3.7,1.3-6.8,4-9.2c2.7-2.4,6.1-3.6,10.3-3.6
		c4.2,0,7.7,1.2,10.3,3.6c2.6,2.4,4,5.4,4,9.2c0,3.8-1.3,6.9-4,9.3C221.5,331.8,218,333,213.8,333z"/>
	<path class="st3" d="M262.9,346.2c-3.8,0-6.8-1.1-9.2-3.2c-2.4-2.1-3.6-4.8-3.6-7.8c0-3.2,1.2-5.8,3.6-7.8c2.4-2,5.5-3,9.2-3
		c3.8,0,6.9,1,9.3,3c2.4,2,3.6,4.6,3.6,7.8c0,3.2-1.2,5.9-3.6,7.9C269.8,345.1,266.7,346.2,262.9,346.2z"/>
	<path class="st3" d="M314.2,339.4c-3.3,0-6-1-8-3s-3.1-4.4-3.1-7.3c0-3,1-5.4,3.1-7.3c2.1-1.9,4.8-2.8,8-2.8c3.3,0,6,0.9,8.1,2.8
		c2.1,1.9,3.1,4.3,3.1,7.3c0,3-1,5.5-3.1,7.4C320.2,338.4,317.5,339.4,314.2,339.4z"/>
	<path class="st3" d="M349.6,310.9c-2.5,0-4.6-0.8-6.2-2.4s-2.4-3.5-2.4-5.8c0-2.4,0.8-4.3,2.4-5.8c1.6-1.5,3.7-2.2,6.2-2.2
		c2.5,0,4.6,0.7,6.2,2.2c1.6,1.5,2.4,3.4,2.4,5.8c0,2.4-0.8,4.3-2.4,5.9C354.2,310.1,352.2,310.9,349.6,310.9z"/>
	<path class="st3" d="M373,283.8c-3.9,0-7.1-1.2-9.7-3.5c-2.5-2.3-3.8-5.2-3.8-8.6c0-3.5,1.3-6.3,3.8-8.5s5.7-3.3,9.7-3.3
		c4,0,7.2,1.1,9.7,3.3c2.5,2.2,3.7,5.1,3.7,8.5c0,3.5-1.2,6.4-3.7,8.7C380.2,282.7,377,283.8,373,283.8z"/>
	<polygon class="st3" points="194.3,265.6 177.2,265.6 172,190.1 201.4,190.1 	"/>
	<path class="st3" d="M290.6,265.6h-23.2v-41.9c0-11.7-4.2-17.5-12.5-17.5c-4,0-7.3,1.5-10,4.6c-2.6,3.1-3.9,7-3.9,11.8v43h-23.3
		v-75.5H241V202h0.3c5.5-9.2,13.6-13.8,24.2-13.8c16.7,0,25.1,10.4,25.1,31.1L290.6,265.6L290.6,265.6z"/>
	<path class="st3" d="M384.7,265.6h-27.9l-24.1-37.4h-0.3v37.4H309V153.8h23.3V225h0.3l22.5-34.9h27.6l-27,35.5L384.7,265.6z"/>
	<polygon class="st3" points="348.2,252.2 360.7,276.7 384.4,265.5 382,261.9 	"/>
</g>
</svg>
