<?xml version="1.0" encoding="utf-8"?>
<!-- Generator: Adobe Illustrator 26.0.0, SVG Export Plug-In . SVG Version: 6.00 Build 0)  -->
<svg version="1.1" id="Layer_1" xmlns="http://www.w3.org/2000/svg" xmlns:xlink="http://www.w3.org/1999/xlink" x="0px" y="0px"
	 viewBox="0 0 394.62 360.54" style="enable-background:new 0 0 394.62 360.54;" xml:space="preserve">
<style type="text/css">
	.st0{fill:#FEFEFE;}
	.st1{fill:#D9D9D9;}
	.st2{fill:#777777;}
	.st3{fill:#C6C6C6;}
	.st4{fill:#A1A1A1;}
	.st5{fill:#EFEFEF;}
	.st6{fill:#FDFDFD;}
	.st7{fill:#DADADA;}
	.st8{fill:#DBDBDB;}
	.st9{fill:#F8F8F8;}
	.st10{fill:#DCDCDC;}
</style>
<g>
	<path class="st0" d="M277.82,146.51c-0.06-18.99-0.24-37.97-0.15-56.96c0.06-13.28-8.44-20.53-20.03-20.43
		c-45.65,0.36-91.3,0.14-136.94,0.16c-12.32,0.01-17.91,4.6-20.48,16.63c-6.93-0.87-13.6,7.39-13.58,15.8
		c0.2,73.41,0.11,146.82,0.12,220.24c0,9.96,6.57,16.57,16.49,16.58c22.14,0.02,44.28,0.01,66.43,0.01c0.01,4,0.01,7.99,0.04,11.99
		c0.05,7.21,2.76,10.01,9.91,10.01c43.13,0.02,86.26,0.02,129.39,0c6.9,0,9.7-2.79,9.7-9.69c0.02-64.94,0.02-129.88,0-194.81
		c0-6.56-2.87-9.41-9.42-9.45C298.8,146.52,288.31,146.53,277.82,146.51z M66.74,282.13c0-2.32,0.08-4.31-0.02-6.29
		c-0.22-4.18-1.84-5.07-5.32-2.81c-2.9,1.9-5.7,3.97-8.47,6.06c-2.41,1.82-2.57,3.71,0.15,5.47c1.11,0.72,2.12,1.6,3.27,2.25
		c2.9,1.61,5.19,6.04,8.79,4.2C68.53,289.27,66.02,284.9,66.74,282.13z M311.31,56.35c-0.29-2.45,0.83-5.22-2.38-6.11
		c-1.35-0.38-7.99,4.72-8.13,6.03c-0.14,1.31,5.76,6.85,7.54,6.59C312.69,62.22,310.23,58.35,311.31,56.35z M394.57,140.34
		c-0.32-1.37-1.32-1.95-2.17-1.12c-2.26,2.21-4.21,2.04-6.33-0.1c-0.45-0.46-1.25-0.4-1.76,0.21c-0.66,0.79-0.41,1.62,0.23,2.19
		c1.94,1.7,2.51,3.29,0.17,5.15c-0.82,0.65-1.18,1.72-0.15,2.53c0.75,0.59,1.66,0.28,2.19-0.41c1.75-2.27,3.36-2.07,5.08,0.04
		c0.53,0.65,1.45,0.99,2.2,0.36c1.03-0.86,0.55-1.92-0.24-2.53c-2.35-1.85-1.8-3.44,0.16-5.11
		C394.3,141.26,394.4,140.69,394.57,140.34z M13.61,188.06c0.02-0.76-0.37-1.44-1.06-1.38c-3.3,0.29-4.3-1.47-4.34-4.4
		c-0.01-0.44-0.8-1.19-1.28-1.23c-1.28-0.12-1.71,0.99-1.69,1.97c0.05,2.45-0.81,3.75-3.45,3.53c-0.83-0.07-1.73,0.24-1.79,1.27
		c-0.06,1.01,0.76,1.54,1.59,1.5c2.43-0.11,3.7,0.83,3.74,3.37c0.01,0.79,0.41,1.67,1.42,1.75c1.34,0.1,1.73-0.95,1.69-1.94
		c-0.09-2.41,1.07-3.23,3.31-3.14C12.62,189.4,13.34,188.98,13.61,188.06z M158.09,8.2c-1.23-2-2.86-3.8-5.06-4.9
		c-0.84-0.42-1.83,0.47-1.58,1.25c0.78,2.42,2.71,3.96,4.94,5C157.18,9.93,157.93,9.37,158.09,8.2z M166.27,9.64
		c2.09-0.85,3.6-2.55,4.79-4.49c0.57-0.93-0.34-1.69-1.17-1.54c-2.45,0.44-3.8,2.37-4.91,4.35C164.48,8.84,165.16,9.45,166.27,9.64z
		 M166.67,16.79c-1.39-0.28-2.13,0.4-1.82,1.22c0.82,2.2,2.44,3.82,4.68,4.62c0.86,0.31,1.89-0.43,1.54-1.25
		C170.17,19.22,168.33,17.83,166.67,16.79z M162.77,22.92c-0.4-1.4,0.88-3.87-1.41-4.11c-2.18-0.22-1.54,2.14-1.5,3.45
		c0.05,1.46-0.89,3.86,1.57,3.95C163.2,26.28,162.56,24.2,162.77,22.92z M170.64,14.63c1.34-0.31,3.67,0.61,3.73-1.35
		c0.07-2.53-2.45-1.51-3.88-1.57c-1.32-0.05-3.59-0.68-3.52,1.48C167.04,15.26,169.28,14.36,170.64,14.63z M151.84,11.62
		c-1.39,0.26-3.74-0.49-3.66,1.47c0.09,2.32,2.56,1.41,4.04,1.43c1.3,0.02,3.58,0.66,3.34-1.61
		C155.35,10.89,153.14,11.95,151.84,11.62z M162.89,3.51c-0.62-1.03,0.73-3.45-1.37-3.5c-2.48-0.07-1.55,2.44-1.61,3.9
		c-0.06,1.35-0.6,3.6,1.53,3.51C163.55,7.32,162.47,5.05,162.89,3.51z M157.65,18.09c-0.01-0.99-0.53-1.61-1.19-1.34
		c-2.04,0.86-3.45,2.53-4.53,4.4c-0.32,0.55,0.03,1.54,0.87,1.33C155.21,21.86,156.4,19.81,157.65,18.09z"/>
	<path class="st1" d="M169.68,338.53c-22.14,0-44.28,0.01-66.43-0.01c-9.93-0.01-16.49-6.61-16.49-16.58
		c-0.01-73.41,0.08-146.83-0.12-220.24c-0.02-8.41,6.65-16.66,13.57-15.8c0.01,72.3,0.02,144.6,0.07,216.89
		c0,2.99,0.06,6.02,0.52,8.96c1.2,7.56,7.9,13.42,15.55,13.81c2.33,0.12,4.66,0.07,7,0.07c45.81,0.05,91.63,0.09,137.44,0.13
		c-0.68,2.41-1.52,4.74-3.1,6.73c-5.58,6.92-13.4,6.14-21,6.07c-2.31,0.01-4.61,0.01-6.92,0.02c-11.69-0.01-23.38-0.02-35.07-0.02
		c-7.33-0.02-14.67-0.04-22-0.06C171.69,338.52,170.69,338.53,169.68,338.53z"/>
	<path class="st2" d="M260.79,325.78c-45.81-0.04-91.63-0.09-137.44-0.13c-2.33,0-4.67,0.05-7-0.07
		c-7.65-0.39-14.35-6.25-15.55-13.81c-0.47-2.94-0.52-5.97-0.52-8.96c-0.04-72.3-0.05-144.6-0.07-216.89
		c2.57-12.03,8.16-16.62,20.48-16.63c45.65-0.02,91.3,0.21,136.94-0.16c11.59-0.09,20.09,7.15,20.03,20.43
		c-0.09,18.99,0.08,37.97,0.15,56.96c-0.01,1.04-0.02,2.08-0.04,3.12c-0.07,11.92-0.61,23.85,0.29,35.76
		c-0.54,13.8-0.7,27.59,0.09,41.38c-1.08,5.11-0.2,10.29-0.57,15.41c-0.21,2.89,0.91,4.88,2.82,7.02
		c5.19,5.83,11.86,10.01,16.7,16.32c4.7,6.12,5.38,9.86,0.36,15.71c-9.21,5.18-13.57-3.07-19.7-8c0,3.43,0,5.89,0,8.34
		c0.02,3.99,0.03,7.99,0.05,11.98c-0.01,2.66-0.01,5.31-0.02,7.97c0.01,2.68,0.01,5.35,0.02,8.03c-0.85,2.63-1.7,5.27-2.55,7.9
		c-1.98,2.92-4.75,5-7.59,7C265.39,324.89,263.09,325.33,260.79,325.78z M227.23,238.5c-7.56,3.26-15.46,5.37-23.54,6.83
		c-3.79,0.18-7.57,0.37-11.36,0.55c-3.27-2.09-7.07-1.6-10.64-2.19c-3.32-1.24-6.64-2.49-9.96-3.73c-1.34-0.54-2.67-1.09-4.01-1.63
		c-6.29-3.79-12.46-7.75-17.72-12.96c-2.26-2.24-3.37-5.59-6.63-6.87c-1.61-5.3-5.02-9.67-7.58-14.48
		c-1.42-6.57-3.79-12.89-4.18-19.74c-0.59-10.38,1.11-20.34,4.18-30.15c2.35-4.14,4.7-8.28,7.05-12.42
		c2.38-2.98,4.76-5.95,7.14-8.93c4.16-3.34,8.32-6.68,12.49-10.02c4.77-2.32,9.54-4.65,14.31-6.97c11.89-2.96,23.84-4.18,35.92-1.09
		c0.28,2.95-1.33,2.59-3.43,2.23c-12.61-2.11-24.9-1.31-36.59,4.4c-4.41,1.28-8.2,3.69-11.84,6.39c-4.7,3.28-8.76,7.22-12.26,11.75
		c-11.17,12.83-14.41,28.01-13.55,44.55c0.71,13.64,5.44,25.52,14.5,35.7c3.86,4.75,8.17,8.98,13.64,11.88
		c5.72,4.63,12.36,7.14,19.47,8.62c10.42,2.7,20.8,3.16,31.11-0.57c6.78-1.15,12.89-3.81,18.32-8.04
		c5.43-3.03,9.87-7.18,13.69-12.02c3.94-4.11,6.64-9.02,9.2-14.05c0.71-1.39,0.82-4.58,3.17-3.37c1.89,0.97,0.02,3.35-0.75,4.84
		c-2.22,4.25-4.69,8.36-7.06,12.53c-2.04,2.56-7.63,4.51-1.47,8.49c7.2-2.12,12.39,0.81,16.88,6.28c2.44,2.97,5.48,5.44,8.95,8.82
		c0-2.66,0-4.13,0-5.6c0-49.31,0-98.63,0-147.94c0-12.1-5.17-17.27-17.31-17.27c-45.32-0.01-90.64,0-135.96,0
		c-13.25,0-17.97,4.74-17.97,18.08c-0.01,56.81,0,113.62,0,170.43c0,15.66-0.1,31.32,0.05,46.98c0.08,9.11,5.63,14.89,14.56,14.91
		c47.32,0.1,94.64,0.11,141.96,0c8.92-0.02,14.58-5.97,14.65-14.9c0.1-11.66,0.02-23.32,0.03-34.99c0-1.67,0.03-3.24-1.36-4.59
		c-7.88-7.65-15.69-15.37-23.53-23.06c-1.5-2.17-3.68-3.91-4.26-6.68c0.16-2.12-0.13-4.27,0.94-6.29c1.08-2.04-0.73-2.93-1.83-4.06
		c-1.28-1.31-2.32-0.6-3.36,0.39C237.1,232.56,231.94,235.22,227.23,238.5z M298.08,273.59c-0.01-2.14-1-3.8-2.47-5.27
		c-11.89-11.88-23.73-23.8-35.67-35.63c-3.17-3.14-7.2-3.27-9.77-0.69c-2.58,2.59-2.35,6.47,0.8,9.73
		c4.51,4.66,9.15,9.2,13.74,13.79c7.29,7.29,14.62,14.56,21.88,21.89c2.38,2.4,5.09,3.19,8.15,1.86
		C297.11,278.25,298.04,276.11,298.08,273.59z"/>
	<path class="st3" d="M277.78,149.63c0.01-1.04,0.02-2.08,0.04-3.12c10.49,0.02,20.98,0,31.47,0.07c6.56,0.04,9.42,2.89,9.42,9.45
		c0.02,64.94,0.02,129.88,0,194.81c0,6.89-2.8,9.68-9.7,9.69c-43.13,0.02-86.26,0.02-129.39,0c-7.15,0-9.86-2.79-9.91-10.01
		c-0.03-4-0.02-7.99-0.04-11.99c1,0,2.01-0.01,3.01-0.01c0,3.99-0.05,7.99,0.01,11.98c0.07,5.11,1.84,7.02,6.83,7.03
		c43.12,0.03,86.23,0.04,129.35,0.01c5.01,0,6.86-1.89,6.86-6.99c0.03-64.59,0.03-129.17,0.01-193.76c0-5.63-1.54-7.22-7.01-7.23
		C298.42,149.53,288.1,149.6,277.78,149.63z"/>
	<path class="st4" d="M66.74,282.13c-0.72,2.77,1.79,7.14-1.59,8.87c-3.6,1.84-5.89-2.58-8.79-4.2c-1.15-0.64-2.16-1.53-3.27-2.25
		c-2.73-1.76-2.56-3.65-0.15-5.47c2.77-2.09,5.57-4.16,8.47-6.06c3.47-2.27,5.1-1.38,5.32,2.81
		C66.83,277.81,66.74,279.8,66.74,282.13z M63.51,288.09c0-4.33,0-8.2,0-12.77c-3.24,2.34-7.62,3.43-8.06,6.6
		c-0.29,2.07,4.22,3.63,6.57,5.43C62.28,287.55,62.61,287.65,63.51,288.09z"/>
	<path class="st4" d="M311.31,56.35c-1.08,1.99,1.38,5.87-2.98,6.51c-1.78,0.26-7.68-5.28-7.54-6.59c0.15-1.31,6.79-6.41,8.13-6.03
		C312.14,51.14,311.02,53.9,311.31,56.35z"/>
	<path class="st4" d="M394.57,140.34c-0.17,0.36-0.27,0.92-0.61,1.21c-1.97,1.67-2.52,3.26-0.16,5.11c0.78,0.62,1.26,1.68,0.24,2.53
		c-0.75,0.62-1.66,0.29-2.2-0.36c-1.72-2.1-3.33-2.31-5.08-0.04c-0.53,0.69-1.44,1-2.19,0.41c-1.03-0.81-0.67-1.88,0.15-2.53
		c2.34-1.86,1.77-3.45-0.17-5.15c-0.64-0.56-0.89-1.39-0.23-2.19c0.51-0.61,1.31-0.67,1.76-0.21c2.12,2.14,4.07,2.31,6.33,0.1
		C393.25,138.39,394.25,138.97,394.57,140.34z"/>
	<path class="st4" d="M13.61,188.06c-0.27,0.93-1,1.35-1.86,1.31c-2.24-0.09-3.4,0.74-3.31,3.14c0.04,0.98-0.35,2.04-1.69,1.94
		c-1.01-0.07-1.41-0.95-1.42-1.75c-0.04-2.54-1.31-3.48-3.74-3.37c-0.83,0.04-1.65-0.5-1.59-1.5c0.06-1.03,0.96-1.34,1.79-1.27
		c2.64,0.22,3.51-1.08,3.45-3.53c-0.02-0.98,0.41-2.09,1.69-1.97c0.48,0.04,1.27,0.8,1.28,1.23c0.03,2.93,1.04,4.69,4.34,4.4
		C13.24,186.62,13.63,187.3,13.61,188.06z"/>
	<path class="st4" d="M158.09,8.2c-0.15,1.17-0.91,1.73-1.7,1.35c-2.23-1.04-4.16-2.58-4.94-5c-0.25-0.78,0.74-1.67,1.58-1.25
		C155.23,4.4,156.86,6.2,158.09,8.2z"/>
	<path class="st4" d="M166.27,9.64c-1.1-0.19-1.78-0.81-1.29-1.68c1.12-1.99,2.46-3.91,4.91-4.35c0.83-0.15,1.74,0.61,1.17,1.54
		C169.87,7.09,168.36,8.79,166.27,9.64z"/>
	<path class="st4" d="M166.67,16.79c1.66,1.05,3.5,2.43,4.4,4.58c0.34,0.83-0.69,1.56-1.54,1.25c-2.23-0.8-3.86-2.42-4.68-4.62
		C164.54,17.19,165.27,16.51,166.67,16.79z"/>
	<path class="st4" d="M162.77,22.92c-0.21,1.28,0.43,3.37-1.33,3.3c-2.46-0.09-1.53-2.49-1.57-3.95c-0.04-1.32-0.68-3.68,1.5-3.45
		C163.65,19.05,162.37,21.52,162.77,22.92z"/>
	<path class="st4" d="M170.64,14.63c-1.35-0.28-3.6,0.63-3.67-1.44c-0.07-2.16,2.2-1.53,3.52-1.48c1.43,0.06,3.95-0.96,3.88,1.57
		C174.31,15.24,171.98,14.33,170.64,14.63z"/>
	<path class="st4" d="M151.84,11.62c1.3,0.33,3.51-0.73,3.72,1.3c0.24,2.28-2.04,1.63-3.34,1.61c-1.48-0.02-3.95,0.89-4.04-1.43
		C148.1,11.12,150.45,11.88,151.84,11.62z"/>
	<path class="st4" d="M162.89,3.51c-0.41,1.55,0.67,3.81-1.45,3.9c-2.14,0.09-1.59-2.16-1.53-3.51c0.06-1.46-0.87-3.97,1.61-3.9
		C163.62,0.06,162.26,2.48,162.89,3.51z"/>
	<path class="st4" d="M157.65,18.09c-1.25,1.73-2.44,3.78-4.85,4.39c-0.83,0.21-1.18-0.78-0.87-1.33c1.09-1.87,2.49-3.53,4.53-4.4
		C157.12,16.47,157.64,17.09,157.65,18.09z"/>
	<path class="st0" d="M277.78,149.63c10.32-0.03,20.64-0.1,30.96-0.07c5.47,0.02,7.01,1.6,7.01,7.23
		c0.02,64.59,0.01,129.17-0.01,193.76c0,5.1-1.85,6.99-6.86,6.99c-43.12,0.03-86.23,0.02-129.35-0.01c-4.98,0-6.76-1.91-6.83-7.03
		c-0.05-3.99-0.01-7.99-0.01-11.98c7.33,0.02,14.67,0.04,22,0.06c0.35,3.01,2.55,2.95,4.78,2.95c8.24-0.02,16.49,0.02,24.73-0.02
		c2.31-0.01,4.75,0.06,5.55-2.9c2.31-0.01,4.61-0.01,6.92-0.02c0.37,3.04,2.61,2.95,4.85,2.94c15.8-0.01,31.61-0.02,47.41,0.01
		c2.95,0.01,5.66-0.6,5.61-4.08c-0.05-3.48-2.82-3.97-5.74-3.95c-8.65,0.05-17.3,0.05-25.95-0.01c-1.75-0.01-3.7,0.66-5.17-0.99
		c1.59-1.99,2.43-4.32,3.1-6.73c2.3-0.44,4.59-0.89,6.89-1.33c7.22,2.46,14.67,0.46,21.98,1.05c2.63,0.21,4.76-0.94,4.9-3.73
		c0.15-3.11-2.02-4.23-4.9-4.24c-4.8-0.01-9.6-0.05-14.39-0.08c0.85-2.63,1.7-5.27,2.55-7.9c3.66,0,7.32-0.06,10.98,0
		c2.91,0.05,5.72-0.44,5.74-3.93c0.03-3.55-3.06-3.93-5.76-4.04c-3.65-0.15-7.32-0.05-10.98-0.06c0.01-2.66,0.01-5.31,0.02-7.97
		c3.59-0.01,7.19-0.14,10.77,0.02c4.35,0.2,6.49-1.58,6.1-6.05c1.62-1.79,2.78-3.79,2.78-6.29c5.02-5.85,4.33-9.59-0.36-15.71
		c-4.84-6.31-11.51-10.49-16.7-16.32c-1.91-2.14-3.03-4.13-2.82-7.02c0.37-5.13-0.51-10.3,0.57-15.41c4.2-3.62,5.37-8.8,6.05-13.77
		c1.35-9.83,0.98-19.55-6.14-27.62C277.17,173.47,277.71,161.55,277.78,149.63z"/>
	<path class="st5" d="M257.69,332.51c1.47,1.64,3.42,0.97,5.17,0.99c8.65,0.07,17.3,0.06,25.95,0.01c2.92-0.02,5.68,0.47,5.74,3.95
		c0.05,3.48-2.65,4.08-5.61,4.08c-15.8-0.04-31.61-0.02-47.41-0.01c-2.24,0-4.48,0.1-4.85-2.94
		C244.29,338.65,252.11,339.43,257.69,332.51z"/>
	<path class="st5" d="M229.76,338.6c-0.81,2.96-3.24,2.89-5.55,2.9c-8.24,0.04-16.49,0-24.73,0.02c-2.23,0-4.43,0.06-4.78-2.95
		C206.39,338.59,218.08,338.59,229.76,338.6z"/>
	<path class="st6" d="M160.84,127.71c3.64-2.7,7.43-5.12,11.84-6.39c0.83,1.44,2.24,1.22,3.54,1.22c14.3,0.01,28.59,0.01,42.89,0
		c1.3,0,2.71,0.27,3.62-1.07c2.61,0.5,4.76,2,7.06,3.18c2.11,1.08,3.15,0.56,2.54-1.97c4.82-0.05,9.65,0.05,14.46-0.23
		c2.33-0.13,4.85-0.94,4.8-3.99c-0.05-2.94-1.98-4.41-4.8-4.76c-0.66-0.08-1.33-0.04-1.99-0.04c-9.31,0-18.63-0.02-27.94,0.01
		c-1.45,0-3.04-0.4-4.16,1.03c-12.08-3.09-24.02-1.87-35.92,1.08c-0.51-0.38-1.02-1.07-1.53-1.08c-14.43-0.08-28.86-0.1-43.29-0.1
		c-1.95,0-3.04,1.04-3.2,3.05c-0.18,2.29,0.77,3.95,2.91,4.62c1.22,0.38,2.62,0.26,3.94,0.27c8.96,0.08,17.91,0.14,26.87,0.21
		c-4.16,3.34-8.32,6.68-12.49,10.02c-3.33-0.06-6.66-0.18-9.98-0.15c-7.19,0.06-11.99,3.99-12.08,11.15
		c-0.27,23.47-0.27,46.95-0.01,70.43c0.09,7.78,4.41,11.35,12.1,11.35c3.33,0,6.65-0.12,9.98-0.18c5.26,5.21,11.42,9.17,17.71,12.96
		c-10.97,0.08-21.93,0.18-32.9,0.21c-3.07,0.01-6.07,0.36-5.94,4.22c0.12,3.49,2.98,3.83,5.85,3.81c9.97-0.05,19.94-0.12,29.91,0.02
		c4.7,0.07,7.34-1.64,7.08-6.64c3.32,1.24,6.64,2.49,9.96,3.73c2.6,5.34,6.92,2.29,10.64,2.19c3.79-0.18,7.57-0.37,11.36-0.55
		c0.65,1.28,1.85,1.21,3,1.21c13.22,0.01,26.45,0.01,39.67,0c1.32,0,2.7,0.1,3.44-1.37c7.84,7.69,15.65,15.41,23.53,23.06
		c1.39,1.35,1.36,2.92,1.36,4.59c-0.01,11.66,0.07,23.32-0.03,34.99c-0.07,8.93-5.73,14.88-14.65,14.9
		c-47.32,0.1-94.64,0.1-141.96,0c-8.93-0.02-14.48-5.81-14.56-14.91c-0.15-15.66-0.05-31.32-0.05-46.98c0-56.81,0-113.62,0-170.43
		c0-13.34,4.73-18.08,17.97-18.08c45.32,0,90.64,0,135.96,0c12.13,0,17.3,5.17,17.31,17.27c0.01,49.31,0,98.63,0,147.94
		c0,1.47,0,2.94,0,5.6c-3.47-3.38-6.51-5.86-8.95-8.82c-4.49-5.46-9.68-8.39-16.88-6.28c1.07-1.42,2.34-2.74,3.15-4.29
		c0.95-1.83,1.55-3.88-1.68-4.2c2.37-4.17,4.84-8.29,7.06-12.53c0.78-1.49,2.65-3.86,0.75-4.84c-2.35-1.21-2.46,1.98-3.17,3.37
		c-2.57,5.03-5.26,9.94-9.2,14.05c-32.08,0.05-64.16,0.09-96.24,0.14c-9.06-10.18-13.8-22.06-14.5-35.7
		c-0.86-16.54,2.38-31.72,13.55-44.55c32.71,0.04,65.41,0.09,98.12,0.13c10.82,13.13,14.85,28.32,13.88,45.1
		c-0.12,2.11-2.26,5.77,0.54,6.05c2.85,0.28,2.07-3.94,2.26-6.12c1.44-16.04-3.07-30.57-11.75-43.95c1.88-5.51,0.75-6.88-5.91-7.09
		c-1.95-1.75-3.88-3.53-5.86-5.25c-1.17-1.02-2.42-2.06-3.44,0.19c-23.96,0.03-47.92,0.05-71.87,0.06
		C163.27,128.58,161.85,128.94,160.84,127.71z M189.21,264.58c18.31,0,36.63,0,54.94,0c1.33,0,2.68,0.07,3.99-0.11
		c1.8-0.25,3.15-1.34,3.37-3.17c0.21-1.8-0.82-3.12-2.41-4.01c-1.39-0.78-2.88-0.71-4.38-0.71c-36.63,0-73.26,0.01-109.88-0.02
		c-3.09,0-5.88,0.39-6.05,4.23c-0.21,4.53,3.26,3.76,5.99,3.77C152.91,264.6,171.06,264.58,189.21,264.58z M190.2,103.6
		c12.31,0,24.62,0,36.93,0c6.49,0,12.98-0.08,19.46,0.03c2.88,0.05,4.62-1.33,4.74-3.95c0.12-2.54-1.95-3.66-4.28-4
		c-0.98-0.14-1.99-0.07-2.99-0.07c-36.27,0-72.54,0-108.81-0.01c-2.95,0-6.22-0.04-6.37,3.79c-0.16,4.24,3.27,4.23,6.41,4.23
		C153.6,103.59,171.9,103.6,190.2,103.6z M189.73,300.53c17.99,0,35.97,0.01,53.96-0.02c1.64,0,3.34-0.09,4.91-0.5
		c1.73-0.46,2.89-1.85,2.77-3.7c-0.1-1.58-1.15-2.84-2.72-3.24c-1.42-0.36-2.94-0.51-4.41-0.51c-36.31-0.03-72.62-0.01-108.92-0.03
		c-3.14,0-6.58-0.01-6.42,4.23c0.14,3.85,3.43,3.79,6.38,3.78C153.42,300.52,171.58,300.53,189.73,300.53z M163.72,274.52
		c-9.98,0-19.96,0-29.94,0c-2.4,0-4.92-0.12-5.01,3.29c-0.08,3.4,1.89,4.71,5.06,4.71c19.96,0,39.93,0,59.89,0
		c2.9,0,4.86-1.13,5.01-4.26c0.18-3.69-2.4-3.75-5.06-3.74C183.68,274.53,173.7,274.52,163.72,274.52z M229.53,274.52
		c-5.66,0-11.31,0-16.97,0c-2.06,0-3.58,0.62-3.82,2.98c-0.21,2.09,0.58,3.47,2.54,4.34c1.44,0.64,2.89,0.68,4.39,0.68
		c8.98,0,17.97,0.02,26.95-0.02c1.31-0.01,2.67-0.1,3.92-0.46c2.12-0.61,3.38-1.96,3.16-4.4c-0.24-2.69-2.01-3.13-4.2-3.12
		C240.18,274.53,234.85,274.52,229.53,274.52z M147.26,200.58c5.06,0,7.51-2.31,7.47-7.07c-0.03-4.38-3.24-7.76-7.42-7.81
		c-4.32-0.06-7.61,3.42-7.57,8.01C139.78,198.71,141.82,200.58,147.26,200.58z M221.73,193.57c0-4.45-3.42-8.07-7.54-7.99
		c-3.91,0.08-7.4,3.73-7.46,7.79c-0.06,4.22,3.39,7.25,8.18,7.2C219.69,200.52,221.73,198.43,221.73,193.57z M200.59,192.73
		c-0.28-1.51-1.37-2.08-2.26-2.78c-9.73-7.7-25.33-7.62-34.85,0.18c-0.98,0.8-2.75,1.59-1.75,3.07c1.08,1.59,2.34,0.11,3.34-0.65
		c6.35-4.8,13.46-6.33,21.22-4.93c4.17,0.75,7.82,2.74,11.18,5.27C198.6,193.74,199.72,194.24,200.59,192.73z M194.67,170.32
		c3.02-0.33,5.47-1.54,7.35-3.83c0.66-0.81,1.18-1.76,0.18-2.58c-0.78-0.64-1.57-0.08-2.14,0.53c-3.49,3.69-7.02,3.97-10.68,0.24
		c-0.67-0.69-1.47-1.63-2.44-0.57c-0.84,0.92-0.18,1.84,0.49,2.61C189.36,168.94,191.8,170.16,194.67,170.32z M165.14,170.43
		c3.11-0.41,5.55-1.31,7.42-3.38c0.76-0.84,1.89-1.82,0.82-2.95c-1.19-1.25-2.04,0.11-2.82,0.85c-2.55,2.43-5.21,3.23-8.49,1.22
		c-1.31-0.8-2.65-4-4.09-1.77c-1.38,2.12,1.64,3.52,3.36,4.61C162.55,169.77,164.08,170.05,165.14,170.43z"/>
	<path class="st7" d="M149.53,219.72c32.08-0.05,64.16-0.09,96.24-0.14c-3.83,4.85-8.27,9-13.7,12.02c-22.97,0-45.94-0.01-68.9-0.01
		C157.69,228.7,153.39,224.47,149.53,219.72z"/>
	<path class="st8" d="M246.69,139.6c-32.71-0.04-65.41-0.09-98.12-0.13c3.5-4.53,7.56-8.48,12.26-11.75
		c1.02,1.23,2.43,0.87,3.72,0.87c23.96-0.01,47.92-0.04,71.87-0.06C239.44,132.59,244,135.23,246.69,139.6z"/>
	<path class="st9" d="M298.09,273.59c-0.05,2.52-0.98,4.66-3.34,5.69c-3.07,1.34-5.78,0.55-8.15-1.86
		c-7.26-7.33-14.58-14.6-21.88-21.89c-4.59-4.59-9.23-9.13-13.74-13.79c-3.15-3.26-3.38-7.14-0.8-9.73
		c2.57-2.59,6.59-2.46,9.77,0.69c11.94,11.83,23.79,23.75,35.67,35.63C297.08,269.79,298.08,271.45,298.09,273.59z"/>
	<path class="st1" d="M149.99,225.36c-3.33,0.06-6.65,0.18-9.98,0.18c-7.68,0.01-12.01-3.57-12.1-11.35
		c-0.26-23.47-0.26-46.95,0.01-70.43c0.08-7.16,4.89-11.09,12.08-11.15c3.33-0.03,6.66,0.1,9.98,0.15
		c-2.38,2.98-4.76,5.95-7.14,8.93c-5.31-2.27-6.99-1.32-7.07,4.04c-0.04,2.79,0.01,5.58,0.01,8.37c-3.07,9.82-4.78,19.77-4.18,30.15
		c0.39,6.85,2.76,13.17,4.18,19.74c-0.01,2.31-0.02,4.62-0.02,6.93c0.01,7.07,0.49,7.55,7.6,7.55
		C146.62,219.77,147.73,223.12,149.99,225.36z"/>
	<path class="st7" d="M222.73,121.46c-0.91,1.35-2.32,1.07-3.62,1.07c-14.3,0.01-28.59,0.01-42.89,0c-1.3,0-2.72,0.22-3.54-1.22
		c11.69-5.7,23.98-6.51,36.59-4.4c2.1,0.35,3.71,0.72,3.43-2.23c1.12-1.43,2.71-1.02,4.16-1.03c9.31-0.03,18.63-0.01,27.94-0.01
		c0.67,0,1.34-0.04,1.99,0.04c2.82,0.34,4.75,1.82,4.8,4.76c0.05,3.05-2.47,3.86-4.8,3.99c-4.81,0.28-9.64,0.18-14.46,0.23
		c-2.59-1.35-5.1-2.9-7.8-3.96c-1.74-0.69-4.18-3.21-5.45-0.76C217.82,120.39,221.79,119.89,222.73,121.46z"/>
	<path class="st6" d="M163.17,231.6c22.97,0,45.93,0.01,68.9,0.01c-5.42,4.23-11.54,6.9-18.32,8.04c-0.49-0.78-1.23-1.07-2.1-1.07
		c-8.78-0.01-17.56-0.01-26.33-0.02c-1.26,0-2.3,0.27-2.68,1.66C175.53,238.74,168.88,236.22,163.17,231.6z"/>
	<path class="st7" d="M171.72,239.95c0.25,5-2.38,6.71-7.08,6.64c-9.97-0.14-19.94-0.07-29.91-0.02c-2.87,0.01-5.74-0.32-5.85-3.81
		c-0.13-3.86,2.87-4.21,5.94-4.22c10.96-0.03,21.93-0.14,32.9-0.21C169.05,238.86,170.38,239.41,171.72,239.95z"/>
	<path class="st8" d="M162.47,122.75c-8.96-0.07-17.91-0.13-26.87-0.21c-1.32-0.01-2.72,0.11-3.94-0.27
		c-2.14-0.67-3.1-2.32-2.91-4.62c0.16-2,1.25-3.05,3.2-3.05c14.43,0,28.86,0.02,43.29,0.1c0.51,0,1.02,0.7,1.53,1.08
		C172.01,118.1,167.24,120.43,162.47,122.75z"/>
	<path class="st1" d="M249.8,245.17c-0.74,1.47-2.12,1.37-3.44,1.37c-13.22,0-26.45,0.01-39.67,0c-1.15,0-2.36,0.07-3-1.21
		c8.09-1.45,15.98-3.57,23.54-6.83c6.1,0,12.21,0,18.31,0C246.12,241.26,248.3,243,249.8,245.17z"/>
	<path class="st3" d="M278.07,185.39c7.12,8.07,7.5,17.79,6.14,27.62c-0.68,4.97-1.85,10.15-6.05,13.77
		C277.38,212.98,277.54,199.18,278.07,185.39z"/>
	<path class="st5" d="M275.27,317.45c4.8,0.03,9.6,0.06,14.39,0.08c2.88,0.01,5.05,1.13,4.9,4.24c-0.13,2.79-2.26,3.94-4.9,3.73
		c-7.32-0.59-14.76,1.41-21.98-1.05C270.52,322.45,273.29,320.37,275.27,317.45z"/>
	<path class="st1" d="M297.48,281.23c-0.01,2.51-1.16,4.5-2.78,6.29c-6.09,3.03-7.68,2.75-12.54-2.03c-1.4-1.37-2.92-2.62-4.38-3.92
		c0-2.46,0-4.92,0-8.34C283.9,278.16,288.27,286.41,297.48,281.23z"/>
	<path class="st5" d="M277.8,301.52c3.66,0.01,7.32-0.09,10.98,0.06c2.7,0.11,5.79,0.49,5.76,4.04c-0.03,3.49-2.83,3.98-5.74,3.93
		c-3.66-0.06-7.32-0.01-10.98,0C277.81,306.87,277.81,304.2,277.8,301.52z"/>
	<path class="st9" d="M245.54,238.5c-6.1,0-12.21,0-18.31,0c4.71-3.28,9.87-5.94,14.06-9.96c1.04-0.99,2.08-1.7,3.36-0.39
		c1.1,1.13,2.91,2.03,1.83,4.06C245.41,234.22,245.7,236.38,245.54,238.5z"/>
	<path class="st5" d="M277.77,281.57c1.46,1.3,2.98,2.55,4.38,3.92c4.86,4.78,6.45,5.06,12.54,2.03c0.4,4.46-1.74,6.24-6.1,6.05
		c-3.58-0.16-7.18-0.02-10.77-0.02C277.81,289.56,277.79,285.56,277.77,281.57z"/>
	<path class="st1" d="M182.64,240.22c0.37-1.39,1.42-1.66,2.68-1.66c8.78,0.02,17.56,0.01,26.33,0.02c0.87,0,1.61,0.29,2.1,1.07
		C203.44,243.38,193.06,242.92,182.64,240.22z"/>
	<path class="st9" d="M143.37,218.49c-7.1,0-7.59-0.48-7.6-7.55c0-2.31,0.01-4.62,0.02-6.93
		C138.35,208.82,141.75,213.19,143.37,218.49z"/>
	<path class="st9" d="M135.79,154.12c-0.01-2.79-0.06-5.58-0.01-8.37c0.08-5.37,1.75-6.32,7.07-4.04
		C140.49,145.84,138.14,149.98,135.79,154.12z"/>
	<path class="st7" d="M250.32,219.53c3.23,0.32,2.63,2.37,1.68,4.2c-0.81,1.55-2.08,2.87-3.15,4.29
		C242.69,224.04,248.28,222.09,250.32,219.53z"/>
	<path class="st1" d="M192.33,245.88c-3.72,0.1-8.05,3.15-10.64-2.19C185.26,244.27,189.06,243.79,192.33,245.88z"/>
	<path class="st6" d="M63.51,288.09c-0.9-0.44-1.23-0.54-1.49-0.74c-2.35-1.8-6.86-3.36-6.57-5.43c0.44-3.17,4.82-4.26,8.06-6.6
		C63.51,279.89,63.51,283.75,63.51,288.09z"/>
	<path class="st10" d="M189.21,264.58c-18.15,0-36.3,0.02-54.44-0.02c-2.72,0-6.2,0.76-5.99-3.77c0.18-3.84,2.97-4.23,6.05-4.23
		c36.63,0.02,73.26,0.02,109.88,0.02c1.5,0,2.99-0.07,4.38,0.71c1.59,0.89,2.63,2.21,2.41,4.01c-0.22,1.83-1.56,2.92-3.37,3.17
		c-1.31,0.18-2.66,0.11-3.99,0.11C225.84,264.58,207.52,264.58,189.21,264.58z"/>
	<path class="st8" d="M190.2,103.6c-18.3,0-36.6-0.01-54.9,0.01c-3.14,0-6.57,0.01-6.41-4.23c0.14-3.83,3.42-3.79,6.37-3.79
		c36.27,0.02,72.54,0.01,108.81,0.01c1,0,2.01-0.07,2.99,0.07c2.33,0.34,4.4,1.46,4.28,4c-0.12,2.62-1.86,4-4.74,3.95
		c-6.49-0.11-12.98-0.03-19.46-0.03C214.82,103.61,202.51,103.6,190.2,103.6z"/>
	<path class="st7" d="M189.73,300.53c-18.15,0-36.31-0.01-54.46,0.01c-2.95,0-6.24,0.06-6.38-3.78c-0.16-4.24,3.28-4.24,6.42-4.23
		c36.31,0.02,72.62,0,108.92,0.03c1.47,0,2.99,0.15,4.41,0.51c1.57,0.4,2.62,1.66,2.72,3.24c0.12,1.85-1.03,3.24-2.77,3.7
		c-1.57,0.42-3.27,0.5-4.91,0.5C225.71,300.54,207.72,300.53,189.73,300.53z"/>
	<path class="st10" d="M163.72,274.52c9.98,0,19.96,0.01,29.94-0.01c2.66-0.01,5.24,0.05,5.06,3.74c-0.15,3.13-2.12,4.27-5.01,4.26
		c-19.96-0.01-39.93,0-59.89,0c-3.16,0-5.14-1.31-5.06-4.71c0.08-3.41,2.61-3.29,5.01-3.29
		C143.75,274.52,153.74,274.52,163.72,274.52z"/>
	<path class="st10" d="M229.53,274.52c5.32,0,10.65,0.01,15.97-0.01c2.2-0.01,3.96,0.43,4.2,3.12c0.22,2.44-1.04,3.8-3.16,4.4
		c-1.25,0.36-2.61,0.45-3.92,0.46c-8.98,0.04-17.97,0.02-26.95,0.02c-1.5,0-2.95-0.04-4.39-0.68c-1.96-0.87-2.76-2.24-2.54-4.34
		c0.24-2.35,1.76-2.98,3.82-2.98C218.22,274.53,223.87,274.52,229.53,274.52z"/>
	<path class="st2" d="M246.69,139.6c-2.69-4.37-7.25-7.01-10.27-11.08c1.03-2.25,2.27-1.21,3.44-0.19c1.98,1.73,3.91,3.5,5.86,5.25
		c1.97,2.36,3.94,4.73,5.91,7.09c8.68,13.38,13.19,27.91,11.75,43.95c-0.2,2.18,0.58,6.41-2.26,6.12c-2.81-0.28-0.67-3.95-0.54-6.05
		C261.54,167.92,257.52,152.72,246.69,139.6z"/>
	<path class="st5" d="M147.26,200.58c-5.44,0-7.48-1.86-7.52-6.87c-0.04-4.59,3.25-8.07,7.57-8.01c4.19,0.06,7.39,3.43,7.42,7.81
		C154.77,198.26,152.33,200.57,147.26,200.58z"/>
	<path class="st5" d="M221.73,193.57c0,4.86-2.04,6.95-6.82,7c-4.79,0.05-8.24-2.98-8.18-7.2c0.06-4.06,3.56-7.71,7.46-7.79
		C218.32,185.5,221.74,189.12,221.73,193.57z"/>
	<path class="st2" d="M200.59,192.73c-0.87,1.51-1.99,1.02-3.12,0.17c-3.36-2.53-7.01-4.52-11.18-5.27
		c-7.76-1.4-14.88,0.13-21.22,4.93c-1.01,0.76-2.26,2.24-3.34,0.65c-1.01-1.48,0.77-2.27,1.75-3.07c9.53-7.8,25.13-7.88,34.85-0.18
		C199.22,190.65,200.31,191.21,200.59,192.73z"/>
	<path class="st2" d="M194.67,170.32c-2.87-0.16-5.31-1.38-7.25-3.6c-0.67-0.77-1.32-1.7-0.49-2.61c0.97-1.06,1.77-0.12,2.44,0.57
		c3.65,3.73,7.19,3.45,10.68-0.24c0.58-0.61,1.36-1.17,2.14-0.53c1,0.83,0.48,1.78-0.18,2.58
		C200.15,168.77,197.69,169.99,194.67,170.32z"/>
	<path class="st2" d="M165.14,170.43c-1.06-0.38-2.59-0.65-3.8-1.42c-1.73-1.09-4.74-2.49-3.36-4.61c1.45-2.22,2.79,0.97,4.09,1.77
		c3.28,2.01,5.93,1.2,8.49-1.22c0.78-0.74,1.64-2.11,2.82-0.85c1.07,1.13-0.07,2.12-0.82,2.95
		C170.69,169.12,168.25,170.01,165.14,170.43z"/>
	<path class="st2" d="M222.73,121.46c-0.94-1.58-4.91-1.07-3.65-3.51c1.27-2.45,3.72,0.07,5.45,0.76c2.7,1.07,5.21,2.62,7.8,3.96
		c0.61,2.53-0.44,3.04-2.54,1.97C227.49,123.47,225.34,121.96,222.73,121.46z"/>
	<path class="st1" d="M251.64,140.67c-1.97-2.36-3.94-4.73-5.91-7.09C252.38,133.8,253.52,135.16,251.64,140.67z"/>
</g>
</svg>
