<?xml version="1.0" encoding="utf-8"?>
<!-- Generator: Adobe Illustrator 26.0.0, SVG Export Plug-In . SVG Version: 6.00 Build 0)  -->
<svg version="1.1" id="Layer_1" xmlns="http://www.w3.org/2000/svg" xmlns:xlink="http://www.w3.org/1999/xlink" x="0px" y="0px"
	 viewBox="0 0 408.66 408.6" style="enable-background:new 0 0 408.66 408.6;" xml:space="preserve">
<style type="text/css">
	.st0{fill:#724E91;}
	.st1{fill:#DBD4E1;}
</style>
<g>
	<path class="st0" d="M408.66,408.53c-9.58,0-19.15-0.1-28.72,0.07c-2.59,0.04-3.26-0.65-3.31-3.25
		c-0.71-33.18-9.74-63.96-28.43-91.42c-29.42-43.21-69.91-69.34-122.07-76.19c-41.94-5.5-81.05,3.3-116.12,26.83
		c-43.52,29.2-69.45,69.97-76.59,122.24c-0.86,6.33-1.42,12.68-1.4,19.06c0.01,1.95-0.38,2.76-2.6,2.72
		c-8.91-0.14-17.82-0.15-26.73,0c-2.47,0.04-2.72-0.91-2.67-2.99c0.74-37.03,10.23-71.6,29.72-103.14
		c24.91-40.33,59.58-69.04,104.12-85.65c0.87-0.32,1.7-0.72,2.55-1.1c0.1-0.05,0.16-0.21,0.38-0.53c-3.7-3.05-7.63-5.9-11.12-9.22
		c-34.71-32.95-47.5-73-34.82-119.17c12.12-44.11,42.07-71.6,86.25-83.61c4.79-1.3,9.94-0.82,14.47-3.2c7.98,0,15.96,0,23.94,0
		c0.13,0.64,0.61,0.72,1.16,0.78C234.66,2.62,251.54,8.01,266.6,18c41.31,27.41,60.1,66.16,54.69,115.35
		c-3.64,33.1-20.28,59.65-46.96,79.74c-0.87,0.65-1.67,1.4-2.77,2.32c1.31,0.56,2.13,0.97,2.98,1.28
		c27.23,9.9,51.24,24.99,71.94,45.22c34.47,33.7,54.82,74.44,60.74,122.36c0.34,2.76-0.21,5.75,1.45,8.3
		C408.66,397.89,408.66,403.21,408.66,408.53z M204.15,204.25c47.35,0.17,86.29-38.65,86.37-86.09
		c0.08-47.23-38.38-85.88-85.81-86.24c-47.27-0.36-86.3,38.37-86.57,85.89C117.88,165.11,156.66,204.08,204.15,204.25z"/>
	<path class="st1" d="M204.15,204.25c-47.5-0.17-86.27-39.14-86.01-86.44c0.26-47.52,39.29-86.24,86.57-85.89
		c47.43,0.36,85.89,39.01,85.81,86.24C290.45,165.61,251.5,204.42,204.15,204.25z"/>
</g>
</svg>
