<svg xmlns="http://www.w3.org/2000/svg" width="36.24" height="36.247" viewBox="0 0 36.24 36.247">
  <g id="Group_37307" data-name="Group 37307" transform="translate(399.143 -59.582)">
    <path id="Path_1459" data-name="Path 1459" d="M-362.9,73.881A2.217,2.217,0,0,1-364.377,75c-1.827.672-3.643,1.371-5.469,2.047a.4.4,0,0,0-.32.446c.014,1.522,0,3.043.014,4.565a.839.839,0,0,1-.488.853c-.386.2-.751.438-1.135.64a.314.314,0,0,0-.192.328q.009,2,0,4a.277.277,0,0,0,.214.3,2.049,2.049,0,0,1,1.35,2.035q0,1.451,0,2.9c0,.475-.183.654-.666.655q-1.433,0-2.866,0c-.476,0-.656-.18-.658-.662,0-.979-.006-1.958,0-2.937a2.048,2.048,0,0,1,1.353-2c.1-.044.215-.056.214-.226-.008-1.235,0-2.471,0-3.748a18.921,18.921,0,0,1-14.506.757c.083.7.161,1.379.242,2.054q.267,2.227.537,4.453c.083.689.154,1.381.255,2.068a1.366,1.366,0,0,1-.83,1.645,6.577,6.577,0,0,1-2.592.608,10.858,10.858,0,0,1-4.665-.516,2.492,2.492,0,0,1-.7-.4,1.117,1.117,0,0,1-.462-1.049q.191-1.452.4-2.9.368-2.6.743-5.206t.739-5.207c.028-.2.059-.4.095-.592.069-.384.127-.666-.372-.92a1.6,1.6,0,0,1-.258-2.434c.072-.075.151-.142.255-.238-1.349-.51-2.668-1.017-3.994-1.507a1.381,1.381,0,0,1-.916-.859,1.316,1.316,0,0,1,.8-1.694q1.774-.683,3.558-1.34c.223-.082.3-.158.259-.42-.1-.627-.151-1.262-.22-1.894a.519.519,0,0,1,.441-.616.492.492,0,0,1,.628.452c.1.735.169,1.474.252,2.211.179,1.6.349,3.207.541,4.809.082.684.1.681.8.681a1,1,0,0,1,.177,0c.287.052.342-.079.341-.346q-.013-5.255-.006-10.51c0-.507,0-1.014,0-1.522,0-.135.011-.261-.182-.269a7.549,7.549,0,0,1-2.533-.563c.1.829.183,1.611.278,2.392.064.529-.143.815-.583.782a.447.447,0,0,1-.46-.406,38.694,38.694,0,0,1-.488-3.958,1.454,1.454,0,0,1,.768-1.37,6.1,6.1,0,0,1,2.341-.717c.073-.011.172.039.21-.075h2.336c.083.127.213.055.321.07a6.266,6.266,0,0,1,2.7.843,1.3,1.3,0,0,1,.656,1.343c-.18,1.258-.354,2.517-.53,3.775-.109.779-.22,1.558-.335,2.374.173-.056.306-.094.435-.143,1.439-.541,2.882-1.07,4.313-1.632a3.233,3.233,0,0,1,2.436,0q7.763,2.939,15.536,5.851a2.049,2.049,0,0,1,1.369,1.114Zm-10.6-4.143c-2.355-.884-4.65-1.746-6.946-2.605a1.6,1.6,0,0,0-1.141,0q-2.7,1.007-5.4,2.025a.268.268,0,0,0-.2.249q-.421,3.292-.864,6.582c-.023.169,0,.24.165.316a1.413,1.413,0,0,1,.851,1.28.356.356,0,0,0,.275.375q2.508.928,5.007,1.882a1.953,1.953,0,0,0,1.443.006c.976-.372,1.954-.736,2.933-1.1.407-.152.672-.068.8.243.137.332-.005.606-.408.76-.986.376-1.971.753-2.962,1.117a3.047,3.047,0,0,1-2.206-.023c-1.535-.585-3.078-1.149-4.611-1.74-.389-.15-.748-.328-1.1.048a.334.334,0,0,1-.162.066c-.148.035-.191.1-.17.269.165,1.308.314,2.619.462,3.929a.481.481,0,0,0,.361.446,17.033,17.033,0,0,0,8.33.941,20.243,20.243,0,0,0,7.535-2.621.461.461,0,0,0,.27-.469c-.013-1.286-.005-2.572-.008-3.858,0-.074.037-.163-.061-.237-.057.02-.122.042-.187.066l-2.407.9a.5.5,0,0,1-.586-.1.569.569,0,0,1-.146-.588c.077-.262.33-.314.548-.4q4.857-1.834,9.714-3.665c.172-.065.4-.092.4-.334,0-.222-.223-.251-.382-.311q-3.654-1.384-7.309-2.766a.91.91,0,0,0-.737.019q-4.163,1.764-8.335,3.508c-.411.173-.692.08-.824-.256s0-.565.4-.734c.735-.31,1.472-.616,2.208-.926Zm-18,17.274v-6.9c0-.893,0-.888-.885-.859-.18.006-.23.058-.254.238-.23,1.7-.473,3.4-.715,5.1-.422,2.97-.836,5.942-1.283,8.908a.5.5,0,0,0,.363.634,8.121,8.121,0,0,0,2.457.578c.283.03.323-.048.322-.305C-391.507,91.943-391.5,89.477-391.5,87.012Zm1.064-.036v7.111c0,.653,0,.665.641.607a4.864,4.864,0,0,0,1.958-.527.433.433,0,0,0,.26-.507c-.169-1.212-.3-2.429-.445-3.645q-.3-2.507-.593-5.014c-.2-1.706-.417-3.411-.613-5.118-.07-.6-.053-.605-.67-.613a1.058,1.058,0,0,1-.177,0c-.287-.054-.37.045-.368.348C-390.433,82.071-390.439,84.524-390.439,86.977Zm3.013-23.955A8.249,8.249,0,0,1-390,63.5c-.355.013-.4.147-.4.46.012,3.738.006,7.475.011,11.213,0,.313-.141.742.064.908s.607.042.922.06c.17.01.236-.034.26-.221.222-1.715.459-3.428.689-5.141q.34-2.536.675-5.072C-387.664,64.837-387.55,63.964-387.426,63.022Zm-3.347-.571A12.1,12.1,0,0,0-388.3,62.2a2.38,2.38,0,0,0,.91-.36c.262-.193.261-.326,0-.513a1.943,1.943,0,0,0-.575-.259,9.955,9.955,0,0,0-2.431-.394,9.131,9.131,0,0,0-3.406.442c-.24.081-.559.174-.544.474.014.28.338.33.566.4A12.064,12.064,0,0,0-390.773,62.451Zm-3.152,12.8c-.115-1.075-.231-2.111-.334-3.148-.02-.205-.129-.155-.238-.114-.416.155-.83.317-1.246.474q-1.034.39-2.07.776c-.141.052-.267.117-.263.286,0,.151.126.213.251.26l.361.136Zm20.4,16.025c0,.4,0,.8,0,1.2,0,.147.006.24.2.235.554-.013,1.108-.007,1.662,0,.123,0,.2-.015.2-.168-.007-.825.019-1.651-.016-2.475a1.02,1.02,0,0,0-1.039-.955,1.031,1.031,0,0,0-1,1.067C-373.528,90.542-373.524,90.908-373.524,91.273Zm-17.408-13.066c.777,0,1.553,0,2.33,0,.344,0,.5-.159.5-.486s-.161-.462-.486-.461q-2.347.009-4.695,0a.423.423,0,0,0-.483.469c-.01.325.151.477.5.478C-392.486,78.209-391.709,78.207-390.932,78.207Z" transform="translate(0)" fill="#ec451f"/>
    <path id="Path_1460" data-name="Path 1460" d="M-128.366,373.861c0-.365,0-.731,0-1.1a1.031,1.031,0,0,1,1-1.067,1.02,1.02,0,0,1,1.039.955c.035.824.009,1.65.016,2.475,0,.153-.072.169-.2.168-.554,0-1.108-.01-1.662,0-.195,0-.2-.088-.2-.235C-128.362,374.662-128.366,374.261-128.366,373.861Z" transform="translate(-245.158 -282.587)" fill="#ec451f" opacity="0.43"/>
    <path id="Path_1461" data-name="Path 1461" d="M-339.481,247.386c-.777,0-1.553,0-2.33,0-.353,0-.514-.153-.5-.478a.423.423,0,0,1,.483-.469q2.347.009,4.695,0c.325,0,.482.145.486.461s-.156.485-.5.486C-337.927,247.387-338.7,247.386-339.481,247.386Z" transform="translate(-51.452 -169.179)" fill="#ec451f" opacity="0.43"/>
  </g>
</svg>
