<?xml version="1.0" encoding="utf-8"?>
<!-- Generator: Adobe Illustrator 26.0.0, SVG Export Plug-In . SVG Version: 6.00 Build 0)  -->
<svg version="1.1" id="Layer_1" xmlns="http://www.w3.org/2000/svg" xmlns:xlink="http://www.w3.org/1999/xlink" x="0px" y="0px"
	 viewBox="0 0 408.66 408.6" style="enable-background:new 0 0 408.66 408.6;" xml:space="preserve">
<style type="text/css">
	.st0{fill:#F1000E;}
	.st1{fill:#FFC8CB;}
</style>
<g>
	<path class="st0" d="M407.04,309.76c-0.01,55.01-44.43,99.39-99.34,99.24c-54.75-0.15-99.06-44.45-99.13-99.13
		c-0.07-54.68,44.77-99.48,99.48-99.37C362.71,210.6,407.05,255.06,407.04,309.76z M346.54,250.61
		c-25.82-18.6-64.88-14.73-88.46,8.77c-24.07,23.98-28.17,62.78-9.4,89.1C251.76,346.11,344.17,253.7,346.54,250.61z M308.04,380.63
		c54.3-0.15,88.34-58.96,61.46-106.03c-1.96-3.43-3.04-3.52-5.75-0.69c-8.37,8.73-17.04,17.17-25.6,25.72
		c-22.12,22.11-44.18,44.27-66.41,66.27c-2.8,2.77-2.19,3.74,0.83,5.42C283.63,377.47,295.38,380.73,308.04,380.63z"/>
	<path class="st0" d="M194.54,2.67c57.35,0.06,103.8,46.44,103.95,103.77c0.15,57.35-46.67,104.13-104.13,104.04
		c-57.55-0.09-104.03-46.72-103.88-104.22C90.63,48.99,137.21,2.61,194.54,2.67z M194.62,182.12c41.82-0.13,75.76-34.2,75.51-75.82
		c-0.25-41.82-34.29-75.5-76.05-75.26c-41.88,0.25-75.41,34.13-75.23,76.02C119.03,148.59,153,182.24,194.62,182.12z"/>
	<path class="st0" d="M112.53,390.33c-26.29,0-52.58,0.07-78.86-0.03c-16.34-0.06-28.85-10.02-32.26-25.47
		c-1.12-5.09-0.71-10.31-0.6-15.46c0.24-10.89-1.11-21.86,1.63-32.63c5.35-21.03,18.92-36.02,35.93-48.3
		C61.2,251.96,87.12,242.5,114.23,236c26.09-6.26,52.58-9.14,79.4-9.06c8.57,0.03,14.69,5.67,14.9,13.62
		c0.21,8.21-5.73,14.55-14.38,14.67c-12.41,0.17-24.8,0.56-37.13,2.03c-34.69,4.14-68.15,12.17-98.01,31.37
		c-8.36,5.38-15.98,11.65-21.93,19.74c-5.21,7.1-8.18,14.9-7.99,23.85c0.16,7.82,0.02,15.66,0.04,23.48
		c0.01,5.79,0.47,6.24,6.43,6.24c52.28,0.01,104.56,0,156.84,0.01c9.58,0,15.96,5.53,16.13,13.85c0.17,8.25-5.87,14.42-14.48,14.47
		c-15.21,0.1-30.42,0.03-45.63,0.03C136.45,390.33,124.49,390.33,112.53,390.33z"/>
	<path class="st1" d="M346.54,250.61c-2.37,3.08-94.78,95.5-97.86,97.87c-18.77-26.32-14.68-65.12,9.4-89.1
		C281.67,235.89,320.72,232.02,346.54,250.61z"/>
	<path class="st1" d="M308.04,380.62c-12.66,0.1-24.41-3.16-35.46-9.31c-3.02-1.68-3.63-2.65-0.83-5.42
		c22.23-22,44.29-44.16,66.41-66.27c8.55-8.55,17.23-16.99,25.6-25.72c2.71-2.83,3.79-2.74,5.75,0.69
		C396.38,321.67,362.34,380.48,308.04,380.62z"/>
	<path class="st1" d="M194.62,182.12c-41.62,0.12-75.59-33.53-75.77-75.05c-0.18-41.9,33.34-75.78,75.23-76.02
		c41.76-0.25,75.8,33.44,76.05,75.26C270.38,147.91,236.44,181.99,194.62,182.12z"/>
</g>
</svg>
