<svg xmlns="http://www.w3.org/2000/svg" width="38.748" height="38.737" viewBox="0 0 38.748 38.737">
  <g id="Group_37308" data-name="Group 37308" transform="translate(-632.557 509.673)">
    <path id="Path_1462" data-name="Path 1462" d="M656.991-509.673a3.664,3.664,0,0,1,1.721.925,1.963,1.963,0,0,1,.422.527c.174.426.469.486.886.479a2.281,2.281,0,0,1,2.451,1.794,2.481,2.481,0,0,1-.07,1.266c-.38,1.326-.747,2.655-1.135,3.978a.318.318,0,0,0,.154.423,1.881,1.881,0,0,1,.4,2.78c-.161.2-.132.27.054.424a15.189,15.189,0,0,1,5.363,8.681,8.239,8.239,0,0,1,.146,2.624,1.491,1.491,0,0,0,.525-.281,2.127,2.127,0,0,1,3,.538,2.122,2.122,0,0,1-.531,2.975q-7.165,5.456-14.34,10.9a3.282,3.282,0,0,1-3.171.506q-6.313-2.046-12.633-4.074a4.136,4.136,0,0,0-1.294-.208c-1.386,0-2.772-.012-4.159-.017a2,2,0,0,1-2.17-1.444c-.008-.018-.038-.027-.057-.04v-6.128c.083-.162.156-.331.251-.486a1.815,1.815,0,0,1,1.57-.956q1.984-.028,3.968-.009a4.135,4.135,0,0,0,2.157-.555c.88-.507,1.785-.974,2.672-1.47a3.889,3.889,0,0,1,2.085-.546c.14.006.224.006.24-.182a13.518,13.518,0,0,1,2.285-6.261,14.054,14.054,0,0,1,3.256-3.591c.155-.118.2-.184.047-.366a1.88,1.88,0,0,1,.341-2.784.382.382,0,0,0,.175-.514c-.378-1.312-.706-2.64-1.131-3.937a2.3,2.3,0,0,1,2.256-3.039,1.071,1.071,0,0,0,1.1-.578,2.8,2.8,0,0,1,1.958-1.288c.027-.005.048-.044.072-.067Zm-3.2,28.385c2.08,0,4.16,0,6.24,0a1.078,1.078,0,0,0,1.115-1.006,1.088,1.088,0,0,0-.95-1.13q-2.307-.379-4.615-.746c-3.165-.5-6.332-.992-9.494-1.514a3.485,3.485,0,0,0-2.5.424c-.859.519-1.759.97-2.64,1.453a4.84,4.84,0,0,1-2.417.616c-1.3-.012-2.6,0-3.9,0-.547,0-.791.234-.792.775q-.006,2.439,0,4.879c0,.555.231.783.777.785q1.929.009,3.857.014a6.649,6.649,0,0,1,2.049.256c4.2,1.356,8.4,2.69,12.591,4.062a2.318,2.318,0,0,0,2.319-.4q5.128-3.927,10.284-7.819,1.9-1.439,3.79-2.879a.891.891,0,0,0,.45-.923.839.839,0,0,0-1.384-.48q-6.134,3.882-12.265,7.768a1.708,1.708,0,0,1-2.341-.1c-1.1-.841-2.206-1.676-3.3-2.52a.832.832,0,0,0-.551-.185q-1.3.016-2.609,0c-.541-.006-.869-.391-.727-.851.12-.389.436-.478.806-.478Q650.693-481.285,653.794-481.289Zm8.67-1.31c1.1-.7,2.183-1.381,3.267-2.064a.427.427,0,0,0,.2-.3,6.5,6.5,0,0,0,.122-2.588,13.573,13.573,0,0,0-5.7-9.027.961.961,0,0,0-.6-.173q-3.308.01-6.617,0a1.083,1.083,0,0,0-.628.2,11.647,11.647,0,0,0-2.73,2.534,13.21,13.21,0,0,0-2.973,6.732c-.025.212-.091.406.243.457q4.265.66,8.526,1.347c.18.029.216-.019.212-.184-.009-.365-.016-.732,0-1.1a.382.382,0,0,0-.33-.466,3.2,3.2,0,0,1-2.25-3.1,3.219,3.219,0,0,1,2.259-3.06c.2-.06.309-.124.364-.343a.576.576,0,0,1,.623-.442.558.558,0,0,1,.591.434c.05.233.168.289.363.35a3.239,3.239,0,0,1,2.266,2.985.667.667,0,0,1-.4.7c-.454.2-.878-.118-.911-.677a1.916,1.916,0,0,0-.981-1.6c-.232-.142-.294-.083-.291.179q.015,1.607,0,3.214c0,.219.076.283.282.35a3.183,3.183,0,0,1,2.235,2.431c.072.308-.041.752.135.919.207.2.643.136.967.23A2.4,2.4,0,0,1,662.464-482.6Zm-6.027-18.056q1.587,0,3.175,0c.171,0,.29,0,.352-.226.394-1.451.811-2.9,1.224-4.341a.825.825,0,0,0,.011-.445.961.961,0,0,0-.987-.762c-.526-.01-.526-.01-.526.5,0,.643.006,1.285,0,1.928-.006.5-.265.791-.673.784s-.646-.3-.648-.807c0-.832.008-1.663-.006-2.495a1.919,1.919,0,0,0-1.821-1.865,1.892,1.892,0,0,0-1.975,1.6,23.85,23.85,0,0,0-.054,2.792c-.013.484-.24.763-.637.77-.412.007-.659-.283-.66-.784,0-.718,0-1.436,0-2.154,0-.093.08-.261-.1-.267a1.369,1.369,0,0,0-1.139.254,1.022,1.022,0,0,0-.233,1.082c.39,1.374.786,2.747,1.164,4.125.064.234.156.317.4.313C654.345-500.663,655.391-500.655,656.437-500.655Zm-.013,1.33c-1.26,0-2.521,0-3.781,0a.64.64,0,0,0-.715.611.629.629,0,0,0,.69.639q3.819.009,7.638,0a.67.67,0,0,0,.43-.114.612.612,0,0,0,.228-.706.6.6,0,0,0-.633-.434C658.995-499.322,657.709-499.324,656.424-499.324Zm-3.81,19.383c.842.639,1.61,1.224,2.38,1.807a.3.3,0,0,0,.382.021c.937-.594,1.878-1.184,2.9-1.828Zm3.171-10.347c0-.516,0-1.031,0-1.547,0-.195-.019-.293-.243-.169a1.857,1.857,0,0,0-1.028,1.68,1.862,1.862,0,0,0,1.03,1.717c.228.129.243.018.241-.172C655.78-489.283,655.785-489.786,655.785-490.289Zm2.591,5.086a2,2,0,0,0-.718-1.42c-.152-.123-.328-.327-.51-.248-.14.061-.034.318-.054.487a1.359,1.359,0,0,0,0,.189c.006.3-.1.678.047.883.16.229.581.121.878.211.036.011.075.007.112.015C658.3-485.05,658.4-485.092,658.376-485.2Z" transform="translate(0 0)" fill="#181f48"/>
    <path id="Path_1463" data-name="Path 1463" d="M828.645-407.322c1.286,0,2.571,0,3.857,0a.6.6,0,0,1,.633.434.612.612,0,0,1-.228.706.67.67,0,0,1-.43.114q-3.819,0-7.638,0a.63.63,0,0,1-.69-.639.64.64,0,0,1,.715-.611C826.125-407.325,827.385-407.322,828.645-407.322Z" transform="translate(-172.222 -92.002)" fill="#181f48" opacity="0.57"/>
  </g>
</svg>
