<?xml version="1.0" encoding="utf-8"?>
<!-- Generator: Adobe Illustrator 26.0.0, SVG Export Plug-In . SVG Version: 6.00 Build 0)  -->
<svg version="1.1" id="Layer_1" xmlns="http://www.w3.org/2000/svg" xmlns:xlink="http://www.w3.org/1999/xlink" x="0px" y="0px"
	 viewBox="0 0 100 100" style="enable-background:new 0 0 100 100;" xml:space="preserve">
<style type="text/css">
	.st0{fill:#FEEDB4;}
	.st1{fill:#2E2E2D;}
	.st2{fill:#FEE007;}
</style>
<g id="Group_5768" transform="translate(-675.228 -920.228)">
	<g id="Path_2664">
		<circle class="st0" cx="725.2" cy="970.2" r="49"/>
		<g>
			<path class="st1" d="M725.2,922.2c26.5,0,48,21.5,48,48s-21.5,48-48,48s-48-21.5-48-48S698.8,922.2,725.2,922.2 M725.2,920.2
				c-27.6,0-50,22.4-50,50s22.4,50,50,50s50-22.4,50-50S752.8,920.2,725.2,920.2L725.2,920.2z"/>
		</g>
	</g>
	<g id="Group_5772" transform="translate(-4 -4)">
		<rect id="Rectangle_1876" x="704.5" y="963.5" class="st2" width="47.6" height="34.1"/>
		<g id="Group_5771" transform="translate(700.228 945.228)">
			<g id="Group_5769" transform="translate(0 0)">
				<path id="Path_3478" class="st1" d="M40.5,3.9h0.9c0.9,0.3,1.4,1.2,1.2,2.1c0,0.5,0,1,0,1.5c0,0.4,0.1,0.5,0.4,0.5
					c1.4,0,2.8,0,4.3,0c3,0,5.7,2.1,6.4,5.1c0,0.2,0,0.4,0.2,0.5v36.3c-0.2,0.1-0.1,0.3-0.2,0.4c-0.7,3-3.4,5.2-6.5,5.1
					c-12.7,0-25.4,0-38.1,0c-3.7,0-6.6-2.9-6.7-6.5c0,0,0-0.1,0-0.1c0-11.4,0-22.7,0-34.1C2.4,11,5.4,8,9,7.9c0,0,0.1,0,0.1,0
					c1.4,0,2.8,0,4.2,0c0.3,0,0.4,0,0.4-0.4c0-0.4,0-0.9,0-1.4c-0.2-0.9,0.3-1.9,1.1-2.3h0.9c0.9,0.3,1.4,1.2,1.2,2.1
					c0,0.5,0,0.9,0,1.4c0,0.4,0.1,0.5,0.5,0.5c1.8,0,3.6,0,5.4,0c5.4,0,10.8,0,16.2,0c0.3,0,0.5-0.1,0.4-0.4c0-0.4,0-0.9,0-1.3
					C39.2,5.3,39.7,4.3,40.5,3.9z M28.2,21.6H6.6c-0.8,0-0.9,0.1-0.9,0.9c0,8.6,0,17.2,0,25.9c-0.2,1.9,1.2,3.6,3.1,3.7
					c0.2,0,0.4,0,0.6,0H47c1.9,0.2,3.6-1.2,3.7-3.1c0-0.2,0-0.4,0-0.6c0-8.6,0-17.2,0-25.9c0-0.8-0.1-0.9-0.9-0.9H28.2z"/>
			</g>
			<g id="Group_5770" transform="translate(24.22 23.073)">
				<path id="Path_3479" class="st1" d="M4.4,1.6C4.7,1.7,5,1.7,5.3,1.8c1.8,0.7,2.9,2.5,2.5,4.4c-0.6,3.4-1.2,6.9-1.8,10.3
					c-0.1,1.2-1.1,2-2.3,1.9c-0.9-0.1-1.7-0.8-1.9-1.7c-0.4-2.1-0.7-4.2-1.1-6.3C0.5,9,0.3,7.6,0.1,6.2C-0.3,4,1.1,2,3.3,1.6
					c0,0,0,0,0,0c0,0,0.1,0,0.1,0L4.4,1.6z"/>
				<path id="Path_3480" class="st1" d="M7,23.1c0,1.7-1.3,3.1-3,3.1c-1.7,0-3.1-1.3-3.1-3c0,0,0-0.1,0-0.1c0-1.7,1.4-3,3.1-3
					C5.6,20.1,7,21.5,7,23.1z"/>
			</g>
		</g>
	</g>
</g>
</svg>
