<svg xmlns="http://www.w3.org/2000/svg" width="37.273" height="27.238" viewBox="0 0 37.273 27.238">
  <g id="Group_37323" data-name="Group 37323" transform="translate(-13 -18)">
    <ellipse id="Ellipse_369" data-name="Ellipse 369" cx="6" cy="7.5" rx="6" ry="7.5" transform="translate(20 19)" fill="#84c5fe"/>
    <path id="Parent_Guardian-595b40b65ba036ed117d2180" data-name="Parent Guardian-595b40b65ba036ed117d2180" d="M15.9,6a8.6,8.6,0,0,0-5.2,15.456A12.9,12.9,0,0,0,3,33.238H5.867A10.031,10.031,0,0,1,24.638,28.31a8.528,8.528,0,0,0-1.568,4.928h2.867a5.734,5.734,0,0,1,11.469,0h2.867a8.635,8.635,0,0,0-4.48-7.526,5.686,5.686,0,0,0,1.613-3.942,5.734,5.734,0,1,0-11.469,0,5.686,5.686,0,0,0,1.613,3.942,8.873,8.873,0,0,0-.851.538,12.893,12.893,0,0,0-5.6-4.793A8.6,8.6,0,0,0,15.9,6Zm0,2.867A5.734,5.734,0,1,1,10.168,14.6,5.713,5.713,0,0,1,15.9,8.867ZM31.672,18.9A2.867,2.867,0,1,1,28.8,21.769,2.846,2.846,0,0,1,31.672,18.9Z" transform="translate(10 12)" fill="#138ffa"/>
  </g>
</svg>
