<?xml version="1.0" encoding="utf-8"?>
<!-- Generator: Adobe Illustrator 26.0.0, SVG Export Plug-In . SVG Version: 6.00 Build 0)  -->
<svg version="1.1" id="Layer_1" xmlns="http://www.w3.org/2000/svg" xmlns:xlink="http://www.w3.org/1999/xlink" x="0px" y="0px"
	 viewBox="0 0 408.94 409" style="enable-background:new 0 0 408.94 409;" xml:space="preserve">
<style type="text/css">
	.st0{opacity:0.7;fill:#FAEE55;}
	.st1{fill:#FFB229;}
	.st2{fill:#FC8719;}
</style>
<g id="Group_5772" transform="translate(-4 -4)">
	<rect id="Rectangle_1876" x="18.32" y="118.25" class="st0" width="378.44" height="271.34"/>
	<g id="Group_5771" transform="translate(700.228 945.228)">
		<g id="Group_5769" transform="translate(0 0)">
			<path id="Path_3478" class="st1" d="M-393.47-941.23h7.19c6.83,2.51,10.89,9.55,9.64,16.72c-0.33,3.83,0.14,7.73-0.12,11.57
				c-0.19,2.86,0.48,3.81,3.57,3.76c11.3-0.22,22.62-0.17,33.92-0.06c24.12,0.32,44.95,16.98,50.55,40.44
				c0.34,1.43-0.04,3.19,1.43,4.28v288.35c-1.47,0.54-1.11,2.01-1.36,3.03c-5.48,24.14-27.07,41.17-51.83,40.88
				c-100.88,0.04-201.75,0.04-302.63,0c-29.03,0.3-52.8-22.99-53.1-52.02c0-0.39,0-0.79,0-1.18c-0.04-90.24-0.04-180.47,0-270.71
				c-0.25-29.07,23.12-52.83,52.18-53.08c0.35,0,0.69,0,1.04,0c11.05-0.04,22.09-0.07,33.14,0.05c2.33,0,3.33-0.36,3.13-2.98
				c-0.26-3.57,0.22-7.21-0.12-10.77c-1.5-7.38,2.12-14.86,8.84-18.25h7.24c6.84,2.49,10.91,9.54,9.64,16.71
				c-0.32,3.7,0.17,7.46-0.12,11.16c-0.25,3.19,0.51,4.23,3.98,4.18c14.36-0.24,28.73-0.1,43.09-0.1c42.84,0,85.66,0.02,128.46,0.06
				c2.72,0,3.74-0.53,3.51-3.42c-0.28-3.43,0.21-6.94-0.12-10.36C-403.83-930.35-400.21-937.84-393.47-941.23z M-491.29-800.65
				h-172.08c-6.6,0-7.19,0.61-7.19,7.35c0,68.55,0,137.1,0,205.64c-1.43,15.03,9.6,28.37,24.63,29.79c1.7,0.16,3.41,0.16,5.11,0.01
				h298.31c15.05,1.39,28.37-9.69,29.76-24.74c0.15-1.68,0.15-3.37,0-5.05c0-68.55,0-137.1,0-205.64c0-6.73-0.61-7.35-7.19-7.35
				h-171.35V-800.65z"/>
		</g>
		<g id="Group_5770" transform="translate(24.22 23.073)">
			<path id="Path_3479" class="st2" d="M-512.12-799.55c2.29,0.82,4.73,1.01,7.04,1.84c14.19,5.23,22.68,19.8,20.23,34.72
				c-4.81,27.38-9.59,54.77-14.34,82.16c-0.8,9.22-8.92,16.04-18.14,15.24c-7.41-0.64-13.5-6.09-14.97-13.38
				c-3.04-16.74-5.9-33.5-8.83-50.26c-1.96-11.19-3.88-22.39-5.86-33.56c-2.95-17.1,8.52-33.35,25.62-36.3
				c0.1-0.02,0.19-0.03,0.29-0.05c0.34-0.06,0.79,0.13,0.95-0.39L-512.12-799.55z"/>
			<path id="Path_3480" class="st2" d="M-491.84-628.49c0.27,13.31-10.31,24.32-23.62,24.58c-13.31,0.27-24.32-10.31-24.58-23.62
				c-0.01-0.28-0.01-0.55,0-0.83c0.19-13.31,11.14-23.95,24.45-23.76C-502.6-651.93-492.1-641.48-491.84-628.49z"/>
		</g>
	</g>
</g>
</svg>
