<svg xmlns="http://www.w3.org/2000/svg" width="36.714" height="35.761" viewBox="0 0 36.714 35.761">
  <g id="Group_37306" data-name="Group 37306" transform="translate(-611.59 -316.1)">
    <path id="Path_1454" data-name="Path 1454" d="M648.3,322.6a20.173,20.173,0,0,0-.573,2.224c-.567,2.248-.981,4.537-1.671,6.75a4.334,4.334,0,0,1-3.511,3.058c-1.263.251-2.557.3-3.837.44-1.494.165-2.99.318-4.485.474q-2.207.231-4.415.459l-4.485.469a4.208,4.208,0,0,1-.571.047c-.419-.014-.606.209-.753.58a2.343,2.343,0,0,0,.354,2.572,2.1,2.1,0,0,0,1.685.719q2.653,0,5.306,0,5.449,0,10.9,0c.622,0,.973.253,1.048.743a.823.823,0,0,1-.724.963,3.668,3.668,0,0,1-.429.015c-5.318,0-10.636-.021-15.954.012a4.051,4.051,0,0,1-3.682-5.935,1.313,1.313,0,0,0,.058-1.115q-2.6-7.776-5.168-15.561a2.219,2.219,0,0,0-2.3-1.659c-.837,0-1.673,0-2.51,0a.913.913,0,0,1-.91-.51.806.806,0,0,1,.1-.876.668.668,0,0,1,.5-.308,19.8,19.8,0,0,1,3.718.064,3.734,3.734,0,0,1,2.986,2.623c.235.66.443,1.331.655,2,.056.176.123.263.339.266,4.552.059,9.1.133,13.657.2q6.685.093,13.371.168a1.532,1.532,0,0,1,1.3.55Zm-14.947.42v.009l-12.65-.2c-.419-.007-.421-.007-.291.386q1.863,5.652,3.724,11.3c.069.209.147.318.391.278.317-.052.641-.064.961-.1,1.957-.206,3.914-.416,5.872-.619,1.732-.179,3.466-.347,5.2-.526s3.462-.383,5.2-.545a2.955,2.955,0,0,0,2.815-2.362c.575-2.356,1.143-4.714,1.722-7.069.068-.277.044-.372-.287-.376C641.79,323.149,637.573,323.081,633.357,323.017Z" fill="#2dce98"/>
    <path id="Path_1455" data-name="Path 1455" d="M850.91,598.783a3.838,3.838,0,1,1,3.86-3.828A3.858,3.858,0,0,1,850.91,598.783Zm.019-1.721a2.115,2.115,0,0,0,2.111-2.117,2.115,2.115,0,1,0-4.23.012A2.1,2.1,0,0,0,850.929,597.061Z" transform="translate(-211.438 -246.921)" fill="#2dce98"/>
    <path id="Path_1456" data-name="Path 1456" d="M692.591,598.786a3.838,3.838,0,1,1,.049-7.675,3.838,3.838,0,0,1-.049,7.675Zm.012-1.721a2.132,2.132,0,0,0,2.128-2.109,2.166,2.166,0,0,0-2.125-2.128,2.13,2.13,0,0,0-2.111,2.125A2.1,2.1,0,0,0,692.6,597.065Z" transform="translate(-69.303 -246.924)" fill="#2dce98"/>
    <path id="Path_1457" data-name="Path 1457" d="M866.163,612.172a2.1,2.1,0,0,1-2.119-2.1,2.115,2.115,0,1,1,4.23-.012A2.115,2.115,0,0,1,866.163,612.172Z" transform="translate(-226.672 -262.032)" fill="#2dce98" opacity="0.35"/>
    <path id="Path_1458" data-name="Path 1458" d="M707.725,612.167a2.1,2.1,0,0,1-2.109-2.111,2.13,2.13,0,0,1,2.111-2.125,2.166,2.166,0,0,1,2.126,2.128A2.132,2.132,0,0,1,707.725,612.167Z" transform="translate(-84.424 -262.026)" fill="#2dce98" opacity="0.35"/>
  </g>
</svg>
