<svg xmlns="http://www.w3.org/2000/svg" xmlns:xlink="http://www.w3.org/1999/xlink" width="62" height="62" viewBox="0 0 62 62">
  <defs>
    <clipPath id="clip-path">
      <rect id="Rectangle_1874" data-name="Rectangle 1874" width="35.333" height="36.494" fill="#ec6421"/>
    </clipPath>
  </defs>
  <g id="Group_5759" data-name="Group 5759" transform="translate(-1165 -10459)">
    <g id="Group_5755" data-name="Group 5755" transform="translate(1165 10459)">
      <g id="Ellipse_3" data-name="Ellipse 3" fill="#fff5e3" stroke="#ec6421" stroke-width="1.5">
        <circle cx="31" cy="31" r="31" stroke="none"/>
        <circle cx="31" cy="31" r="30.25" fill="none"/>
      </g>
    </g>
    <g id="Group_5761" data-name="Group 5761" transform="translate(1178 10472)">
      <g id="Group_5760" data-name="Group 5760" clip-path="url(#clip-path)">
        <path id="Path_3457" data-name="Path 3457" d="M35.329,284.093a19.128,19.128,0,0,1-.206,3.844,10.1,10.1,0,0,1-5.858,7.327c-.1.048-.207.093-.311.137-1.473.62-1.006.607-2.469-.029a9.876,9.876,0,0,1-3.674-2.75.448.448,0,0,0-.387-.175q-8.742.018-17.483.029c-1.343,0-2.686.012-4.029.008-.6,0-.923-.3-.912-.872a13.618,13.618,0,0,1,5.334-11.084,12.775,12.775,0,0,1,9.192-2.617,12.665,12.665,0,0,1,6.433,2.359.4.4,0,0,0,.508,0c1.9-1.047,3.815-2.082,5.713-3.141a1.072,1.072,0,0,1,1.138-.022q3.22,1.735,6.454,3.442a.956.956,0,0,1,.561.944c-.012.823,0,1.647,0,2.6m-13.721,6.788c-.066-.139-.1-.216-.14-.292a9.825,9.825,0,0,1-1.048-3.851c-.088-1.519-.03-3.04-.031-4.559a.7.7,0,0,0-.34-.645,11.733,11.733,0,0,0-13.821.284,11.937,11.937,0,0,0-4.581,8.544c-.056.551-.046.553.511.552q7.2-.016,14.4-.031c1.659,0,3.318,0,5.048,0m12.138-6.553c0-.747-.007-1.5,0-2.242a.416.416,0,0,0-.252-.441q-2.749-1.449-5.483-2.925a.437.437,0,0,0-.483,0q-2.651,1.471-5.317,2.915a.423.423,0,0,0-.263.434c.011,1.317-.028,2.636.012,3.952a8.573,8.573,0,0,0,5,7.85,1.561,1.561,0,0,0,1.511.032,8.69,8.69,0,0,0,4.968-5.692,13.762,13.762,0,0,0,.3-3.885" transform="translate(-0.001 -259.364)" fill="#ec6421"/>
        <path id="Path_3458" data-name="Path 3458" d="M95.4,8.326A8.311,8.311,0,1,1,87.144,0,8.307,8.307,0,0,1,95.4,8.326M87.08,1.562A6.741,6.741,0,1,0,93.823,8.3,6.742,6.742,0,0,0,87.08,1.562" transform="translate(-73.772 0)" fill="#ec6421"/>
        <path id="Path_3459" data-name="Path 3459" d="M384.085,392.5a.727.727,0,0,1-.579-.278c-.587-.681-1.179-1.359-1.754-2.05a.769.769,0,0,1,.06-1.119.779.779,0,0,1,1.144.119c.344.389.684.782,1.005,1.19.174.221.288.261.529.059,1.057-.888,2.131-1.755,3.206-2.62a.783.783,0,0,1,1.328.414.732.732,0,0,1-.27.746q-2.074,1.694-4.155,3.38a.738.738,0,0,1-.514.16" transform="translate(-357.308 -362.965)" fill="#ec6421"/>
      </g>
    </g>
  </g>
</svg>
