<svg xmlns="http://www.w3.org/2000/svg" xmlns:xlink="http://www.w3.org/1999/xlink" width="62" height="62" viewBox="0 0 62 62">
  <defs>
    <clipPath id="clip-path">
      <rect id="Rectangle_1873" data-name="Rectangle 1873" width="35.199" height="35.199" fill="#6002ee"/>
    </clipPath>
  </defs>
  <g id="Group_5758" data-name="Group 5758" transform="translate(-1165 -10459)">
    <g id="Group_5755" data-name="Group 5755" transform="translate(1165 10459)">
      <g id="Ellipse_3" data-name="Ellipse 3" fill="#efe5fd" stroke="#6002ee" stroke-width="1.5">
        <circle cx="31" cy="31" r="31" stroke="none"/>
        <circle cx="31" cy="31" r="30.25" fill="none"/>
      </g>
    </g>
    <g id="Group_5757" data-name="Group 5757" transform="translate(1180 10474)">
      <g id="Group_5756" data-name="Group 5756" transform="translate(-2 -2)" clip-path="url(#clip-path)">
        <path id="Path_3454" data-name="Path 3454" d="M0,14.988a1.15,1.15,0,0,1,.762-.5c1.256-.3,2.5-.628,3.758-.932a.414.414,0,0,0,.35-.313,8.832,8.832,0,0,1,.638-1.549.44.44,0,0,0-.031-.5c-.671-1.1-1.333-2.212-2-3.32-.316-.528-.291-.754.133-1.178q1.554-1.556,3.11-3.11a.742.742,0,0,1,1.1-.136Q9.514,4.462,11.2,5.483a.441.441,0,0,0,.5.025,9.1,9.1,0,0,1,1.516-.628.443.443,0,0,0,.342-.364c.306-1.278.632-2.55.951-3.824.132-.527.33-.689.862-.689Q17.6,0,19.834,0c.529,0,.728.164.86.692.319,1.275.643,2.548.953,3.825a.41.41,0,0,0,.309.353,9.3,9.3,0,0,1,1.581.649.39.39,0,0,0,.433-.022q1.685-1.023,3.378-2.033a.766.766,0,0,1,1.152.146Q30.045,5.153,31.587,6.7a.765.765,0,0,1,.147,1.152c-.67,1.118-1.338,2.236-2.016,3.348a.441.441,0,0,0-.026.5,8.873,8.873,0,0,1,.637,1.55.413.413,0,0,0,.354.309c1.287.312,2.571.637,3.856.959a.731.731,0,0,1,.66.852q0,2.234,0,4.467c0,.531-.164.732-.689.863-1.285.321-2.569.644-3.855.961a.364.364,0,0,0-.313.264,9.289,9.289,0,0,1-.679,1.643.382.382,0,0,0,.054.434q1.007,1.674,2.013,3.35a.763.763,0,0,1-.139,1.153q-1.541,1.545-3.086,3.086c-.423.423-.656.447-1.18.133-1.1-.657-2.2-1.307-3.29-1.98a.517.517,0,0,0-.588-.02,8.347,8.347,0,0,1-1.487.609.414.414,0,0,0-.313.35c-.3,1.255-.636,2.5-.933,3.759a1.155,1.155,0,0,1-.5.762H14.987a1.156,1.156,0,0,1-.5-.762c-.294-1.245-.625-2.481-.925-3.724a.482.482,0,0,0-.35-.4,10.921,10.921,0,0,1-1.392-.569.656.656,0,0,0-.74.042c-1.08.664-2.17,1.312-3.258,1.963a.742.742,0,0,1-1.1-.141Q5.166,30.057,3.612,28.5a.763.763,0,0,1-.148-1.15C4.134,26.234,4.8,25.116,5.48,24a.441.441,0,0,0,.028-.5,8.858,8.858,0,0,1-.637-1.549.413.413,0,0,0-.352-.311c-1.254-.305-2.5-.637-3.757-.932a1.152,1.152,0,0,1-.762-.5ZM30.365,7.443c-.062-.068-.12-.137-.183-.2-.736-.738-1.482-1.467-2.2-2.218-.178-.184-.293-.163-.484-.046-1.043.638-2.1,1.253-3.139,1.9a.984.984,0,0,1-1.117.041,9.144,9.144,0,0,0-2.117-.871.913.913,0,0,1-.7-.749c-.288-1.223-.6-2.44-.9-3.661-.047-.191-.121-.27-.338-.267-1.042.014-2.085.017-3.127,0-.249,0-.327.079-.38.3-.294,1.222-.608,2.439-.9,3.661a.876.876,0,0,1-.662.705,10.423,10.423,0,0,0-2.212.911.9.9,0,0,1-.994-.039c-1.07-.659-2.155-1.3-3.229-1.949A.283.283,0,0,0,7.247,5q-1.1,1.134-2.236,2.235c-.172.167-.15.276-.041.456.655,1.073,1.294,2.156,1.95,3.228a.874.874,0,0,1,.032.964,10.024,10.024,0,0,0-.9,2.179.936.936,0,0,1-.773.72c-1.223.287-2.438.6-3.658.9-.18.044-.253.112-.25.318q.021,1.581,0,3.162c0,.234.078.307.287.357,1.221.294,2.437.609,3.659.9a.9.9,0,0,1,.727.682,10.281,10.281,0,0,0,.912,2.212.875.875,0,0,1-.035.964c-.656,1.072-1.294,2.155-1.95,3.228-.112.183-.123.292.045.455q1.122,1.089,2.21,2.212c.178.185.293.16.484.044,1.082-.661,2.175-1.306,3.259-1.965a.807.807,0,0,1,.872-.031,10.876,10.876,0,0,0,2.242.929.917.917,0,0,1,.7.751c.288,1.223.6,2.44.9,3.661a.288.288,0,0,0,.34.265c1.042-.014,2.085-.018,3.127,0,.253,0,.325-.086.378-.3.295-1.222.609-2.439.9-3.661a.872.872,0,0,1,.662-.7,10.136,10.136,0,0,0,2.212-.911.894.894,0,0,1,.994.039c1.052.647,2.121,1.264,3.17,1.914.226.14.348.139.536-.055q1.063-1.1,2.163-2.162a.319.319,0,0,0,.066-.482c-.659-1.07-1.3-2.155-1.952-3.227a.873.873,0,0,1-.032-.964,10.041,10.041,0,0,0,.9-2.18.935.935,0,0,1,.773-.719c1.223-.285,2.439-.6,3.659-.9a.271.271,0,0,0,.249-.32q-.02-1.581,0-3.162a.3.3,0,0,0-.283-.363c-1.222-.29-2.438-.605-3.659-.9a.9.9,0,0,1-.729-.68,10.277,10.277,0,0,0-.912-2.212.873.873,0,0,1,.034-.964c.657-1.072,1.3-2.153,1.946-3.231.046-.077.089-.157.14-.247" transform="translate(0 0)" fill="#6002ee"/>
        <path id="Path_3455" data-name="Path 3455" d="M99.082,89.794a9.358,9.358,0,0,1,9.281,8.407,9.23,9.23,0,0,1-.556,4.247.688.688,0,1,1-1.283-.48,9.132,9.132,0,0,0,.469-2,7.981,7.981,0,1,0-4.334,6.285.739.739,0,0,1,.838.017.654.654,0,0,1,.248.7.736.736,0,0,1-.465.511,9.36,9.36,0,0,1-13.467-7.059,9.345,9.345,0,0,1,9.268-10.634" transform="translate(-81.466 -81.544)" fill="#6002ee"/>
        <path id="Path_3456" data-name="Path 3456" d="M255.109,246.94a.687.687,0,1,1-.7.656.693.693,0,0,1,.7-.656" transform="translate(-231.035 -224.252)" fill="#6002ee"/>
      </g>
    </g>
  </g>
</svg>
