<svg xmlns="http://www.w3.org/2000/svg" xmlns:xlink="http://www.w3.org/1999/xlink" width="47.705" height="62" viewBox="0 0 47.705 62">
  <defs>
    <clipPath id="clip-path">
      <rect id="Rectangle_1875" data-name="Rectangle 1875" width="47.705" height="62" fill="#5fc095"/>
    </clipPath>
  </defs>
  <g id="Group_5766" data-name="Group 5766" transform="translate(-1052 -10535)">
    <path id="Path_3466" data-name="Path 3466" d="M1053.979,10547.358s2.79-2.092,3.686-2.092,4.882.8,4.882.8l2.092-.8,4.882-3.089,3.089-4.783,3.886-1.095,4.882,2.988,1,2.192,1.395,1.594,3.089,2.192h1.993l2.192.8h5.38l1.594,1.295.6,6.377-.6,38.457-.9,2.989-5.281.8h-36.366l-2.391-2.192v-46.429Z" fill="#e4fef1"/>
    <g id="Group_5763" data-name="Group 5763" transform="translate(-127 -25)">
      <g id="Group_5759" data-name="Group 5759" transform="translate(0 101)">
        <g id="Group_5765" data-name="Group 5765" transform="translate(1179 10459)">
          <g id="Group_5764" data-name="Group 5764" clip-path="url(#clip-path)">
            <path id="Path_3460" data-name="Path 3460" d="M24.821,0c.636.272,1.334.338,1.966.638a6.689,6.689,0,0,1,3.7,3.946A4.343,4.343,0,0,0,33.578,7.66,5.445,5.445,0,0,1,35.94,9.188a1.126,1.126,0,0,0,.9.369c1.917-.019,3.834-.013,5.751-.008A4.8,4.8,0,0,1,47.7,14.658q0,21.1,0,42.2A4.815,4.815,0,0,1,42.558,62Q23.85,62,5.143,62A4.814,4.814,0,0,1,0,56.85Q0,35.781,0,14.713A4.8,4.8,0,0,1,5.178,9.549c1.917,0,3.834-.006,5.751,0a.93.93,0,0,0,.751-.286,6.661,6.661,0,0,1,2.846-1.762A3.692,3.692,0,0,0,17.04,5.027,7.027,7.027,0,0,1,22.3.187c.119-.03.3,0,.345-.187ZM2.4,35.716q0,10.592,0,21.185a2.39,2.39,0,0,0,2.662,2.7q18.794,0,37.588,0a3.062,3.062,0,0,0,.956-.1A2.4,2.4,0,0,0,45.3,56.886q0-17.1,0-34.2c0-2.744.007-5.488,0-8.232a2.294,2.294,0,0,0-2.3-2.5c-1.631-.069-3.267-.019-4.9-.033-.371,0-.318.167-.24.417a8.417,8.417,0,0,1,.295,2.573c-.008,1.17-.039,2.342.014,3.51.026.583-.179.675-.7.674q-13.619-.023-27.237-.011a1.682,1.682,0,0,0-.242,0c-.343.05-.45-.089-.441-.435.022-.928.005-1.856.008-2.784a11.174,11.174,0,0,1,.282-3.481c.133-.411.013-.472-.366-.467-1.412.017-2.826.05-4.236,0a2.586,2.586,0,0,0-2.851,2.863c.055,6.98.022,13.961.022,20.942M23.825,16.7c3.812,0,7.625,0,11.437.007.371,0,.548-.06.519-.486-.039-.562,0-1.129-.011-1.694A4.773,4.773,0,0,0,32.4,9.753a8.108,8.108,0,0,1-1.586-.724A6.478,6.478,0,0,1,28.3,5.517a4.444,4.444,0,0,0-3.909-3.073,4.565,4.565,0,0,0-4.7,2.416,3.27,3.27,0,0,0-.319.713A6.092,6.092,0,0,1,15.14,9.83a4.527,4.527,0,0,0-3.105,3.558,16.423,16.423,0,0,0-.112,2.654c-.028.511.088.676.646.672,3.751-.03,7.5-.016,11.256-.016" transform="translate(0)" fill="#5fc095"/>
            <path id="Path_3461" data-name="Path 3461" d="M65,142.309c-4.558,0-9.116-.006-13.674.01-.427,0-.63-.061-.569-.546.075-.594-.25-1.394.126-1.736.324-.295,1.11-.091,1.691-.091q13.069,0,26.139-.013c.5,0,.73.076.662.639s.168,1.3-.115,1.629-1.058.1-1.615.1q-6.323.012-12.646,0" transform="translate(-41.208 -113.705)" fill="#5fc095"/>
            <path id="Path_3462" data-name="Path 3462" d="M65.24,178.124c4.538,0,9.076.008,13.614-.011.478,0,.7.071.631.606-.076.573.242,1.346-.123,1.678-.313.285-1.07.09-1.632.09q-13.1,0-26.2.012c-.5,0-.734-.068-.665-.637s-.169-1.3.114-1.63,1.057-.1,1.614-.1q6.323-.012,12.646,0" transform="translate(-41.325 -144.73)" fill="#5fc095"/>
            <path id="Path_3463" data-name="Path 3463" d="M65.146,216.352c4.559,0,9.118.012,13.677-.016.56,0,.686.163.634.668a6.012,6.012,0,0,0,0,1.209c.044.44-.127.521-.537.519-4.4-.015-8.8-.009-13.193-.009-4.741,0-9.482-.007-14.222.011-.494,0-.737-.063-.667-.636.067-.554-.179-1.315.106-1.63.33-.365,1.1-.108,1.675-.109q6.264-.015,12.528-.005" transform="translate(-41.297 -175.803)" fill="#5fc095"/>
            <path id="Path_3464" data-name="Path 3464" d="M58.142,257.255c-2.218,0-4.436-.007-6.653.007-.374,0-.55-.064-.514-.491a10.916,10.916,0,0,0,0-1.511c-.019-.331.1-.4.41-.4q6.744.014,13.489,0c.363,0,.432.126.417.448-.029.623.211,1.44-.1,1.819-.322.395-1.172.114-1.79.12-1.754.016-3.508.005-5.262.005" transform="translate(-41.432 -207.174)" fill="#5fc095"/>
            <path id="Path_3465" data-name="Path 3465" d="M119.959,28.651a1.792,1.792,0,1,1-1.78,1.759,1.8,1.8,0,0,1,1.78-1.759" transform="translate(-96.066 -23.29)" fill="#5fc095"/>
          </g>
        </g>
      </g>
    </g>
  </g>
</svg>
