<?xml version="1.0" encoding="utf-8"?>
<!-- Generator: Adobe Illustrator 26.0.0, SVG Export Plug-In . SVG Version: 6.00 Build 0)  -->
<svg version="1.1" id="Layer_1" xmlns="http://www.w3.org/2000/svg" xmlns:xlink="http://www.w3.org/1999/xlink" x="0px" y="0px"
	 viewBox="0 0 402.07 402.11" style="enable-background:new 0 0 402.07 402.11;" xml:space="preserve">
<style type="text/css">
	.st0{fill:#009B8C;}
	.st1{fill:#ABDBD5;}
	.st2{fill:#8FBCE3;}
</style>
<g>
	<path class="st0" d="M61.16,402.09c-14.7,0-29.41,0.03-44.11-0.01c-10.82-0.03-16.97-6.22-17-17.12
		C0.01,367.26,0.11,349.55,0,331.85c-0.03-5.73,1.93-10.28,5.97-14.37c41.75-42.32,83.38-84.75,125.17-127.03
		c2.98-3.01,3.44-5.3,2.06-9.37C106.59,103.02,156.25,18,237.3,2.55C312.05-11.69,382.62,34.98,399,109.5
		c16.34,74.35-34.43,150.24-109.39,163.75c-18.14,3.27-36.14,3.28-54.1-0.76c-3.17-0.71-4.35-0.15-4,3.23
		c0.24,2.35,0.07,4.74,0.04,7.11c-0.12,10.38-6.08,16.39-16.58,16.48c-12.49,0.1-24.98,0.17-37.47-0.07
		c-3.78-0.07-5.16,0.64-5.02,4.8c0.34,10.42,0.14,20.87,0.1,31.3c-0.04,10.45-6.03,16.53-16.38,16.59
		c-9.8,0.05-19.61,0.2-29.41-0.08c-3.68-0.1-4.48,1.08-4.39,4.54c0.23,9.8,0.14,19.6,0.06,29.4c-0.09,10.14-6.15,16.25-16.23,16.3
		C91.21,402.15,76.18,402.09,61.16,402.09z M323.44,49.08l0.05,0.06c0.3-0.93-0.44-1.14-1.01-1.47c-4.52-3.49-9.62-5.99-14.81-8.24
		c-21.56-9.37-43.81-12.03-66.84-6.55c-0.63,0.08-1.27,0.1-1.88,0.23c-44.79,9.45-81.2,53.27-82.5,99.16
		c-0.46,16.15,1.91,31.77,8.05,46.77c4.09,9.98,2.45,18.51-5.46,26.28c-14.88,14.62-29.44,29.56-43.96,44.55
		c-10.85,11.21-22.25,21.88-32.55,33.62c-1.46,2.78-4.49,3.84-6.57,5.97c-14.35,14.71-28.75,29.39-43.19,44.01
		c-1.65,1.67-2.56,3.31-2.52,5.77c0.14,9.49,0.15,18.97,0,28.46c-0.05,2.94,0.57,4.14,3.86,4.11c18.03-0.16,36.05-0.17,54.08,0
		c3.51,0.03,4.16-1.27,4.1-4.4c-0.17-9.33-0.12-18.66-0.05-27.99c0.09-11.91,5.95-17.74,17.84-17.8c9.33-0.04,18.66-0.14,27.99,0.06
		c3.28,0.07,4.35-0.83,4.28-4.21c-0.21-10.59-0.12-21.19-0.06-31.78c0.06-10.45,6.07-16.51,16.45-16.56
		c12.49-0.06,24.99-0.22,37.47,0.09c4.37,0.11,5.46-1.34,5.14-5.38c-0.33-4.08-0.22-8.22-0.03-12.33
		c0.37-7.99,4.82-13.63,11.84-15.24c4.22-0.97,8.06,0.38,11.96,1.85c23.68,8.9,47.59,10.09,71.72,1.83
		c0.62-0.11,1.28-0.11,1.86-0.33c40.34-15.26,65.35-44.01,71.57-86.63c6.08-41.68-9.27-75.81-42.48-101.79
		c-0.91-0.71-1.71-1.96-3.22-1.39l-0.1,0.24C324.87,48.96,324.31,48.86,323.44,49.08z"/>
	<path class="st1" d="M296.83,239.97c-24.13,8.26-48.04,7.07-71.72-1.83c-3.9-1.46-7.74-2.81-11.96-1.85
		c-7.01,1.61-11.46,7.24-11.84,15.24c-0.19,4.1-0.3,8.24,0.03,12.33c0.32,4.04-0.77,5.49-5.14,5.38
		c-12.48-0.32-24.98-0.15-37.47-0.09c-10.38,0.05-16.39,6.11-16.45,16.56c-0.06,10.59-0.15,21.19,0.06,31.78
		c0.07,3.38-1,4.28-4.28,4.21c-9.33-0.2-18.66-0.1-27.99-0.06c-11.89,0.05-17.75,5.88-17.84,17.8c-0.07,9.33-0.12,18.66,0.05,27.99
		c0.06,3.12-0.59,4.43-4.1,4.4c-18.03-0.17-36.05-0.16-54.08,0c-3.29,0.03-3.9-1.17-3.86-4.11c0.16-9.48,0.14-18.97,0-28.46
		c-0.04-2.46,0.87-4.09,2.52-5.77c14.44-14.62,28.84-29.3,43.19-44.01c2.08-2.13,5.11-3.18,6.57-5.97c1.77,0.27,2.88-0.83,4.16-1.82
		c27.73-21.47,55.45-42.96,83.29-64.3c7.07-5.42,13.93-10.69,16.31-20c2.21-8.67-0.17-16.79-2.28-24.93
		c-3.47-13.38-7.53-26.69-8.47-40.53c-1.65-24.28,7-45.04,23.15-62.88c12.25-13.53,26.48-24.67,41.85-34.43
		c0.53-0.33,2.91-0.73,0.28-1.73c23.03-5.48,45.28-2.82,66.84,6.55c5.19,2.26,10.29,4.75,14.81,8.24c0.34,0.49,0.68,0.98,1.01,1.47
		c0,0-0.05-0.06-0.05-0.06c0.34,0.33,0.68,0.66,1.02,0.99c0,0,0.1-0.24,0.1-0.24c-0.32,1.24,0.36,2.08,1.09,2.95
		c4.48,5.29,8.57,10.86,12.07,16.86c14.43,24.77,21.54,51.09,17.07,79.88c-5.1,32.9-23.06,58.27-46.95,80.21
		C304.15,233.12,299.85,235.86,296.83,239.97z M290.02,57.2c-30.57,0.43-54.44,24.8-54.15,55.27c0.29,30.13,24.94,54.45,54.88,54.17
		c30-0.28,54.75-25.47,54.42-55.39C344.85,81.43,319.7,56.78,290.02,57.2z"/>
	<path class="st1" d="M240.82,32.89c2.62,1,0.24,1.39-0.28,1.73c-15.37,9.75-29.6,20.9-41.85,34.43
		c-16.15,17.83-24.8,38.6-23.15,62.88c0.94,13.84,4.99,27.15,8.47,40.53c2.11,8.15,4.5,16.26,2.28,24.93
		c-2.38,9.31-9.24,14.57-16.31,20c-27.84,21.34-55.56,42.83-83.29,64.3c-1.28,0.99-2.38,2.09-4.16,1.82
		c10.3-11.73,21.7-22.41,32.55-33.62c14.51-14.99,29.07-29.93,43.96-44.55c7.92-7.77,9.55-16.3,5.46-26.28
		c-6.14-15-8.51-30.62-8.05-46.77c1.29-45.89,37.71-89.71,82.5-99.16C239.55,32.99,240.19,32.96,240.82,32.89z"/>
	<path class="st1" d="M296.83,239.97c3.02-4.11,7.31-6.85,11-10.24c23.89-21.94,41.85-47.3,46.95-80.21
		c4.47-28.79-2.65-55.12-17.07-79.88c-3.5-6-7.58-11.57-12.07-16.86c-0.74-0.87-1.42-1.71-1.09-2.95c1.52-0.57,2.32,0.68,3.22,1.39
		c33.21,25.98,48.56,60.11,42.48,101.79c-6.22,42.62-31.23,71.37-71.57,86.63C298.11,239.86,297.45,239.86,296.83,239.97z"/>
	<path class="st2" d="M323.49,49.15c-0.34-0.49-0.68-0.98-1.01-1.47C323.04,48.01,323.78,48.22,323.49,49.15z"/>
	<path class="st2" d="M324.45,50.07c-0.34-0.33-0.68-0.66-1.02-0.99C324.31,48.86,324.87,48.96,324.45,50.07z"/>
	<path class="st0" d="M290.02,57.2c29.68-0.41,54.83,24.23,55.15,54.06c0.33,29.92-24.42,55.11-54.42,55.39
		c-29.94,0.28-54.59-24.05-54.88-54.17C235.58,81.99,259.45,57.62,290.02,57.2z M304.37,131.57c9.83-6.58,13.28-19.09,8.26-29.95
		c-5-10.81-17.09-16.51-28.19-13.27c-10.29,2.62-16.86,10.08-18.39,20.9c-1.28,9.02,3.51,18.64,11.77,23.6
		C286.36,137.99,296.49,137.5,304.37,131.57z"/>
</g>
</svg>
