<?xml version="1.0" encoding="utf-8"?>
<!-- Generator: Adobe Illustrator 26.0.0, SVG Export Plug-In . SVG Version: 6.00 Build 0)  -->
<svg version="1.1" id="Group_5753" xmlns="http://www.w3.org/2000/svg" xmlns:xlink="http://www.w3.org/1999/xlink" x="0px" y="0px"
	 viewBox="0 0 62 62" style="enable-background:new 0 0 62 62;" xml:space="preserve">
<style type="text/css">
	.st0{fill:#C9F0BF;}
	.st1{fill:none;stroke:#00B900;stroke-width:1.5;}
	.st2{fill:#00B900;}
</style>
<g>
	<g id="Ellipse_3">
		<circle class="st0" cx="31" cy="31" r="31"/>
		<circle class="st1" cx="31" cy="31" r="30.2"/>
	</g>
	<g>
		<path class="st2" d="M12.9,41.1c0.2-0.4,0.5-0.7,0.8-1.1c3.8-3.8,7.6-7.6,11.5-11.5c0.2-0.2,0.3-0.4,0.1-0.6
			c-0.3-0.6-0.6-1.2-0.9-1.8c-0.8-2.3-0.3-4.4,1.3-6.1c1.8-1.8,3.6-3.6,5.4-5.4c1.2-1.2,2.7-1.8,4.4-1.7c0.6,0,1.1,0.2,1.7,0.4
			c2.4,0.9,4.6,2.2,6.5,4c2,1.9,3.5,4.2,4.6,6.8c0.3,0.8,0.6,1.5,0.6,2.3c0.1,1.6-0.5,3.1-1.6,4.2c-1.9,1.9-3.9,3.9-5.8,5.8
			c-1.2,1.1-2.7,1.6-4.3,1.5c-0.6,0-1.2-0.2-1.8-0.4c-1-0.4-1.9-0.9-2.8-1.4c-0.7-0.4-1-1.2-0.6-1.9c0.4-0.7,1.2-0.9,1.9-0.5
			c0.8,0.4,1.5,0.8,2.3,1.2c1.3,0.6,2.4,0.4,3.5-0.6c1.8-1.8,3.6-3.6,5.4-5.3c1-1,1.2-2.1,0.6-3.4c-0.8-1.9-1.8-3.7-3.2-5.2
			c-1.7-1.9-3.8-3.2-6.1-4.1c-1.5-0.6-2.5-0.4-3.6,0.7c-1.7,1.7-3.4,3.4-5.1,5.1c-1.1,1.1-1.3,2.2-0.6,3.7c0.3,0.7,0.7,1.4,1.1,2.1
			c0.4,0.8,0.4,1.4-0.3,2c-4,4-8.1,8.1-12.1,12.1c-0.2,0.2-0.3,0.4-0.3,0.6c0,1.2,0,2.3,0,3.5c0,0.3,0.1,0.4,0.4,0.4
			c0.9,0,1.8,0,2.7,0c0.3,0,0.3,0,0.3-0.3c0-0.7,0-1.5,0-2.2c0-0.8,0.6-1.4,1.4-1.4c0.7,0,1.5,0,2.2,0c0.3,0,0.3-0.1,0.3-0.3
			c0-0.7,0-1.5,0-2.2c0-0.9,0.6-1.4,1.4-1.5c1.3,0,2.6,0,3.9,0c0.8,0,1.4,0.6,1.4,1.4c0,0.8-0.6,1.4-1.4,1.4c-0.8,0-1.5,0-2.3,0
			c-0.2,0-0.3,0-0.3,0.2c0,0.8,0,1.5,0,2.3c0,0.8-0.6,1.4-1.4,1.4c-0.7,0-1.5,0-2.2,0c-0.3,0-0.3,0-0.3,0.3c0,0.6,0,1.2,0,1.9
			c0,0.8-0.1,1.4-1.1,1.8c-2.3,0-4.6,0-6.8,0c-0.5-0.2-0.9-0.6-1.1-1.1C12.9,45.6,12.9,43.4,12.9,41.1z"/>
		<path class="st2" d="M38.6,25.1c-1.3,0-2.3-1-2.3-2.2c0-1.2,1-2.3,2.2-2.3c1.2,0,2.3,1,2.3,2.2C40.9,24.1,39.9,25.1,38.6,25.1z"/>
	</g>
</g>
</svg>
