<?xml version="1.0" encoding="utf-8"?>
<!-- Generator: Adobe Illustrator 27.0.0, SVG Export Plug-In . SVG Version: 6.00 Build 0)  -->
<svg version="1.1" id="Layer_1" xmlns="http://www.w3.org/2000/svg" xmlns:xlink="http://www.w3.org/1999/xlink" x="0px" y="0px"
	 viewBox="0 0 435.32 451" style="enable-background:new 0 0 435.32 451;" xml:space="preserve">
<style type="text/css">
	.st0{fill:#727373;stroke:#FFFFFF;stroke-width:9;stroke-miterlimit:10;}
</style>
<g>
	<path class="st0" d="M211.25,207.02c-8.1,17.33-15.12,32.69-22.47,47.89c-2.99,6.19,2.11,6.35,5.24,7.62
		c11.82,4.78,23.66,9.52,35.65,13.85c24.27,8.78,37.13,25.22,39.92,51.52c2.97,28.07,7.25,56.03,8.97,84.24
		c1.15,18.82-10.34,32.96-26.99,34.25c-18.7,1.45-31.89-10.37-33.79-30.13c-2.26-23.51-4.69-47-6.92-70.51
		c-0.78-8.25-3.26-14.13-12.54-16.77c-12.51-3.55-24.52-8.88-38.36-14.05c2.31,13.05,7.89,23.08,12.08,33.53
		c8.75,21.81,3.29,36.86-17.77,46.57c-34.41,15.87-68.87,31.63-103.38,47.26c-18.43,8.35-35.84,2.8-43.32-13.45
		c-7.61-16.52-0.75-33.33,17.51-41.92c23.79-11.19,47.6-22.34,71.66-32.93c7.05-3.1,8.91-5.8,6.06-13.65
		c-10.09-27.76-17.6-56.19-14.99-86.2c4.57-52.62,26.47-97.41,63.08-134.87c14.93-15.28,34.38-15.79,55.67-4.04
		c14.34,7.92,24.34,20.17,32.89,33.75c8.07,12.8,14.83,26.31,20.16,40.44c8.11,21.51,28.68,26.7,46.08,36.1
		c0.62,0.33,1.72,0.51,2.24,0.19c7.21-4.48,9.62-12.7,14.58-18.95c4.86-6.13,7.97-11.04,1.67-19.76
		c-14.45-20.01-14.82-42.07-1.8-63.21c12.7-20.62,32.08-30.51,56.05-27.87c24.32,2.67,41.58,16.18,49.38,39.91
		c14.08,42.84-23.18,84.09-68.32,75.2c-7.59-1.49-11.39-0.41-14.74,6.08c-2.29,4.44-5.29,8.58-8.39,12.54
		c-3.7,4.72-4.46,8.43-0.73,14.21c5.69,8.82,4.77,18.55-1.64,27.16c-6.71,9.03-16.42,13.09-26.67,9.46
		c-29.31-10.39-57.38-23.37-79.57-46.25C220.88,227.16,216.83,218.36,211.25,207.02z M372.27,120.72
		c-18.7,0.03-33.73,15.26-33.55,34c0.18,18.05,15.17,33.22,33.16,33.56c18.07,0.34,34.25-15.49,34.42-33.7
		C406.48,136.26,390.84,120.69,372.27,120.72z"/>
	<path class="st0" d="M243.21,113.57c-29.89-0.18-54.44-25.13-54.23-55.11C189.2,28.23,213.47,4.4,243.94,4.5
		c30.18,0.1,54.7,24.75,54.37,54.68C297.99,89.05,272.97,113.75,243.21,113.57z"/>
</g>
</svg>
