<?xml version="1.0" encoding="utf-8"?>
<!-- Generator: Adobe Illustrator 26.0.0, SVG Export Plug-In . SVG Version: 6.00 Build 0)  -->
<svg version="1.1" id="Layer_1" xmlns="http://www.w3.org/2000/svg" xmlns:xlink="http://www.w3.org/1999/xlink" x="0px" y="0px"
	 viewBox="0 0 381.89 380.77" style="enable-background:new 0 0 381.89 380.77;" xml:space="preserve">
<style type="text/css">
	.st0{fill:#F8F8F8;}
	.st1{fill:#E5E5E5;}
	.st2{fill:#EEEEEE;}
	.st3{fill:#B1B1B1;}
	.st4{fill:#C9C9C9;}
	.st5{fill:#FC6060;}
	.st6{fill:#AFAFAF;}
	.st7{fill:#E4E4E4;}
	.st8{fill:#B2B2B2;}
	.st9{fill:#F6F6F6;}
	.st10{fill:#E3E3E3;}
	.st11{fill:#F7F7F7;}
	.st12{fill:#E2E2E2;}
	.st13{fill:#FBFBFB;}
	.st14{fill:#FDFDFD;}
</style>
<g>
	<path class="st0" d="M363.78,112.6c-10.81,10.81-26.86,17.45-42.14,17.45c-16.15,0-30.48-6.75-42.14-17.45
		c-11.7-10.74-16.76-26.73-17.45-42.14c-0.66-14.84,7.12-31.8,17.45-42.14c1.3-1.3,2.68-2.53,4.11-3.71
		C256.2,9.28,224.6,0.53,190.94,0.53c-105,0-190.12,85.12-190.12,190.12c0,105,85.12,190.12,190.12,190.12
		c105,0,190.12-85.12,190.12-190.12c0-27.98-6.04-54.54-16.9-78.46C364.04,112.32,363.91,112.47,363.78,112.6z"/>
	<g>
		<path class="st1" d="M381.89,203.19c-2.49,0.33-1.87,2.29-1.98,3.84c-1.47,19.88-6.36,38.92-14.12,57.24
			c-0.62,1.47-1.12,3.19-2.99,3.72c-1.95-2.43-3.54-5.32-5.92-7.19c-4.24-3.34-3.26-6.3-1.19-10.49c6.84-13.82,5.7-27.41-3.84-39.52
			c-3.97-5.05-6.68-9.15-2.7-15.31c1.06-1.63,0.73-4.16,1.04-6.28c10.57,0.01,21.13,0.02,31.7,0.03
			C381.89,193.88,381.89,198.54,381.89,203.19z"/>
		<path class="st2" d="M381.89,189.23c-10.57-0.01-21.13-0.02-31.7-0.03c0.5-11.34-4.2-20.09-13.28-26.66
			c4.42-8.45,10.82-14.52,20.52-16.01c6.23-0.96,12.43,0.06,18.47,1.83c2.32,8.88,3.66,17.91,4,27.09c0.06,1.56-0.47,3.48,1.98,3.81
			C381.89,182.58,381.89,185.91,381.89,189.23z"/>
		<path class="st1" d="M375.9,148.36c-6.04-1.77-12.25-2.79-18.47-1.83c-9.7,1.49-16.1,7.56-20.52,16.01
			c-4.34-1.58-8.45-3.82-13.21-4.14c-21.87-1.47-38.09,21.42-28.5,40.92c1.66,3.38,1.36,5.25-1.36,7.92
			c-11.26,11.02-14.33,28.71-6.93,42.66c2.68,5.06,3.12,8.33-1.68,11.9c-1.77,1.32-2.93,3.58-4.12,5.56
			c-10.5,17.43-10.12,34.84,0.57,52c1.85,2.97,1.79,3.75-1.77,4.91c-9.14,2.97-15.2,9.29-17.38,18.8c-0.59,2.57-1.55,3.66-4.21,3.76
			c-2.96,0.11-3.57-1.67-4.09-3.94c-1.91-8.38-3.91-16.74-5.8-25.13c-0.44-1.95-0.17-3.75,0.85-5.7c2.46-4.71,1.28-8.43-3.41-10.99
			c-1.85-1.01-2-2.63-2.34-4.09c-4.07-17.22-8.08-34.45-11.94-51.72c-0.88-3.93-1.92-7.77,0.23-12.04c1.31-2.61,1.81-7.12-2.21-8.64
			c-3.01-1.13-3.55-3.24-4.09-5.57c-3.22-14.02-6.26-28.08-9.56-42.08c-0.56-2.37-0.36-3.75,1.45-5.61
			c3.48-3.56,2.55-10.37-1.37-10.71c-4.19-0.37-4.69-2.8-5.33-5.76c-0.81-3.72-1.51-7.46-2.47-11.14c-0.82-3.11-0.98-5.76,0.59-8.99
			c3.13-6.46,0.28-10.29-6.83-10.34c-8.49-0.06-7.47,1-7.57-7.3c-0.08-6.29-0.78-12.14,6.11-16.6c5.42-3.51,4.04-12.19-1.28-16.48
			c-5.09-4.11-12.68-2.69-16.46,3.08c-3.69,5.63-2.24,12.82,3.66,15.73c3.2,1.58,4.48,3.48,4.05,6.9c-0.21,1.63-0.02,3.32-0.04,4.98
			c-0.09,10.9,1.19,9.62-9.44,9.7c-5.97,0.04-9.64,5.49-5.84,10.11c3.25,3.95,1.72,6.95,1.02,10.48c-0.71,3.56-1.87,7.05-2.43,10.63
			c-0.4,2.55-1.54,3.81-4,4.26c-2.55,0.47-4.96,1.37-5.07,4.52c-0.11,3.09-0.8,6.54,3.29,7.92c2.22,0.75,1.26,2.22,0.93,3.65
			c-2.84,12.41-5.65,24.83-8.46,37.25c-0.48-0.11-1-0.14-1.45-0.33c-11.58-4.91-17.61-3.46-25.97,6.3c-1.13,1.32-2.25,2-4.26,1.62
			c-5.55-1.04-10.51,1.56-13.1,6.43c-3.58,6.73-0.58,11.86,6.92,11.88c10.42,0.03,20.84,0.08,31.26,0.13
			c-3.31,20.07-8.94,39.62-13.15,59.49c-0.27,1.27-0.85,1.84-2.12,2.33c-5.28,2.03-6.78,6.98-3.47,11.59
			c1.04,1.44,1.8,2.67,1.37,4.48c-4,16.87-7.97,33.75-11.95,50.63c-10.48-2.79-20.58-6.35-28.83-13.8c0.39-0.32,0.75-0.67,1.16-0.94
			c19.43-12.69,21.24-40.45,4.95-54.54c-2.17-1.88-2.09-3.59-0.95-6.07c4.67-10.15,3.56-19.86-3.79-28.24
			c-2.79-3.18-3.46-5.6-2.18-9.62c2.48-7.78,0.46-14.85-5.7-20.3c-6.66-5.91-14.29-6.52-22.27-2.92
			c-6.48,2.93-12.74,11.81-10.59,18.61c2.71,8.57,0.87,15.04-4.06,21.59c-0.88,1.17-0.57,4.03-2.91,3
			c-2.46-1.08-0.17-2.84,0.38-4.12c2.8-6.6,0.77-14.61-4.75-18.22c-6.46-4.23-15.06-3.2-19.84,2.38c-4.65,5.43-4.6,14.07,0.62,19.55
			c2.92,3.07,2.65,4.98-0.86,6.87c-4.7-2.42-5.62-7.45-7.53-11.58c-8.46-18.28-13.67-37.59-16.12-57.54
			c-2.49-20.33-1.26-40.58,2.97-60.63c6.15-29.17,18.25-55.63,36.91-78.87c15.27-19,33.3-34.95,54.57-47.14
			c18.41-10.55,37.97-18.02,58.8-21.75c16.25-2.91,32.57-4.28,49.27-2.92c20.17,1.64,39.5,5.96,58.2,13.35
			c11.72,4.63,22.81,10.54,33.33,17.52c2.6,1.72,2.9,2.92,1.22,5.87c-14.01,24.5,0.37,53.99,26.36,59.76
			c8.94,1.98,18.59,1.6,27.11-3.26c2.42-1.38,3.7-1.38,5.17,1.13C364.94,111.61,371.89,129.41,375.9,148.36z M56.27,167.3
			c12.1,0,24.21-0.09,36.31,0.07c2.85,0.04,4.19-0.92,4.91-3.6c3.67-13.76-8.84-28.47-22.84-26.13c-4.15,0.69-5.35-0.65-7.14-3.68
			c-7.25-12.25-19.07-16.53-29.08-15.27c-18.93,2.4-29.66,16.91-27.33,36.74c1.02,8.73,4.66,11.87,13.34,11.87
			C35.04,167.3,45.66,167.3,56.27,167.3z M269.35,91.77c0.41-2.07-0.79-5.63-1.23-9.22c-1.25-10.15-4.64-19.62-9.94-28.38
			c-0.8-1.32-1.64-3.36-3.77-1.87c-1.6,1.12-0.8,2.5-0.01,3.92c13.18,23.65,13.84,47.53,1.29,71.66c-0.83,1.6-2.78,3.81-0.17,5.09
			c2.03,0.99,2.99-1.44,3.88-2.98C266.01,118.69,268.38,106.26,269.35,91.77z M128.26,53.75c-2.09,0.36-2.53,1.92-3.2,3.21
			c-4.55,8.73-7.55,17.83-8.69,27.76c-1.87,16.24,1.47,31.22,8.97,45.46c0.7,1.34,1.42,4.09,3.87,2.74c2.73-1.51,0.6-3.31-0.27-4.99
			c-7.74-14.82-10.46-30.42-7.65-47.02c1.4-8.27,4.04-16,8.23-23.24c0.56-0.96,1.35-2.07,0.2-3.15
			C129.26,54.11,128.6,53.93,128.26,53.75z M135.65,92.96c0.03,10.35,2.26,19.1,7.07,27.59c0.8,1.4,1.43,3.52,3.54,2.59
			c2.55-1.13,0.9-3.04,0.26-4.64c-0.18-0.46-0.45-0.89-0.68-1.33c-8.89-17.56-7.91-34.72,2.01-51.55c0.78-1.32,2.48-2.91,0.51-4.32
			c-2.23-1.58-3.14,0.53-4.13,2.06C138.4,72.37,135.6,82.25,135.65,92.96z M249.33,93.85c-0.4-10.61-2.48-20.52-8.16-29.44
			c-0.89-1.39-2-2.41-3.64-1.26c-1.49,1.04-0.69,2.37-0.03,3.52c9.76,17.06,9.47,34.28,0.96,51.69c-0.74,1.52-2.43,3.58-0.12,4.73
			c2.11,1.04,3.11-1.29,3.94-2.83C246.76,111.95,248.95,103.04,249.33,93.85z M228.35,94.11c0.19-8.15-1.98-14.99-6.26-21.14
			c-0.77-1.11-1.84-2.82-3.59-1.56c-1.6,1.15-0.75,2.52,0.11,3.89c7,11.21,7.52,22.61,0.9,34.2c-0.82,1.44-1.92,3.24,0.16,4.3
			c2.06,1.05,2.91-1.04,3.64-2.39C226.33,105.84,228.83,100.08,228.35,94.11z M156.61,92.8c-0.4,6.47,1.2,12.49,4.34,18.09
			c0.79,1.4,1.93,3.26,3.83,2.1c1.56-0.95,0.65-2.67-0.05-4.01c-5.44-10.6-6.02-21.14,0.22-31.67c0.78-1.31,1.29-3.17-0.12-4.09
			c-2.04-1.33-2.84,0.77-3.66,2.13C157.94,80.71,156.23,86.49,156.61,92.8z M283.08,187.34c2.13-0.87,6.36,1.51,6.37-2.25
			c0.01-3.11-4.05-1.34-6.28-1.84c-0.16-0.04-0.35-0.05-0.49,0c-2.03,0.78-6.01-1.74-5.94,1.93
			C276.8,188.52,280.75,186.7,283.08,187.34z"/>
		<path class="st3" d="M160.45,213.18c2.82-12.42,5.62-24.84,8.46-37.25c0.33-1.43,1.29-2.9-0.93-3.65
			c-4.09-1.38-3.39-4.83-3.29-7.92c0.11-3.16,2.52-4.05,5.07-4.52c2.46-0.45,3.6-1.71,4-4.26c0.56-3.58,1.72-7.06,2.43-10.63
			c0.7-3.52,2.23-6.53-1.02-10.48c-3.8-4.62-0.13-10.06,5.84-10.11c10.64-0.07,9.36,1.2,9.44-9.7c0.01-1.66-0.17-3.34,0.04-4.98
			c0.43-3.42-0.85-5.32-4.05-6.9c-5.9-2.92-7.35-10.11-3.66-15.73c3.78-5.77,11.37-7.19,16.46-3.08c5.31,4.29,6.7,12.96,1.28,16.48
			c-6.89,4.47-6.19,10.32-6.11,16.6c0.1,8.31-0.91,7.24,7.57,7.3c7.11,0.05,9.96,3.89,6.83,10.34c-1.56,3.23-1.4,5.88-0.59,8.99
			c0.96,3.68,1.67,7.42,2.47,11.14c0.64,2.96,1.15,5.39,5.33,5.76c3.92,0.35,4.85,7.15,1.37,10.71c-1.81,1.86-2.01,3.23-1.45,5.61
			c3.3,14,6.34,28.06,9.56,42.08c0.54,2.33,1.08,4.44,4.09,5.57c4.02,1.52,3.52,6.02,2.21,8.64c-2.15,4.27-1.11,8.11-0.23,12.04
			c3.86,17.27,7.87,34.5,11.94,51.72c0.34,1.46,0.5,3.08,2.34,4.09c4.69,2.56,5.87,6.29,3.41,10.99c-1.02,1.95-1.29,3.75-0.85,5.7
			c1.89,8.39,3.9,16.75,5.8,25.13c0.52,2.27,1.13,4.04,4.09,3.94c2.66-0.1,3.62-1.19,4.21-3.76c2.18-9.51,8.24-15.83,17.38-18.8
			c3.56-1.16,3.62-1.94,1.77-4.91c-10.69-17.16-11.07-34.56-0.57-52c1.19-1.98,2.35-4.24,4.12-5.56c4.8-3.57,4.37-6.84,1.68-11.9
			c-7.4-13.94-4.32-31.63,6.93-42.66c2.73-2.67,3.03-4.54,1.36-7.92c-9.59-19.5,6.64-42.38,28.5-40.92
			c4.75,0.32,8.87,2.56,13.21,4.14c9.08,6.57,13.77,15.32,13.28,26.66c-0.31,2.12,0.01,4.64-1.04,6.28
			c-3.98,6.16-1.27,10.27,2.7,15.31c9.53,12.11,10.67,25.7,3.84,39.52c-2.07,4.19-3.05,7.15,1.19,10.49
			c2.38,1.88,3.97,4.76,5.92,7.19c0.41,2.07,0.23,3.95-1.77,5.2c-2.36-5.62-6.03-10.34-10.69-14.11c-2.4-1.94-2.09-3.35-0.53-5.24
			c10.13-12.24,8.49-35.5-5.08-46.23c-3.25-2.57-3.24-4.08-1.34-7.37c5.71-9.89,4.98-19.73-1.91-28.78
			c-6.68-8.78-16.34-11.1-26.32-8.79c-16.66,3.86-24.39,22.86-15.65,37.9c1.77,3.05,1.41,4.62-0.92,6.68
			c-13.63,12.01-16.22,30.62-5.79,46.67c1.52,2.34,1.33,3.72-0.52,5.53c-2.48,2.42-5.1,4.82-7.07,7.65
			c-15.91,22.85-7.93,53.4,17.08,65.77c2.94,1.45,5.98,2.69,8.98,4.03c-7.78,7.87-17.26,13.39-26.69,18.89
			c-7.73,4.5-15.8,8.4-24.16,11.67c-3.13,1.23-4.56,1-5.38-2.8c-3.33-15.37-7.03-30.66-10.59-45.97c-0.22-0.97-0.37-1.95-0.64-2.9
			c-0.43-1.51-1.49-2.15-3.03-1.87c-1.94,0.35-1.65,1.9-1.38,3.14c1.13,5.17,2.4,10.32,3.6,15.48c2.64,11.29,5.25,22.58,7.91,33.86
			c0.59,2.5,0.68,4.43-2.51,5.35c-13.38,3.84-26.78,7.55-40.84,7.82c-0.51-4.58,0.2-8.91,2.41-13c0.5-0.93,1.68-1.79-0.35-3.12
			c-5.11-3.35-9.99-7.08-14.69-10.99c-2.27-1.89-3.8-1.85-6.01-0.09c-6.61,5.26-13.55,10.12-19.97,15.59
			c-3.6,3.07-8.34,4.91-10.68,9.41c-2.38,0.2-4.8,0.58-6.55-1.68c11.31-7.8,21.61-16.93,32.71-24.99c3.88-2.82,2.79-4.35-0.06-6.53
			c-10.51-8.06-21.03-16.09-31.47-24.23c-2.95-2.3-3.81-1.63-4.6,1.93c-3.76,16.94-7.83,33.81-11.79,50.71
			c-3.53,0.23-3.6-1.56-2.94-4.4c3.8-16.29,7.54-32.59,11.05-48.94c0.33-1.55,3.06-4.43-0.72-5.23c-3.07-0.65-3,2.34-3.46,4.37
			c-3.65,15.81-7.29,31.63-10.95,47.44c-0.33,1.41-0.31,3.16-2.03,3.69c-1.42,0.44-2.65,0.02-2.91-1.74
			c3.98-16.88,7.95-33.76,11.94-50.63c0.43-1.82-0.34-3.04-1.37-4.48c-3.31-4.62-1.81-9.56,3.47-11.59
			c1.27-0.49,1.86-1.06,2.12-2.33c4.2-19.87,9.84-39.42,13.14-59.49c1.06-1.24,0.68-2.08-0.35-3.33c-3.75-4.58-2.48-9.78,2.81-11.8
			c1.45-0.55,2.04-1.37,2.32-2.79C159.17,218.57,159.84,215.88,160.45,213.18z M230.98,300.99c-0.54-1.08-0.65-1.58-0.97-1.89
			c-12.1-11.84-24.25-23.63-36.31-35.51c-1.81-1.78-2.96-1.32-4.51,0.23c-11.15,11.16-22.36,22.27-33.54,33.41
			c-0.78,0.78-2.1,1.49-1.63,2.81c0.5,1.42,1.98,0.91,3.06,0.92C181.5,300.99,205.91,300.99,230.98,300.99z M152.36,313.99
			c1.52,1.41,2.17,2.12,2.93,2.7c10.75,8.26,21.66,16.33,32.19,24.87c3.34,2.7,5.64,2.5,8.65,0.07c6.04-4.89,12.34-9.46,18.27-14.48
			c5.06-4.28,10.86-7.73,15.92-13.16C204.16,313.99,178.84,313.99,152.36,313.99z M243.41,353.28c-0.03-0.6,0-0.94-0.07-1.26
			c-2.45-10.95-4.87-21.91-7.4-32.84c-0.65-2.79-2.04-2.15-3.86-0.71c-11.15,8.81-22.32,17.58-33.62,26.2
			c-2.72,2.07-2.39,3.58-0.06,5.4c4.3,3.35,8.66,6.62,12.87,10.08c1.26,1.04,1.94,1.21,3.29,0.11c7.45-6.07,15.66-8.36,24.9-4.37
			C242.5,357.22,243.34,355.71,243.41,353.28z M229.52,292.01c-0.83-3.69-1.46-6.54-2.1-9.37c-3.11-13.68-6.21-27.37-9.35-41.04
			c-0.59-2.58-1.28-4.64-4.25-1.55c-5.39,5.62-10.95,11.08-16.56,16.49c-1.86,1.8-1.92,3.09-0.01,4.87
			c3.63,3.4,7.08,6.99,10.61,10.49C214.64,278.61,221.21,285.55,229.52,292.01z M167.72,237.5c-4.23,18.31-8.19,35.44-12.48,54.01
			c11.37-10.94,21.7-20.9,32.04-30.84c1.19-1.15,1.21-2.19,0.02-3.39C181.01,250.96,174.75,244.61,167.72,237.5z M192.45,224.14
			c0-0.01,0-0.02,0-0.03c5.95,0,11.91,0.03,17.86-0.02c1.55-0.01,4.16,0.18,2.02-2.52c-5.95-7.48-12.09-14.82-18.19-22.18
			c-1.09-1.31-2.31-1.73-3.7-0.13c-5.95,6.85-12.06,13.57-17.91,20.5c-1.98,2.34-1.69,4.37,2.07,4.37
			C180.55,224.14,186.5,224.14,192.45,224.14z M192,309.88c16.75,0,33.5-0.02,50.25,0.02c2.42,0.01,4.58-0.17,3.81-3.4
			c-0.55-2.31-2.68-1.5-4.19-1.5c-33.17-0.04-66.33-0.05-99.5,0.01c-1.88,0-4.79-1.08-4.64,2.61c0.13,3.3,2.8,2.21,4.52,2.22
			C158.84,309.91,175.42,309.88,192,309.88z M211.81,236.14c-13.06,0-24.77-0.01-36.47,0.01c-0.79,0-1.79-0.24-2.22,0.65
			c-0.57,1.16,0.49,1.8,1.16,2.44c5.14,4.9,10.34,9.74,15.46,14.66c1.75,1.68,3.16,1.23,4.67-0.29
			C199.86,248.1,205.35,242.61,211.81,236.14z M191.47,232.95c10.78,0,21.56,0.04,32.33-0.04c1.76-0.01,4.34,0.97,4.45-2.32
			c0.11-3.27-2.4-2.54-4.24-2.55c-21.39-0.03-42.78-0.03-64.17,0c-1.84,0-4.35-0.71-4.2,2.58c0.15,3.27,2.73,2.28,4.49,2.29
			C170.58,232.99,181.02,232.95,191.47,232.95z M223.32,236.21c-4-0.22-2.15,2.48-1.81,4c4.06,17.91,8.22,35.81,12.37,53.7
			c0.45,1.93,0.97,3.86,1.5,5.77c0.5,1.81,1.91,2.25,3.51,1.89c1.94-0.43,1.39-1.93,1.09-3.2c-4.53-19.68-9.09-39.34-13.58-59.03
			C225.99,237.55,225.48,236.14,223.32,236.21z M144.69,298.29c-0.05,1.47-0.46,3.01,1.44,3.31c2.3,0.36,3.12-0.93,3.59-3.05
			c2.08-9.35,4.33-18.67,6.51-28c2.33-9.98,4.66-19.95,6.93-29.94c0.33-1.47,1.45-3.48-0.89-4.22c-2.57-0.81-3.53,0.95-3.94,3.17
			c-0.12,0.65-0.42,1.26-0.57,1.9c-3.15,13.69-6.28,27.38-9.43,41.06C147.12,287.84,145.88,293.15,144.69,298.29z M222.24,221.55
			c-3.53-15.31-7.11-30.61-10.56-45.93c-0.51-2.26-1.25-4-3.83-3.13c-2.57,0.86-1.27,2.99-0.91,4.6c1.9,8.56,3.87,17.1,5.85,25.64
			c1.46,6.28,3.09,12.53,4.44,18.84c0.46,2.13,1.51,2.74,3.45,2.51C222.27,223.88,222.42,222.82,222.24,221.55z M178.36,174.74
			c0.09-0.83,0.3-2.12-1.68-2.4c-2.43-0.35-3.17,1.08-3.62,3.05c-3.43,14.97-6.9,29.92-10.29,44.9c-0.3,1.32-1.06,3.14,1.14,3.69
			c1.92,0.48,3.12-0.38,3.59-2.39C171.06,206.13,174.66,190.69,178.36,174.74z M192.46,172.32c-2.16,0-4.32-0.06-6.47,0.02
			c-3.11,0.11-5.5,3.1-3.99,5.54c2.76,4.48,5.62,9.81,10.3,11.67c3,1.19,4.5-4.95,7.42-7.07c0.79-0.58,1.33-1.49,2.1-2.12
			c1.96-1.6,1.32-3.4,0.76-5.41c-0.64-2.29-2.16-2.67-4.14-2.63C196.45,172.35,194.46,172.32,192.46,172.32z M191.76,168.4
			c6.45,0,12.91,0.04,19.36-0.03c1.65-0.02,4,0.75,4.04-2.2c0.03-2.61-1.9-2.69-3.82-2.69c-13.07,0-26.14,0-39.21,0
			c-1.68,0-3.43-0.16-3.48,2.35c-0.06,2.84,1.93,2.57,3.76,2.57C178.85,168.4,185.3,168.4,191.76,168.4z M192.17,160.27
			c2.24-0.74,7.29,2.09,6.17-4.1c-1.05-5.81-2.62-11.53-3.95-17.3c-0.28-1.21-0.8-2.23-2.2-2.26c-1.66-0.03-1.56,1.36-1.82,2.45
			c-1.19,4.95-2.36,9.91-3.57,14.85C185.23,160.27,185.22,160.27,192.17,160.27z M210.4,212.81c0.29-0.24,0.57-0.49,0.86-0.73
			c-1.43-6.26-2.72-12.55-4.37-18.76c-0.78-2.96-0.48-8.21-2.59-8.38c-3.34-0.26-5.01,4.5-7.7,6.82c-1.31,1.12-1.42,2.5-0.23,3.93
			C201.06,201.37,205.72,207.1,210.4,212.81z M180.11,183.39c-2.22,9.61-4.33,18.73-6.44,27.86c3.42-2.76,6.43-5.61,8.68-8.97
			c2.06-3.08,7.26-4.89,6.36-8.66c-0.83-3.48-4.5-6.3-6.96-9.38C181.49,183.9,180.94,183.8,180.11,183.39z M199.6,92.92
			c-0.08-3.91-3.43-7.29-7.23-7.28c-3.89,0.01-7.73,3.78-7.68,7.56c0.05,4.1,3.53,7.41,7.76,7.38
			C196.89,100.54,199.7,97.53,199.6,92.92z M207.42,157.39c-1.44-6.41-2.84-12.83-4.37-19.22c-0.45-1.87-2.14-1.79-3.65-1.68
			c-1.26,0.09-1.64,0.78-1.35,2.01c1.59,6.71,3.09,13.45,4.75,20.15c0.39,1.56,1.87,1.71,3.25,1.46
			C207.66,159.82,207.47,158.56,207.42,157.39z M177.25,157.56c-0.23,1.12-0.82,2.38,1.05,2.61c1.94,0.24,3.58-0.01,4.09-2.43
			c1.19-5.63,2.55-11.22,3.72-16.86c0.33-1.58,1.59-3.77-1.31-4.33c-2.4-0.46-3.06,1.3-3.49,3.21
			C179.98,145.7,178.6,151.63,177.25,157.56z M191.67,132.52c3.63,0,7.27,0.01,10.9-0.01c1.36-0.01,2.72-0.04,2.82-1.93
			c0.1-1.8-0.96-2.26-2.48-2.26c-7.27,0-14.54-0.01-21.8,0c-1.45,0-2.64,0.32-2.59,2.17c0.06,1.87,1.36,2.01,2.74,2.02
			C184.73,132.53,188.2,132.52,191.67,132.52z"/>
		<path class="st4" d="M311.26,336.89c-2.99-1.34-6.04-2.58-8.98-4.03c-25.02-12.37-32.99-42.91-17.08-65.77
			c1.97-2.82,4.58-5.22,7.07-7.65c1.85-1.81,2.04-3.19,0.52-5.53c-10.42-16.06-7.84-34.66,5.79-46.67c2.33-2.05,2.69-3.63,0.92-6.68
			c-8.74-15.04-1.01-34.03,15.65-37.9c9.98-2.31,19.64,0.01,26.32,8.79c6.89,9.05,7.61,18.9,1.91,28.78
			c-1.9,3.29-1.91,4.8,1.34,7.37c13.56,10.73,15.21,33.99,5.08,46.23c-1.56,1.88-1.87,3.29,0.53,5.24
			c4.66,3.77,8.33,8.5,10.69,14.11c-0.79,5.64-4.38,10.01-7.16,14.61c-7.54,12.51-16.18,24.25-26.7,34.5
			c-0.69,0.67-1.45,1.27-2.94,2.57c0-9.82-0.47-18.86,0.28-27.81c0.23-2.74,3.66-5.31,5.83-7.77c2.31-2.6,4.9-4.96,7.32-7.47
			c0.91-0.95,2.1-2.12,0.72-3.37c-1.33-1.21-2.44,0.04-3.38,0.95c-1.79,1.74-3.43,3.62-5.3,5.26c-1.53,1.34-2.66,4.35-4.81,3.49
			c-1.78-0.72-0.72-3.61-0.73-5.51c-0.07-16.27-0.04-32.54-0.04-48.81c0-7.47,0.05-14.94-0.04-22.41c-0.02-1.47,0.87-3.9-1.58-4
			c-2.6-0.11-2.3,2.35-2.31,4.11c-0.03,19.43,0,38.85-0.05,58.28c0,1.56,0.88,3.78-0.81,4.54c-1.76,0.79-2.64-1.51-3.85-2.51
			c-1.53-1.27-2.85-2.79-4.36-4.08c-1.08-0.93-2.5-1.35-3.55-0.13c-0.94,1.1-0.07,2.18,0.77,3.03c1.76,1.76,3.3,3.93,5.38,5.15
			c5.63,3.3,6.89,8.03,6.57,14.23c-0.49,9.61-0.74,19.31,0.06,28.87C321.05,327.23,318.47,333,311.26,336.89z"/>
		<path class="st4" d="M91.8,352.71c-3.62-2.31-7.2-4.69-10.89-6.89c-1.87-1.11-2.2-2.67-2.19-4.61c0.05-5.64,0.13-11.28-0.02-16.91
			c-0.13-4.64,4.15-6.06,6.18-9.1c1.24-1.85,5.38-3.23,3.02-5.69c-2.32-2.41-4.03,1.41-5.89,2.74c-0.89,0.64-1.34,1.94-3.28,1.79
			c0-4.04,0-8.11,0-12.18c0-5.64,0.02-11.27-0.02-16.91c-0.01-1.65,0.08-3.78-2.17-3.76c-2.58,0.02-1.71,2.4-1.74,3.85
			c-0.09,6.13-0.02,12.27-0.06,18.4c-0.01,1.08,0.5,2.62-0.96,2.98c-0.76,0.18-1.79-0.6-2.65-1.03c-1.59-0.8-2.95-3.95-4.81-1.76
			c-1.69,2,1.06,3.67,2.5,4.59c5.46,3.47,6.63,8.34,6.03,14.39c-0.46,4.6-0.07,9.27-0.11,13.92c-0.01,1.1,0.35,2.49-1.06,3.02
			c-1.06,0.4-1.85-0.43-2.61-1.07c-8.99-7.59-17.43-15.74-25.16-24.62c0.59-0.26,1.51-0.38,1.7-0.81
			c2.42-5.52,5.66-10.45,10.14-14.54c1.33-1.21,1.05-2.42,0.23-3.98c-6.85-12.99-5.95-20.4,3.82-30.9c1.63-1.76,2.07-2.93,0.47-5.01
			c-2.16-2.8-3.47-6.38-3.17-9.75c0.61-6.76,3.56-12.36,10.4-15.1c7.25-2.9,12.81-1.71,18.48,3.97c5.19,5.19,6.69,11.63,3.24,17.7
			c-2.76,4.85-0.83,6.83,2.2,9.77c7.71,7.48,9.18,18.36,3.69,27.65c-1.73,2.93-1.49,4.4,1.28,6.51
			c9.76,7.46,13.66,21.47,10.05,33.12C105.63,341.58,99.4,347.65,91.8,352.71z"/>
		<path class="st5" d="M297.1,57.63c-0.05-19.5,15.18-34.92,34.53-34.97c19.46-0.05,35.3,15.73,35.17,35.04
			c-0.12,18.48-16.33,34.65-34.78,34.7C312.84,92.45,297.15,76.82,297.1,57.63z M335.94,48.24c0-0.99,0-1.49,0-1.98
			c-0.03-2.86,0.22-6.25-3.76-6.32c-3.91-0.07-4.13,3.14-3.96,6.12c0.28,5.12,0.6,10.25,0.98,15.37c0.13,1.73,0.74,3.54,2.68,3.68
			c2.16,0.16,2.62-1.98,2.81-3.5C335.29,57.01,335.57,52.38,335.94,48.24z M332.11,76.66c2.22-0.09,3.72-0.91,3.71-3.16
			c-0.01-2.27-1.31-3.73-3.57-3.85c-2.28-0.12-3.86,1.25-3.87,3.48C328.38,75.4,330.04,76.51,332.11,76.66z"/>
		<path class="st6" d="M91.8,352.71c7.6-5.06,13.82-11.12,16.64-20.24c3.61-11.65-0.29-25.66-10.05-33.12
			c-2.76-2.11-3.01-3.58-1.28-6.51c5.49-9.29,4.02-20.17-3.69-27.65c-3.03-2.94-4.95-4.92-2.2-9.77c3.45-6.07,1.95-12.51-3.24-17.7
			c-5.67-5.67-11.22-6.87-18.48-3.97c-6.84,2.74-9.79,8.34-10.4,15.1c-0.3,3.37,1.01,6.95,3.17,9.75c1.61,2.08,1.17,3.25-0.47,5.01
			c-9.77,10.49-10.67,17.91-3.82,30.9c0.82,1.56,1.09,2.77-0.23,3.98c-4.48,4.09-7.71,9.02-10.14,14.54
			c-0.19,0.44-1.12,0.55-1.7,0.81c-6.86-7.64-12.79-15.95-18.1-24.72c-1.51-2.5-3.53-4.89-2.9-8.18c3.51-1.89,3.78-3.8,0.86-6.87
			c-5.22-5.49-5.27-14.12-0.62-19.55c4.78-5.58,13.37-6.61,19.84-2.38c5.52,3.61,7.55,11.63,4.75,18.22
			c-0.54,1.28-2.83,3.04-0.38,4.12c2.34,1.03,2.02-1.83,2.91-3c4.92-6.55,6.76-13.02,4.06-21.59c-2.15-6.8,4.11-15.68,10.59-18.61
			c7.98-3.6,15.61-2.99,22.27,2.92c6.15,5.45,8.17,12.52,5.7,20.3c-1.28,4.02-0.61,6.44,2.18,9.62c7.35,8.38,8.46,18.09,3.79,28.24
			c-1.14,2.48-1.22,4.19,0.95,6.07c16.29,14.09,14.48,41.85-4.95,54.54c-0.42,0.27-0.78,0.62-1.16,0.94
			C94.33,353.79,92.79,354.11,91.8,352.71z"/>
		<path class="st7" d="M136.51,372.55c3.96-16.9,8.02-33.77,11.79-50.71c0.79-3.56,1.65-4.23,4.6-1.93
			c10.45,8.13,20.97,16.17,31.47,24.23c2.84,2.18,3.94,3.72,0.06,6.53c-11.1,8.06-21.4,17.18-32.71,24.99
			C146.34,376.13,141.51,373.92,136.51,372.55z"/>
		<path class="st7" d="M158.27,377.34c2.34-4.5,7.08-6.34,10.68-9.41c6.42-5.47,13.36-10.33,19.97-15.59
			c2.21-1.76,3.74-1.8,6.01,0.09c4.7,3.91,9.58,7.64,14.69,10.99c2.02,1.33,0.85,2.19,0.35,3.12c-2.21,4.1-2.91,8.43-2.41,13
			c-15.07,2.45-30.06,0.72-45.04-0.98C161.07,378.41,159.68,377.76,158.27,377.34z"/>
		<path class="st2" d="M56.27,167.3c-10.61,0-21.22,0-31.83,0c-8.68,0-12.32-3.14-13.34-11.87c-2.32-19.83,8.41-34.34,27.33-36.74
			c10.01-1.27,21.83,3.02,29.08,15.27c1.79,3.03,2.98,4.37,7.14,3.68c14-2.34,26.51,12.37,22.84,26.13
			c-0.71,2.68-2.06,3.63-4.91,3.6C80.48,167.21,68.37,167.3,56.27,167.3z"/>
		<path class="st2" d="M160.45,213.18c-0.62,2.7-1.29,5.39-1.82,8.11c-0.28,1.41-0.87,2.23-2.32,2.79
			c-5.29,2.03-6.56,7.23-2.81,11.8c1.02,1.25,1.4,2.09,0.35,3.33c-10.42-0.04-20.83-0.1-31.25-0.13c-7.5-0.02-10.5-5.15-6.92-11.88
			c2.59-4.87,7.55-7.47,13.1-6.43c2.02,0.38,3.13-0.3,4.26-1.62c8.35-9.76,14.39-11.21,25.97-6.3
			C159.46,213.04,159.97,213.07,160.45,213.18z"/>
		<path class="st8" d="M269.35,91.77c-0.97,14.49-3.34,26.92-9.95,38.22c-0.9,1.54-1.85,3.97-3.88,2.98
			c-2.61-1.27-0.66-3.48,0.17-5.09c12.55-24.13,11.9-48.01-1.29-71.66c-0.79-1.42-1.59-2.79,0.01-3.92
			c2.13-1.49,2.97,0.55,3.77,1.87c5.3,8.76,8.69,18.23,9.94,28.38C268.56,86.15,269.76,89.7,269.35,91.77z"/>
		<path class="st8" d="M128.26,53.75c0.34,0.18,0.99,0.37,1.44,0.78c1.15,1.07,0.36,2.19-0.2,3.15c-4.19,7.24-6.83,14.97-8.23,23.24
			c-2.81,16.59-0.09,32.19,7.65,47.02c0.88,1.68,3,3.48,0.27,4.99c-2.44,1.35-3.17-1.41-3.87-2.74
			c-7.49-14.24-10.84-29.22-8.97-45.46c1.14-9.92,4.14-19.03,8.69-27.76C125.73,55.67,126.17,54.11,128.26,53.75z"/>
		<path class="st8" d="M135.65,92.96c-0.05-10.71,2.75-20.59,8.57-29.6c0.99-1.53,1.91-3.64,4.13-2.06c1.98,1.4,0.27,2.99-0.51,4.32
			c-9.91,16.83-10.89,34-2.01,51.55c0.22,0.44,0.49,0.87,0.68,1.33c0.64,1.6,2.29,3.5-0.26,4.64c-2.1,0.94-2.74-1.19-3.54-2.59
			C137.9,112.06,135.67,103.3,135.65,92.96z"/>
		<path class="st8" d="M249.33,93.85c-0.38,9.19-2.57,18.1-7.05,26.4c-0.83,1.55-1.84,3.88-3.94,2.83
			c-2.31-1.14-0.62-3.21,0.12-4.73c8.51-17.4,8.8-34.63-0.96-51.69c-0.66-1.15-1.46-2.48,0.03-3.52c1.64-1.15,2.76-0.13,3.64,1.26
			C246.85,73.33,248.93,83.24,249.33,93.85z"/>
		<path class="st8" d="M228.35,94.11c0.48,5.96-2.01,11.72-5.04,17.3c-0.74,1.36-1.59,3.44-3.64,2.39c-2.08-1.06-0.98-2.86-0.16-4.3
			c6.62-11.59,6.1-22.99-0.9-34.2c-0.86-1.37-1.71-2.74-0.11-3.89c1.75-1.26,2.82,0.44,3.59,1.56
			C226.37,79.13,228.54,85.96,228.35,94.11z"/>
		<path class="st8" d="M156.61,92.81c-0.37-6.32,1.34-12.1,4.57-17.46c0.82-1.36,1.62-3.46,3.66-2.13c1.41,0.92,0.9,2.77,0.12,4.09
			c-6.24,10.53-5.66,21.08-0.22,31.67c0.69,1.35,1.61,3.06,0.05,4.01c-1.9,1.16-3.05-0.7-3.83-2.1
			C157.8,105.29,156.21,99.28,156.61,92.81z"/>
		<path class="st9" d="M283.08,187.34c-2.33-0.64-6.28,1.18-6.34-2.16c-0.07-3.68,3.91-1.16,5.94-1.93c0.14-0.06,0.34-0.04,0.49,0
			c2.23,0.5,6.28-1.27,6.28,1.84C289.44,188.85,285.21,186.47,283.08,187.34z"/>
		<path class="st10" d="M230.98,300.99c-25.08,0-49.49,0.01-73.9-0.02c-1.08,0-2.56,0.51-3.06-0.92c-0.47-1.32,0.85-2.04,1.63-2.81
			c11.17-11.14,22.38-22.25,33.54-33.41c1.55-1.55,2.7-2.01,4.51-0.23c12.06,11.88,24.21,23.67,36.31,35.51
			C230.33,299.4,230.45,299.91,230.98,300.99z"/>
		<path class="st7" d="M152.36,313.99c26.48,0,51.8,0,77.95,0c-5.06,5.43-10.86,8.87-15.92,13.16c-5.93,5.02-12.23,9.59-18.27,14.48
			c-3.01,2.44-5.32,2.63-8.65-0.07c-10.53-8.54-21.44-16.6-32.19-24.87C154.53,316.11,153.88,315.4,152.36,313.99z"/>
		<path class="st7" d="M243.41,353.28c-0.07,2.42-0.91,3.93-3.96,2.61c-9.24-3.99-17.44-1.71-24.9,4.37
			c-1.35,1.1-2.03,0.93-3.29-0.11c-4.21-3.46-8.57-6.73-12.87-10.08c-2.34-1.82-2.66-3.33,0.06-5.4
			c11.29-8.62,22.47-17.39,33.62-26.2c1.82-1.44,3.22-2.07,3.86,0.71c2.53,10.93,4.95,21.89,7.4,32.84
			C243.41,352.34,243.38,352.69,243.41,353.28z"/>
		<path class="st10" d="M229.52,292.01c-8.3-6.46-14.88-13.4-21.66-20.12c-3.53-3.5-6.98-7.09-10.61-10.49
			c-1.91-1.79-1.85-3.08,0.01-4.87c5.61-5.41,11.17-10.87,16.56-16.49c2.97-3.09,3.66-1.03,4.25,1.55
			c3.14,13.68,6.24,27.36,9.35,41.04C228.06,285.47,228.69,288.32,229.52,292.01z"/>
		<path class="st10" d="M167.72,237.5c7.03,7.11,13.29,13.46,19.58,19.79c1.19,1.19,1.17,2.24-0.02,3.39
			c-10.34,9.94-20.67,19.9-32.04,30.84C159.53,272.94,163.49,255.81,167.72,237.5z"/>
		<path class="st7" d="M192.45,224.14c-5.95,0-11.91,0-17.86,0c-3.76,0-4.05-2.03-2.07-4.37c5.85-6.93,11.96-13.65,17.91-20.5
			c1.4-1.61,2.61-1.18,3.7,0.13c6.11,7.36,12.24,14.69,18.19,22.18c2.15,2.7-0.46,2.5-2.02,2.52c-5.95,0.06-11.91,0.02-17.86,0.02
			C192.45,224.12,192.45,224.13,192.45,224.14z"/>
		<path class="st11" d="M192,309.88c-16.58,0-33.17,0.03-49.75-0.05c-1.72-0.01-4.39,1.08-4.52-2.22c-0.15-3.69,2.76-2.6,4.64-2.61
			c33.17-0.05,66.33-0.05,99.5-0.01c1.5,0,3.63-0.81,4.19,1.5c0.77,3.23-1.39,3.4-3.81,3.4C225.5,309.86,208.75,309.88,192,309.88z"
			/>
		<path class="st10" d="M211.81,236.14c-6.46,6.48-11.95,11.96-17.41,17.47c-1.51,1.52-2.92,1.97-4.67,0.29
			c-5.12-4.92-10.32-9.76-15.46-14.66c-0.67-0.64-1.72-1.27-1.16-2.44c0.43-0.89,1.43-0.65,2.22-0.65
			C187.05,236.13,198.75,236.14,211.81,236.14z"/>
		<path class="st9" d="M191.47,232.95c-10.45,0-20.89,0.04-31.34-0.04c-1.75-0.01-4.34,0.98-4.49-2.29
			c-0.15-3.28,2.37-2.57,4.2-2.58c21.39-0.03,42.78-0.03,64.17,0c1.83,0,4.34-0.73,4.24,2.55c-0.11,3.29-2.69,2.31-4.45,2.32
			C213.03,232.99,202.25,232.95,191.47,232.95z"/>
		<path class="st0" d="M223.32,236.21c2.16-0.07,2.68,1.34,3.09,3.13c4.5,19.68,9.05,39.35,13.58,59.03
			c0.29,1.27,0.85,2.77-1.09,3.2c-1.6,0.35-3-0.08-3.51-1.89c-0.53-1.91-1.05-3.83-1.5-5.77c-4.15-17.89-8.31-35.79-12.37-53.7
			C221.17,238.68,219.32,235.99,223.32,236.21z"/>
		<path class="st0" d="M144.69,298.29c1.19-5.14,2.42-10.45,3.64-15.76c3.14-13.69,6.28-27.38,9.43-41.06
			c0.15-0.64,0.45-1.25,0.57-1.9c0.4-2.22,1.37-3.98,3.94-3.17c2.34,0.74,1.23,2.75,0.89,4.22c-2.26,9.99-4.6,19.96-6.93,29.94
			c-2.18,9.33-4.43,18.65-6.51,28c-0.47,2.13-1.29,3.42-3.59,3.05C144.23,301.3,144.64,299.76,144.69,298.29z"/>
		<path class="st0" d="M222.24,221.55c0.18,1.28,0.03,2.34-1.56,2.53c-1.94,0.23-2.99-0.38-3.45-2.51
			c-1.35-6.31-2.98-12.55-4.44-18.84c-1.99-8.54-3.95-17.08-5.85-25.64c-0.36-1.61-1.66-3.74,0.91-4.6
			c2.58-0.87,3.32,0.87,3.83,3.13C215.14,190.94,218.71,206.24,222.24,221.55z"/>
		<path class="st0" d="M178.36,174.74c-3.71,15.96-7.3,31.39-10.86,46.84c-0.46,2.01-1.67,2.87-3.59,2.39
			c-2.19-0.55-1.44-2.37-1.14-3.69c3.39-14.97,6.86-29.93,10.29-44.9c0.45-1.97,1.19-3.39,3.62-3.05
			C178.66,172.62,178.45,173.91,178.36,174.74z"/>
		<path class="st10" d="M192.46,172.32c1.99,0,3.98,0.03,5.97-0.01c1.98-0.04,3.5,0.34,4.14,2.63c0.56,2,1.2,3.8-0.76,5.41
			c-0.77,0.62-1.31,1.54-2.1,2.12c-2.91,2.12-4.42,8.26-7.42,7.07c-4.68-1.86-7.54-7.19-10.3-11.67c-1.51-2.44,0.88-5.42,3.99-5.54
			C188.15,172.25,190.31,172.32,192.46,172.32z"/>
		<path class="st9" d="M191.76,168.4c-6.45,0-12.9,0-19.36,0c-1.82,0-3.81,0.27-3.76-2.57c0.05-2.51,1.8-2.35,3.48-2.35
			c13.07,0,26.14,0,39.21,0c1.92,0,3.85,0.08,3.82,2.69c-0.04,2.95-2.39,2.18-4.04,2.2C204.66,168.44,198.21,168.4,191.76,168.4z"/>
		<path class="st12" d="M192.17,160.27c-6.95,0-6.93,0-5.37-6.35c1.21-4.95,2.39-9.9,3.57-14.85c0.26-1.08,0.16-2.48,1.82-2.45
			c1.41,0.03,1.92,1.04,2.2,2.26c1.33,5.76,2.9,11.48,3.95,17.3C199.46,162.36,194.41,159.53,192.17,160.27z"/>
		<path class="st12" d="M210.4,212.81c-4.68-5.71-9.34-11.43-14.04-17.12c-1.19-1.44-1.07-2.81,0.23-3.93
			c2.69-2.31,4.36-7.08,7.7-6.82c2.11,0.17,1.81,5.42,2.59,8.38c1.64,6.2,2.93,12.5,4.37,18.76
			C210.97,212.32,210.68,212.56,210.4,212.81z"/>
		<path class="st12" d="M180.11,183.39c0.84,0.41,1.38,0.51,1.65,0.84c2.46,3.08,6.13,5.9,6.96,9.38c0.9,3.78-4.3,5.58-6.36,8.66
			c-2.25,3.36-5.26,6.21-8.68,8.97C175.78,202.12,177.89,192.99,180.11,183.39z"/>
		<path class="st13" d="M199.6,92.92c0.1,4.61-2.71,7.62-7.15,7.66c-4.24,0.03-7.72-3.27-7.76-7.38c-0.05-3.78,3.79-7.56,7.68-7.56
			C196.17,85.63,199.52,89.01,199.6,92.92z"/>
		<path class="st11" d="M207.41,157.4c0.06,1.16,0.25,2.42-1.35,2.71c-1.39,0.25-2.87,0.1-3.25-1.46
			c-1.66-6.7-3.16-13.43-4.75-20.15c-0.29-1.23,0.09-1.92,1.35-2.01c1.51-0.1,3.21-0.18,3.65,1.68
			C204.58,144.56,205.97,150.98,207.41,157.4z"/>
		<path class="st11" d="M177.25,157.56c1.36-5.93,2.73-11.86,4.06-17.79c0.43-1.92,1.09-3.68,3.49-3.21
			c2.9,0.56,1.64,2.76,1.31,4.33c-1.17,5.63-2.54,11.23-3.72,16.86c-0.51,2.42-2.15,2.66-4.09,2.43
			C176.43,159.94,177.01,158.68,177.25,157.56z"/>
		<path class="st14" d="M191.67,132.52c-3.47,0-6.94,0.01-10.41-0.01c-1.38-0.01-2.69-0.15-2.74-2.02
			c-0.06-1.85,1.13-2.17,2.59-2.17c7.27-0.01,14.54,0,21.8,0c1.52,0,2.59,0.47,2.48,2.26c-0.11,1.89-1.47,1.93-2.82,1.93
			C198.93,132.53,195.3,132.52,191.67,132.52z"/>
		<path class="st11" d="M335.94,48.24c-0.36,4.13-0.65,8.76-1.25,13.36c-0.2,1.52-0.65,3.66-2.81,3.5
			c-1.94-0.14-2.55-1.95-2.68-3.68c-0.38-5.12-0.7-10.24-0.98-15.37c-0.16-2.97,0.06-6.19,3.96-6.12c3.98,0.07,3.73,3.47,3.76,6.32
			C335.94,46.76,335.94,47.25,335.94,48.24z"/>
		<path class="st11" d="M332.11,76.66c-2.07-0.15-3.74-1.26-3.73-3.52c0-2.24,1.58-3.6,3.87-3.48c2.27,0.12,3.57,1.58,3.57,3.85
			C335.83,75.74,334.33,76.57,332.11,76.66z"/>
	</g>
</g>
</svg>
