<?xml version="1.0" encoding="utf-8"?>
<!-- Generator: Adobe Illustrator 26.0.0, SVG Export Plug-In . SVG Version: 6.00 Build 0)  -->
<svg version="1.1" id="Layer_1" xmlns="http://www.w3.org/2000/svg" xmlns:xlink="http://www.w3.org/1999/xlink" x="0px" y="0px"
	 viewBox="0 0 1286.69 582.16" style="enable-background:new 0 0 1286.69 582.16;" xml:space="preserve">
<style type="text/css">
	.st0{fill:#F27421;}
	.st1{fill:#595756;}
</style>
<g>
	<polygon class="st0" points="1079.4,378.53 1286.69,384.69 1282.77,419.33 	"/>
	<polyline class="st0" points="1183.56,526.72 1059.02,404.1 1200.64,501.38 	"/>
	<polyline class="st0" points="1232.17,283.02 1070.77,350.05 1215.47,257.42 	"/>
	<polyline class="st0" points="1073.56,579.27 1036.07,425.99 1098.24,563.99 	"/>
	<path class="st1" d="M0,338.19V18.29h116.45c35.69,0,63.13,6.55,82.32,19.63c19.18,13.09,28.78,31.53,28.78,55.32
		c0,17.25-5.84,32.35-17.51,45.29c-11.68,12.94-26.58,21.94-44.73,26.99v0.89c22.75,2.83,40.94,11.23,54.54,25.21
		c13.61,13.98,20.41,31.01,20.41,51.09c0,29.3-10.48,52.54-31.45,69.71s-49.6,25.77-85.89,25.77H0z M72.05,71.39v75.85h31.68
		c14.87,0,26.58-3.6,35.14-10.82c8.55-7.21,12.83-17.14,12.83-29.78c0-23.5-17.55-35.25-52.65-35.25H72.05z M72.05,200.77v84.32
		h39.04c16.65,0,29.7-3.87,39.15-11.6c9.44-7.73,14.17-18.29,14.17-31.68c0-12.79-4.65-22.83-13.94-30.12
		c-9.3-7.28-22.27-10.93-38.93-10.93H72.05z"/>
	<path class="st1" d="M356.48,338.19h-70.49V0h70.49V338.19z"/>
	<path class="st0" d="M451.51,445.7c-13.5,0-24.55-4.07-33.15-12.2c-8.6-8.13-12.91-18.11-12.91-29.92
		c0-12.16,4.3-22.09,12.91-29.79c8.6-7.71,19.65-11.56,33.15-11.56c13.66,0,24.76,3.85,33.28,11.56
		c8.52,7.71,12.78,17.64,12.78,29.79c0,12.33-4.26,22.43-12.78,30.31C476.27,441.76,465.18,445.7,451.51,445.7z"/>
	<path class="st0" d="M533.75,542.23c-12.65,0-23.01-3.79-31.08-11.36c-8.07-7.57-12.1-16.86-12.1-27.86
		c0-11.32,4.03-20.57,12.1-27.74c8.07-7.17,18.42-10.76,31.08-10.76c12.81,0,23.21,3.59,31.2,10.76
		c7.99,7.17,11.98,16.42,11.98,27.74c0,11.48-4,20.89-11.98,28.22C556.96,538.57,546.56,542.23,533.75,542.23z"/>
	<path class="st0" d="M682.23,582.16c-11.39,0-20.71-3.22-27.97-9.68c-7.26-6.45-10.89-14.36-10.89-23.73
		c0-9.64,3.63-17.52,10.89-23.63s16.58-9.17,27.97-9.17c11.53,0,20.89,3.06,28.08,9.17c7.19,6.11,10.78,13.99,10.78,23.63
		c0,9.78-3.6,17.79-10.78,24.04C703.12,579.04,693.76,582.16,682.23,582.16z"/>
	<path class="st0" d="M837.57,561.73c-9.91,0-18.03-3.01-24.34-9.05c-6.32-6.03-9.48-13.42-9.48-22.18c0-9.01,3.16-16.38,9.48-22.09
		c6.32-5.71,14.43-8.57,24.34-8.57c10.04,0,18.18,2.86,24.44,8.57c6.26,5.71,9.38,13.08,9.38,22.09c0,9.14-3.13,16.63-9.38,22.47
		C855.75,558.81,847.6,561.73,837.57,561.73z"/>
	<path class="st0" d="M944.93,475.3c-7.59,0-13.81-2.38-18.65-7.15c-4.84-4.77-7.26-10.62-7.26-17.54c0-7.13,2.42-12.95,7.26-17.47
		c4.84-4.52,11.05-6.78,18.65-6.78c7.69,0,13.93,2.26,18.72,6.78c4.79,4.52,7.19,10.34,7.19,17.47c0,7.23-2.4,13.15-7.19,17.77
		C958.86,472.99,952.62,475.3,944.93,475.3z"/>
	<path class="st0" d="M1015.75,393.42c-11.9,0-21.64-3.53-29.22-10.6c-7.58-7.06-11.38-15.73-11.38-25.99
		c0-10.56,3.79-19.18,11.38-25.88s17.32-10.04,29.22-10.04c12.05,0,21.82,3.35,29.34,10.04c7.51,6.69,11.27,15.32,11.27,25.88
		c0,10.71-3.76,19.48-11.27,26.32C1037.57,390,1027.79,393.42,1015.75,393.42z"/>
	<polygon class="st0" points="474.8,338.19 423.02,338.19 407.19,109.76 496.39,109.76 	"/>
	<path class="st1" d="M766.28,338.19h-70.27V211.26c0-35.39-12.64-53.09-37.92-53.09c-12.2,0-22.23,4.68-30.12,14.05
		c-7.88,9.37-11.82,21.27-11.82,35.69v130.28h-70.49V109.76h70.49v36.14h0.89c16.8-27.81,41.27-41.72,73.39-41.72
		c50.56,0,75.85,31.38,75.85,94.14V338.19z"/>
	<path class="st0" d="M1050.93,338.19h-84.55l-72.95-113.32h-0.89v113.32h-70.49V0h70.49v215.27h0.89l68.04-105.52h83.66
		l-81.87,107.3L1050.93,338.19z"/>
	<polygon class="st0" points="940.45,297.9 978.44,371.99 1050.03,337.95 1042.93,327.14 	"/>
</g>
</svg>
