<?xml version="1.0" encoding="utf-8"?>
<!-- Generator: Adobe Illustrator 26.0.0, SVG Export Plug-In . SVG Version: 6.00 Build 0)  -->
<svg version="1.1" id="Layer_1" xmlns="http://www.w3.org/2000/svg" xmlns:xlink="http://www.w3.org/1999/xlink" x="0px" y="0px"
	 viewBox="0 0 225 225" style="enable-background:new 0 0 225 225;" xml:space="preserve">
<style type="text/css">
	.st0{fill:#211F1E;}
	.st1{fill:#FFFFFF;}
</style>
<g>
	<g>
		<path class="st0" d="M147.7,225H77.3C34.6,225,0,190.4,0,147.7V77.3C0,34.6,34.6,0,77.3,0h70.5C190.4,0,225,34.6,225,77.3v70.5
			C225,190.4,190.4,225,147.7,225z"/>
	</g>
	<g>
		<polygon class="st1" points="177.8,125.6 208.8,126.5 208.2,131.7 		"/>
		<polyline class="st1" points="193.4,147.8 174.7,129.4 195.9,144 		"/>
		<polyline class="st1" points="200.6,111.3 176.5,121.3 198.1,107.5 		"/>
		<polyline class="st1" points="176.9,155.6 171.3,132.7 180.6,153.4 		"/>
		<path class="st1" d="M16.2,119.6V71.7h17.4c5.3,0,9.5,1,12.3,2.9s4.3,4.7,4.3,8.3c0,2.6-0.9,4.8-2.6,6.8s-4,3.3-6.7,4v0.1
			c3.4,0.4,6.1,1.7,8.2,3.8s3.1,4.6,3.1,7.7c0,4.4-1.6,7.9-4.7,10.4c-3.1,2.6-7.4,3.9-12.9,3.9H16.2z M27,79.6V91h4.7
			c2.2,0,4-0.5,5.3-1.6s1.9-2.6,1.9-4.5c0-3.5-2.6-5.3-7.9-5.3L27,79.6L27,79.6z M27,99v12.6h5.8c2.5,0,4.5-0.6,5.9-1.7
			c1.4-1.2,2.1-2.7,2.1-4.7c0-1.9-0.7-3.4-2.1-4.5c-1.4-1.1-3.3-1.6-5.8-1.6L27,99L27,99z"/>
		<path class="st1" d="M69.6,119.6H59V68.9h10.6L69.6,119.6L69.6,119.6z"/>
		<path class="st1" d="M83.8,135.6c-2,0-3.7-0.6-5-1.8s-1.9-2.7-1.9-4.5c0-1.8,0.6-3.3,1.9-4.5s2.9-1.7,5-1.7c2.1,0,3.7,0.6,5,1.7
			c1.3,1.2,1.9,2.6,1.9,4.5c0,1.9-0.6,3.4-1.9,4.5C87.5,135.1,85.8,135.6,83.8,135.6z"/>
		<path class="st1" d="M96.1,150.1c-1.9,0-3.4-0.6-4.7-1.7c-1.2-1.1-1.8-2.5-1.8-4.2c0-1.7,0.6-3.1,1.8-4.1c1.2-1.1,2.8-1.6,4.7-1.6
			c1.9,0,3.5,0.5,4.7,1.6s1.8,2.5,1.8,4.1c0,1.7-0.6,3.1-1.8,4.2C99.6,149.6,98,150.1,96.1,150.1z"/>
		<path class="st1" d="M118.3,156.1c-1.7,0-3.1-0.5-4.2-1.4c-1.1-1-1.6-2.1-1.6-3.6c0-1.4,0.5-2.6,1.6-3.5c1.1-0.9,2.5-1.4,4.2-1.4
			c1.7,0,3.1,0.5,4.2,1.4c1.1,0.9,1.6,2.1,1.6,3.5c0,1.5-0.5,2.7-1.6,3.6C121.4,155.6,120.1,156.1,118.3,156.1z"/>
		<path class="st1" d="M141.6,153c-1.5,0-2.7-0.4-3.6-1.4c-0.9-0.9-1.4-2-1.4-3.3c0-1.4,0.5-2.4,1.4-3.3s2.2-1.3,3.6-1.3
			c1.5,0,2.7,0.4,3.7,1.3c0.9,0.9,1.4,2,1.4,3.3c0,1.4-0.5,2.5-1.4,3.4C144.3,152.6,143.1,153,141.6,153z"/>
		<path class="st1" d="M157.6,140.1c-1.1,0-2.1-0.4-2.8-1.1c-0.7-0.7-1.1-1.6-1.1-2.6c0-1.1,0.4-1.9,1.1-2.6s1.6-1,2.8-1
			c1.1,0,2.1,0.3,2.8,1c0.7,0.7,1.1,1.6,1.1,2.6c0,1.1-0.4,2-1.1,2.7S158.8,140.1,157.6,140.1z"/>
		<path class="st1" d="M168.2,127.8c-1.8,0-3.2-0.5-4.4-1.6c-1.1-1.1-1.7-2.3-1.7-3.9c0-1.6,0.6-2.9,1.7-3.9s2.6-1.5,4.4-1.5
			c1.8,0,3.3,0.5,4.4,1.5s1.7,2.3,1.7,3.9c0,1.6-0.6,2.9-1.7,3.9C171.5,127.3,170.1,127.8,168.2,127.8z"/>
		<polygon class="st1" points="87.3,119.6 79.5,119.6 77.2,85.4 90.5,85.4 		"/>
		<path class="st1" d="M130.9,119.6h-10.5v-19c0-5.3-1.9-7.9-5.7-7.9c-1.8,0-3.3,0.7-4.5,2.1s-1.8,3.2-1.8,5.3v19.5H97.9V85.3h10.6
			v5.4h0.1c2.5-4.2,6.2-6.2,11-6.2c7.6,0,11.3,4.7,11.3,14.1V119.6z"/>
		<path class="st1" d="M173.5,119.6h-12.7l-10.9-17h-0.1v17h-10.6V68.9h10.6v32.2h0.1l10.2-15.8h12.5l-12.3,16.1L173.5,119.6z"/>
		<polygon class="st1" points="157,113.5 162.7,124.6 173.4,119.5 172.3,117.9 		"/>
	</g>
</g>
</svg>
