<?xml version="1.0" encoding="utf-8"?>
<!-- Generator: Adobe Illustrator 26.0.0, SVG Export Plug-In . SVG Version: 6.00 Build 0)  -->
<svg version="1.1" id="Layer_1" xmlns="http://www.w3.org/2000/svg" xmlns:xlink="http://www.w3.org/1999/xlink" x="0px" y="0px"
	 viewBox="0 0 225 225" style="enable-background:new 0 0 225 225;" xml:space="preserve">
<style type="text/css">
	.st0{fill:#F27421;}
	.st1{fill:#FFFFFF;}
</style>
<g>
	<g>
		<path class="st0" d="M147.74,225H77.26C34.59,225,0,190.41,0,147.74l0-70.49C0,34.59,34.59,0,77.26,0l70.49,0
			C190.41,0,225,34.59,225,77.26v70.49C225,190.41,190.41,225,147.74,225z"/>
	</g>
	<g>
		<polygon class="st1" points="177.78,125.59 208.81,126.51 208.22,131.7 		"/>
		<polyline class="st1" points="193.37,147.78 174.73,129.42 195.93,143.98 		"/>
		<polyline class="st1" points="200.65,111.29 176.48,121.33 198.15,107.46 		"/>
		<polyline class="st1" points="176.9,155.64 171.29,132.7 180.6,153.35 		"/>
		<path class="st1" d="M16.19,119.55V71.66h17.43c5.34,0,9.45,0.98,12.32,2.94c2.87,1.96,4.31,4.72,4.31,8.28
			c0,2.58-0.87,4.84-2.62,6.78c-1.75,1.94-3.98,3.28-6.7,4.04v0.13c3.41,0.42,6.13,1.68,8.17,3.77c2.04,2.09,3.06,4.64,3.06,7.65
			c0,4.39-1.57,7.86-4.71,10.44c-3.14,2.57-7.43,3.86-12.86,3.86H16.19z M26.98,79.61v11.35h4.74c2.23,0,3.98-0.54,5.26-1.62
			c1.28-1.08,1.92-2.57,1.92-4.46c0-3.52-2.63-5.28-7.88-5.28H26.98z M26.98,98.98v12.62h5.84c2.49,0,4.45-0.58,5.86-1.74
			c1.41-1.16,2.12-2.74,2.12-4.74c0-1.91-0.7-3.42-2.09-4.51c-1.39-1.09-3.33-1.64-5.83-1.64H26.98z"/>
		<path class="st1" d="M69.56,119.55H59V68.93h10.55V119.55z"/>
		<path class="st1" d="M83.78,135.65c-2.02,0-3.67-0.61-4.96-1.83c-1.29-1.22-1.93-2.71-1.93-4.48c0-1.82,0.64-3.31,1.93-4.46
			c1.29-1.15,2.94-1.73,4.96-1.73c2.05,0,3.71,0.58,4.98,1.73c1.28,1.15,1.91,2.64,1.91,4.46c0,1.85-0.64,3.36-1.91,4.54
			C87.49,135.06,85.83,135.65,83.78,135.65z"/>
		<path class="st1" d="M96.09,150.1c-1.89,0-3.44-0.57-4.65-1.7c-1.21-1.13-1.81-2.52-1.81-4.17c0-1.69,0.6-3.08,1.81-4.15
			c1.21-1.07,2.76-1.61,4.65-1.61c1.92,0,3.47,0.54,4.67,1.61c1.2,1.07,1.79,2.46,1.79,4.15c0,1.72-0.6,3.13-1.79,4.22
			C99.57,149.55,98.01,150.1,96.09,150.1z"/>
		<path class="st1" d="M118.32,156.07c-1.7,0-3.1-0.48-4.19-1.45c-1.09-0.97-1.63-2.15-1.63-3.55c0-1.44,0.54-2.62,1.63-3.54
			c1.09-0.91,2.48-1.37,4.19-1.37c1.73,0,3.13,0.46,4.2,1.37c1.08,0.91,1.61,2.09,1.61,3.54c0,1.46-0.54,2.66-1.61,3.6
			C121.45,155.61,120.05,156.07,118.32,156.07z"/>
		<path class="st1" d="M141.58,153.02c-1.48,0-2.7-0.45-3.64-1.35c-0.95-0.9-1.42-2.01-1.42-3.32c0-1.35,0.47-2.45,1.42-3.31
			c0.95-0.86,2.16-1.28,3.64-1.28c1.5,0,2.72,0.43,3.66,1.28c0.94,0.86,1.4,1.96,1.4,3.31c0,1.37-0.47,2.49-1.4,3.36
			C144.3,152.58,143.08,153.02,141.58,153.02z"/>
		<path class="st1" d="M157.65,140.08c-1.14,0-2.07-0.36-2.79-1.07c-0.72-0.71-1.09-1.59-1.09-2.63c0-1.07,0.36-1.94,1.09-2.61
			s1.65-1.01,2.79-1.01c1.15,0,2.08,0.34,2.8,1.01c0.72,0.68,1.08,1.55,1.08,2.61c0,1.08-0.36,1.97-1.08,2.66
			C159.73,139.73,158.8,140.08,157.65,140.08z"/>
		<path class="st1" d="M168.25,127.82c-1.78,0-3.24-0.53-4.37-1.59c-1.14-1.06-1.7-2.35-1.7-3.89c0-1.58,0.57-2.87,1.7-3.87
			s2.59-1.5,4.37-1.5c1.8,0,3.27,0.5,4.39,1.5c1.12,1,1.69,2.29,1.69,3.87c0,1.6-0.56,2.92-1.69,3.94
			C171.52,127.31,170.05,127.82,168.25,127.82z"/>
		<polygon class="st1" points="87.27,119.55 79.52,119.55 77.15,85.36 90.5,85.36 		"/>
		<path class="st1" d="M130.9,119.55h-10.52v-19c0-5.3-1.89-7.95-5.68-7.95c-1.83,0-3.33,0.7-4.51,2.1
			c-1.18,1.4-1.77,3.18-1.77,5.34v19.5H97.88v-34.2h10.55v5.41h0.13c2.52-4.16,6.18-6.24,10.99-6.24c7.57,0,11.35,4.7,11.35,14.09
			V119.55z"/>
		<path class="st1" d="M173.52,119.55h-12.66l-10.92-16.96h-0.13v16.96h-10.55V68.93h10.55v32.23h0.13l10.19-15.8h12.52
			l-12.26,16.06L173.52,119.55z"/>
		<polygon class="st1" points="156.98,113.52 162.66,124.61 173.38,119.52 172.32,117.9 		"/>
	</g>
</g>
</svg>
