<?xml version="1.0" encoding="utf-8"?>
<!-- Generator: Adobe Illustrator 26.0.0, SVG Export Plug-In . SVG Version: 6.00 Build 0)  -->
<svg version="1.1" id="Layer_1" xmlns="http://www.w3.org/2000/svg" xmlns:xlink="http://www.w3.org/1999/xlink" x="0px" y="0px"
	 viewBox="0 0 484.04 483.89" style="enable-background:new 0 0 484.04 483.89;" xml:space="preserve">
<style type="text/css">
	.st0{fill:#F27421;}
	.st1{fill:#5DD0BE;}
	.st2{fill:#79DBCB;}
	.st3{fill:#FF9803;}
</style>
<g>
	<g>
		<path class="st0" d="M484.04,185.62c-5.87,6.63-13.23,11.53-20.01,17.09c-37.29,30.6-74.65,61.09-112.01,91.61
			c-30.64,25.03-61.3,50.04-91.96,75.04c-0.8,0.66-1.41,1.75-2.86,1.54c-0.95-1.54-0.44-3.29-0.45-4.94
			c-0.04-34.54-0.09-69.08,0.06-103.62c0.02-3.92-0.94-5.15-4.94-4.86c-28.96,2.14-56.87,8.64-83.55,20.07
			c-58.15,24.9-102.22,65.33-130.8,121.71c-11.65,22.98-20.69,47.28-30.94,70.97c-1.56,3.61-3.21,7.18-4.82,10.76
			c-2.57-1.04-1.2-3.26-1.2-4.83c-0.1-33.05-0.08-66.1-0.08-99.14c-0.24-2.24,0.54-4.56-0.49-6.75c0-1.89,0-3.79,0-5.68
			c2.19-5.76,1.83-11.92,2.69-17.88c6.84-47.6,25.26-90.2,54.75-128.1c8.33-10.71,17.48-20.67,27.31-30.01
			c1.24-1.17,2.25-2.68,4.05-3.13c2.49-1.15,5.12-1.41,7.84-1.41c126.54,0.01,253.09,0.01,379.63,0.01
			C478.98,184.07,481.66,184.05,484.04,185.62z"/>
	</g>
	<path class="st1" d="M0.93,375.92c0.01,33.21,0,66.42,0.05,99.63c0,1.81-0.68,3.8,0.79,5.43c-0.25,1.17-0.54,2.32-1.77,2.91
		c0-35.98,0-71.96,0-107.94C0.3,375.53,0.61,375.5,0.93,375.92z"/>
	<path class="st2" d="M0.93,375.92c-0.31,0.01-0.62,0.02-0.93,0.03c0-1.89,0-3.79,0-5.68C1.77,371.91,0.61,374.04,0.93,375.92z"/>
	<g>
		<path class="st3" d="M130.37,171.12c6.66-4.32,13.77-8.47,21.38-12.5c26.74-14.14,56.14-23.41,87.39-27.55
			c5.1-0.67,9.14-0.99,12.71-1c5.84-0.01,10.6-1.83,14.14-5.39c5.37-5.4,5.34-12.24,5.34-14.48c-0.1-26.58-0.09-53.61-0.08-79.79
			l8.11,6.59c30.02,24.41,60.05,48.82,90.06,73.25c24.92,20.28,49.83,40.57,74.74,60.87l-155.37,0L130.37,171.12z"/>
		<path class="st0" d="M285.75,60.88c24.85,20.2,49.69,40.4,74.52,60.61c14.17,11.53,28.57,23.26,43.14,35.13l-120.81,0
			c-29.89,0-59.78,0-89.67,0c15.38-5.23,31.46-8.97,48.11-11.17c4.47-0.59,7.91-0.87,10.84-0.88c12.25-0.03,20.03-5.27,24.4-9.67
			c4.38-4.41,9.6-12.28,9.55-24.76C285.77,93.79,285.75,77.27,285.75,60.88 M256.76,0c0,2.44,0,3.83,0,5.22
			c0,35.01-0.05,70.02,0.08,105.02c0.01,3.84-1.05,5.31-5.01,5.32c-4.86,0.01-9.75,0.49-14.58,1.13
			c-32.45,4.3-63.29,13.78-92.27,29.11c-20.42,10.8-39.47,23.57-56.17,39.66c1.58,0.05,3.15,0.15,4.73,0.15
			c63.03,0,126.04,0,189.07,0c67.14,0,134.3,0,201.44,0c-0.71-0.82-1.32-1.77-2.14-2.44C447.47,155.1,413.03,127.04,378.58,99
			c-33.35-27.14-66.72-54.27-100.08-81.4C271.48,11.9,264.44,6.22,256.76,0L256.76,0z"/>
	</g>
</g>
</svg>
