<svg xmlns="http://www.w3.org/2000/svg" width="47" height="47" viewBox="0 0 47 47">
  <g id="Group_5748" data-name="Group 5748" transform="translate(-25 -620)">
    <g id="Group_398" data-name="Group 398" transform="translate(25 620)">
      <circle id="Ellipse_3" data-name="Ellipse 3" cx="23.5" cy="23.5" r="23.5" fill="#cecece"/>
      <g id="mobile-payment" transform="translate(8 8)">
        <path id="Path_1255" data-name="Path 1255" d="M2.848,248.944A.444.444,0,0,0,2.4,248.5H.444a.444.444,0,1,0,0,.888H2.4A.444.444,0,0,0,2.848,248.944Z" transform="translate(0 -233.796)" fill="#2d2d2d"/>
        <path id="Path_1256" data-name="Path 1256" d="M32.993,347.96l-1.7.98a.444.444,0,1,0,.444.769l1.7-.98a.444.444,0,0,0-.444-.769Z" transform="translate(-29.234 -327.314)" fill="#2d2d2d"/>
        <path id="Path_1257" data-name="Path 1257" d="M439.6,348.939l-1.7-.98a.444.444,0,1,0-.444.769l1.7.98a.444.444,0,0,0,.444-.769Z" transform="translate(-411.361 -327.314)" fill="#2d2d2d"/>
        <path id="Path_1258" data-name="Path 1258" d="M466.272,248.5h-1.961a.444.444,0,0,0,0,.888h1.961a.444.444,0,0,0,0-.888Z" transform="translate(-436.42 -233.796)" fill="#2d2d2d"/>
        <path id="Path_1259" data-name="Path 1259" d="M437.676,134.4a.442.442,0,0,0,.221-.06l1.7-.98a.444.444,0,1,0-.444-.769l-1.7.98a.444.444,0,0,0,.222.828Z" transform="translate(-411.36 -124.691)" fill="#2d2d2d"/>
        <path id="Path_1260" data-name="Path 1260" d="M33.437,133.572l-1.7-.98a.444.444,0,1,0-.444.769l1.7.98a.444.444,0,0,0,.444-.769Z" transform="translate(-29.234 -124.69)" fill="#2d2d2d"/>
        <path id="Path_1261" data-name="Path 1261" d="M217.772,464.756a.444.444,0,1,0,0-.888h-1.96a.444.444,0,1,0,0,.888Z" transform="translate(-202.624 -436.42)" fill="#2d2d2d"/>
        <path id="Path_1262" data-name="Path 1262" d="M193.412,33.133h-2.451a.444.444,0,0,0,0,.888h2.451a.444.444,0,1,0,0-.888Z" transform="translate(-179.244 -31.172)" fill="#2d2d2d"/>
        <path id="Path_1263" data-name="Path 1263" d="M266,33.133h-.49a.444.444,0,0,0,0,.888H266a.444.444,0,1,0,0-.888Z" transform="translate(-249.383 -31.172)" fill="#2d2d2d"/>
        <path id="Path_1264" data-name="Path 1264" d="M115.972,10.173V2.4a2.407,2.407,0,0,0-2.4-2.4H101.8a2.407,2.407,0,0,0-2.4,2.4V5.438a.444.444,0,0,0,.888,0V3.829h2.439a.44.44,0,0,1,.4.245,1.323,1.323,0,0,0,1.19.735h6.746a1.323,1.323,0,0,0,1.19-.735.44.44,0,0,1,.4-.245h2.439V9.364a7.306,7.306,0,1,0,0,11.568v4.555H104.653a.444.444,0,0,0,0,.888h10.432v1.517a1.518,1.518,0,0,1-1.517,1.517H101.8a1.519,1.519,0,0,1-1.517-1.517V26.375h2.59a.444.444,0,0,0,0-.888h-2.59V7.213a.444.444,0,0,0-.888,0V27.892a2.407,2.407,0,0,0,2.4,2.4h11.763a2.407,2.407,0,0,0,2.4-2.4V20.123a7.291,7.291,0,0,0,0-9.949Zm-11.748,5.418H105.3a5.322,5.322,0,0,0,1.248,3.007l-.761.761A6.391,6.391,0,0,1,104.224,15.592Zm1.563-4.655.761.761A5.322,5.322,0,0,0,105.3,14.7h-1.076A6.392,6.392,0,0,1,105.788,10.937Zm4.839,8.669a4.458,4.458,0,1,1,4.458-4.458A4.463,4.463,0,0,1,110.627,19.606Zm3.451-8.536a5.321,5.321,0,0,0-3.007-1.248V8.745a6.392,6.392,0,0,1,3.768,1.563Zm-3.895-1.248a5.322,5.322,0,0,0-3.007,1.248l-.761-.761a6.391,6.391,0,0,1,3.768-1.563Zm-3.007,9.405a5.321,5.321,0,0,0,3.007,1.248v1.076a6.392,6.392,0,0,1-3.768-1.563Zm3.895,1.248a5.322,5.322,0,0,0,3.007-1.248l.761.761a6.392,6.392,0,0,1-3.768,1.563Zm4.4-1.115-.761-.761a5.322,5.322,0,0,0,1.248-3.007h1.076A6.392,6.392,0,0,1,115.466,19.36Zm.488-4.655a5.322,5.322,0,0,0-1.248-3.007l.761-.761A6.391,6.391,0,0,1,117.03,14.7ZM112.645,2.941a1.323,1.323,0,0,0-1.19.735.44.44,0,0,1-.4.245h-6.746a.44.44,0,0,1-.4-.245,1.323,1.323,0,0,0-1.19-.736h-2.439V2.4A1.518,1.518,0,0,1,101.8.888h11.763A1.518,1.518,0,0,1,115.084,2.4v.537h-2.439Z" transform="translate(-93.518)" fill="#2d2d2d"/>
        <path id="Path_1265" data-name="Path 1265" d="M263.374,200.276a.733.733,0,0,1,.733.733.444.444,0,1,0,.888,0,1.623,1.623,0,0,0-1.176-1.558v-.207a.444.444,0,0,0-.888,0v.207a1.62,1.62,0,0,0,.444,3.178.733.733,0,1,1-.733.733.444.444,0,0,0-.888,0,1.623,1.623,0,0,0,1.176,1.558v.207a.444.444,0,1,0,.888,0v-.207a1.62,1.62,0,0,0-.444-3.178.733.733,0,0,1,0-1.465Z" transform="translate(-246.266 -187.037)" fill="#2d2d2d"/>
      </g>
    </g>
  </g>
</svg>
