<?xml version="1.0" encoding="utf-8"?>
<!-- Generator: Adobe Illustrator 27.0.0, SVG Export Plug-In . SVG Version: 6.00 Build 0)  -->
<svg version="1.1" id="Layer_1" xmlns="http://www.w3.org/2000/svg" xmlns:xlink="http://www.w3.org/1999/xlink" x="0px" y="0px"
	 viewBox="0 0 196.74 273" style="enable-background:new 0 0 196.74 273;" xml:space="preserve">
<style type="text/css">
	.st0{fill:#006318;}
	.st1{fill:#279436;}
	.st2{fill:#FFFFFF;}
	.st3{fill:#5E5DA9;}
	.st4{fill:#534A9E;}
	.st5{fill:#3BA2DB;}
	.st6{fill:#0A62AE;}
	.st7{fill:#EAA325;}
	.st8{fill:#E57B15;}
	.st9{fill:#E82828;}
	.st10{fill:#BB000C;}
	.st11{fill:#7B7B7B;}
	.st12{fill:#434343;}
</style>
<g>
	<g>
		<g>
			<polygon class="st0" points="132.08,273 132.08,196.74 196.74,196.74 			"/>
			<g>
				<g>
					<rect class="st1" width="196.74" height="196.74"/>
					<g>
						<path class="st2" d="M93.33,130.48c-9.53,1.15-18.62,1.39-27.34-2.11c-12.25-4.92-19.57-14.01-22.13-26.95
							c-0.99-4.98-1.36-10-0.95-15.06c0.08-1.01-0.22-1.01-1.01-0.72c-2.55,0.96-4.88,2.3-6.97,4.04c-0.58,0.48-1.14,1.05-2,0.56
							c-0.84-0.49-0.71-1.28-0.53-2.01c2.13-8.62,6.58-15.61,14.47-20.03c1.42-0.8,2.72-1.56,3.55-2.99
							c0.3-0.52,0.76-0.95,1.26-1.56c0.21,0.72,0.37,1.26,0.53,1.79c2.32,7.56,7.76,12.07,14.81,14.88
							c3.95,1.58,8.08,2.29,12.36,1.71c0.74-0.1,1.02,0.09,0.71,0.83c-0.72,1.7-0.18,2.77,1.28,3.96c2.82,2.28,4.5,5.42,5.44,8.93
							c0.15,0.57,0.44,1.26-0.12,1.76c-0.62,0.56-1.12-0.05-1.65-0.32c-1.99-0.99-4.14-1.2-6.32-1.3c-0.49-0.02-0.82,0.11-0.87,0.72
							c-0.72,8.67,0.19,16.98,5.3,24.38c2.37,3.44,5.39,6.2,8.82,8.54C92.31,129.76,92.66,130.01,93.33,130.48z"/>
						<path class="st2" d="M122.26,34.51c2.44,0.05,5.34,0.29,8.17,1.15c8.52,2.59,12.37,9.34,10.27,18
							c-1.05,4.32-3.08,8.18-5.55,11.83c-3.17,4.7-6.26,9.45-8.28,14.79c-0.79,2.08-1.37,4.21-1.41,6.45
							c-0.05,3.42,1.81,5.59,5.18,6.15c3.19,0.53,6.28-0.02,9.3-0.94c8.46-2.56,15.63-7.19,21.62-13.66
							c0.21-0.23,0.4-0.47,0.62-0.69c0.72-0.74,1.55-0.94,2.34-0.2c0.78,0.73,0.68,1.56,0,2.35c-1.97,2.29-4.16,4.36-6.54,6.21
							c-6.34,4.92-13.29,8.61-21.29,9.96c-2.36,0.4-4.75,0.59-7.12-0.01c-5.25-1.32-7.89-5.2-7.23-10.57
							c0.44-3.61,1.71-6.94,3.28-10.18c2.06-4.23,4.69-8.12,7.28-12.03c2.01-3.04,3.7-6.24,4.64-9.79
							c2.01-7.6-1.33-13.14-8.99-14.94c-5.67-1.33-11.27-0.73-16.82,0.67c-9.97,2.52-18.7,7.41-26.5,14.04
							c-0.26,0.22-0.81,0.37-0.5,0.91c1.19,2.09,0.83,4.32,0.5,6.49c-0.92,5.91-2.65,11.64-3.99,17.45c-0.11,0.46-0.3,0.73-0.86,0.8
							c-9.02,1.08-16.46-1.85-22.32-8.76c-2.13-2.5-3.02-5.56-3.56-8.74c-0.1-0.58,0.4-0.75,0.72-1.01
							c4.69-3.86,10.12-6.08,16.03-7.25c3.22-0.64,6.49-0.89,9.77-0.96c0.47-0.01,0.77-0.12,1.14-0.45
							c9.21-8.18,19.68-13.92,31.85-16.32C116.55,34.77,119.15,34.55,122.26,34.51z M76.24,59.75c-0.02-1.29-1.12-2.3-2.44-2.25
							c-1.25,0.05-2.24,1.09-2.22,2.34c0.03,1.3,1.11,2.3,2.43,2.25C75.27,62.03,76.26,60.99,76.24,59.75z"/>
						<path class="st2" d="M75.9,153.66c-9.3-0.05-19.88,0.04-30.44-0.75c-0.93-0.07-1.85-0.18-2.77-0.3
							c-0.47-0.06-1.04-0.1-1.16-0.7c-0.13-0.63,0.42-0.81,0.85-1.02c1.74-0.87,2.95-2.22,3.71-4c0.47-1.1,0.54-2.2,0.1-3.35
							c-0.76-1.98-1.09-4.02-0.49-6.11c0.95-3.28,3.95-4.02,6.27-1.54c0.48,0.51,0.92,1.09,1.24,1.71c3.3,6.29,8.65,9.37,15.58,9.96
							c3.7,0.32,7.42,0.72,11.13,0.2c4.4-0.62,8.21-2.66,11.8-5.15c2.4-1.66,4.76-3.38,7.18-5.01c1.25-0.84,2.63-1.45,4.19-1.51
							c2.58-0.1,4.33,1.4,4.49,4.01c0.11,1.81,0.01,3.63,0.01,5.44c0,2.05,0.36,3.86,2.58,4.77c0.85,0.35,0.74,1.15-0.23,1.68
							c-1.31,0.72-2.77,0.87-4.23,0.96C96.21,153.51,86.69,153.47,75.9,153.66z"/>
						<path class="st2" d="M133.31,153.97c-5.31,0.08-10.62-0.08-15.89-0.81c-0.71-0.1-1.93,0.18-1.97-0.85
							c-0.04-1.12,1.22-0.78,1.9-0.89c5.45-0.9,10.42-3,15.13-5.8c2.17-1.29,4.3-2.64,6.45-3.95c1.15-0.7,2.37-1.15,3.72-1.31
							c2.35-0.28,3.81,0.46,4.82,2.61c0.87,1.85,1.23,3.87,1.85,5.8c0.29,0.93,0.6,1.81,1.36,2.53c0.94,0.88,0.63,1.85-0.69,2.03
							c-2.23,0.3-4.48,0.55-6.73,0.62C139.94,154.05,136.62,153.97,133.31,153.97z"/>
						<path class="st2" d="M93.47,130.51c0.76-0.89,1.41-1.6,1.99-2.36c2.57-3.38,3.63-7.32,4.18-11.44
							c0.13-1.01,0.19-2.02,0.28-3.04c0.1-1.14,0.47-1.35,1.56-0.87c2.27,0.99,3.97,4.04,3.84,6.92c-0.03,0.65-0.12,1.3-0.2,2.07
							c2.3-0.53,4.44-1.32,6.54-2.22c0.74-0.32,1.49-0.67,2.22,0.01c0.71,0.66,0.49,1.46,0.27,2.23c-0.88,3.05-2.78,5.33-5.52,6.84
							C103.9,131.25,98.89,131.75,93.47,130.51z"/>
						<path class="st2" d="M54.95,48.74c-1.95-0.01-3.15-0.99-3.56-2.76c-0.41-1.79,0.45-3.83,1.93-4.55
							c2.1-1.03,5.32-0.21,6.71,1.69c1.46,2.01,0.75,4.28-1.59,5.07C57.26,48.6,56,48.56,54.95,48.74z"/>
						<path class="st2" d="M36.19,141.8c-2.3,0.02-4.45-2.19-4.52-4.65c-0.06-1.97,1.78-3.51,4.18-3.5
							c2.62,0.01,4.82,2.06,4.81,4.48C40.64,140.01,38.5,141.77,36.19,141.8z"/>
						<path class="st2" d="M132.4,123.32c0,2.07-2.4,4.06-4.93,4.09c-2.19,0.03-3.87-1.61-3.83-3.71c0.04-2.11,2.5-4.26,4.85-4.25
							C130.61,119.46,132.39,121.23,132.4,123.32z"/>
						<path class="st2" d="M146.8,132.29c-2.31-0.03-3.57-1.58-3.14-3.85c0.56-2.94,2.94-4.55,5.84-3.95
							c2.07,0.43,2.97,1.87,2.43,3.91C151.36,130.56,149.03,132.32,146.8,132.29z"/>
						<path class="st2" d="M107.54,59.03c-0.14,3.11-1.27,4.53-3.53,4.45c-2.44-0.09-4.34-1.98-4.21-4.19
							c0.13-2.32,2.02-4.02,4.33-3.89C106.17,55.52,107.63,57.07,107.54,59.03z"/>
					</g>
				</g>
			</g>
		</g>
	</g>
</g>
<g>
	<rect x="-505.01" y="-140" class="st3" width="46" height="46"/>
	<rect x="-459.01" y="-140" class="st4" width="46" height="46"/>
</g>
<g>
	<rect x="-505.01" y="-85" class="st1" width="46" height="46"/>
	<rect x="-459.01" y="-85" class="st0" width="46" height="46"/>
</g>
<g>
	<rect x="-505.01" y="-19" class="st5" width="46" height="46"/>
	<rect x="-459.01" y="-19" class="st6" width="46" height="46"/>
</g>
<g>
	<rect x="-505.01" y="51" class="st7" width="46" height="46"/>
	<rect x="-459.01" y="51" class="st8" width="46" height="46"/>
</g>
<g>
	<rect x="-505.01" y="121" class="st9" width="46" height="46"/>
	<rect x="-459.01" y="121" class="st10" width="46" height="46"/>
</g>
<g>
	<rect x="-505.01" y="196" class="st11" width="46" height="46"/>
	<rect x="-459.01" y="196" class="st12" width="46" height="46"/>
</g>
</svg>
