<?xml version="1.0" encoding="utf-8"?>
<!-- Generator: Adobe Illustrator 27.0.0, SVG Export Plug-In . SVG Version: 6.00 Build 0)  -->
<svg version="1.1" id="Layer_1" xmlns="http://www.w3.org/2000/svg" xmlns:xlink="http://www.w3.org/1999/xlink" x="0px" y="0px"
	 viewBox="0 0 196.74 273" style="enable-background:new 0 0 196.74 273;" xml:space="preserve">
<style type="text/css">
	.st0{fill:#434343;}
	.st1{fill:#7B7B7B;}
	.st2{fill:#FFFFFF;}
	.st3{fill:#5E5DA9;}
	.st4{fill:#534A9E;}
	.st5{fill:#279436;}
	.st6{fill:#006318;}
	.st7{fill:#3BA2DB;}
	.st8{fill:#0A62AE;}
	.st9{fill:#EAA325;}
	.st10{fill:#E57B15;}
	.st11{fill:#E82828;}
	.st12{fill:#BB000C;}
</style>
<g>
	<g>
		<g>
			<polygon class="st0" points="132.08,273 132.08,196.74 196.74,196.74 			"/>
			<g>
				<g>
					<rect class="st1" width="196.74" height="196.74"/>
				</g>
				<g>
					<path class="st2" d="M98.31,110.17c-11.23,0-22.47,0.03-33.7-0.03c-1.43-0.01-1.87,0.35-1.87,1.83
						c0.05,14.61,0.02,29.22,0.06,43.83c0,1.38-0.27,1.95-1.8,1.88c-2.79-0.13-5.59-0.11-8.38-0.01c-1.36,0.05-1.76-0.29-1.76-1.72
						c0.06-14.61,0.01-29.22,0.08-43.82c0.01-1.59-0.36-2.07-1.98-1.99c-2.84,0.14-5.69,0.01-8.54,0.05
						c-0.96,0.01-1.41-0.17-1.41-1.29c0.03-14.98,0.03-29.96,0-44.93c0-1.13,0.48-1.29,1.42-1.28c3.06,0.04,6.12-0.03,9.18,0.04
						c1.06,0.02,1.37-0.34,1.31-1.35c-0.08-1.21,0.01-2.43-0.03-3.64c-0.02-0.68,0.23-0.94,0.91-0.92c1.16,0.03,2.33-0.06,3.48,0.03
						c1.15,0.09,1.61-0.26,1.55-1.48c-0.09-1.73-0.06-3.48,0.03-5.22c0.32-6.11,5.28-10.89,11.47-11.08
						c6.14-0.19,11.42,4.33,12.05,10.44c0.21,2.04,0.16,4.11,0.15,6.16c0,0.89,0.3,1.22,1.19,1.18c1.21-0.06,2.43,0.02,3.64-0.03
						c0.82-0.03,1.13,0.26,1.1,1.09c-0.05,1.21,0.02,2.43-0.02,3.64c-0.02,0.75,0.15,1.18,1.03,1.18c7.23-0.02,14.45-0.02,21.68,0
						c0.88,0,1.06-0.39,1.04-1.15c-0.04-1.21,0.02-2.43-0.02-3.64c-0.03-0.8,0.25-1.15,1.09-1.12c1.21,0.05,2.43-0.04,3.64,0.03
						c0.98,0.06,1.26-0.3,1.26-1.26c0.01-2.21-0.18-4.43,0.19-6.63c1.02-6.08,6.38-10.3,12.55-9.86
						c6.08,0.44,10.79,5.34,10.95,11.44c0.04,1.58,0.08,3.17,0,4.75c-0.06,1.19,0.22,1.75,1.55,1.61c1.15-0.12,2.32,0.01,3.48-0.04
						c0.77-0.03,1.01,0.26,0.98,1.01c-0.05,1.21,0.05,2.43-0.03,3.64c-0.07,1.02,0.34,1.24,1.27,1.22c3.11-0.05,6.22,0.01,9.33-0.03
						c0.93-0.01,1.3,0.24,1.3,1.24c-0.03,15.03-0.02,30.06,0,45.09c0,0.91-0.33,1.18-1.2,1.17c-2.9-0.04-5.8,0.07-8.7-0.05
						c-1.53-0.06-2.03,0.28-2.02,1.95c0.08,14.61,0.03,29.22,0.08,43.83c0,1.36-0.28,1.82-1.71,1.76c-2.84-0.12-5.7-0.1-8.54-0.01
						c-1.32,0.04-1.68-0.37-1.67-1.68c0.04-14.56,0.03-29.11,0.03-43.67c0-2.15,0-2.15-2.12-2.15
						C120.67,110.17,109.49,110.17,98.31,110.17z M74.33,74.62c-3.39,0-6.81,0.06-10.22-0.03c-1.09-0.03-1.55,0.39-2,1.3
						c-3.47,7.03-7,14.03-10.5,21.05c-0.2,0.4-0.56,0.78-0.41,1.43c3.39,0,6.81-0.05,10.22,0.03c1.09,0.03,1.55-0.39,2-1.29
						c3.47-7.03,7-14.03,10.5-21.05C74.12,75.65,74.48,75.27,74.33,74.62z M98.36,74.62c-3.65,0-7.01,0.05-10.38-0.03
						c-1.09-0.02-1.66,0.31-2.15,1.31c-3.46,7.03-7,14.03-10.49,21.05c-0.2,0.4-0.57,0.78-0.39,1.4c3.56,0,7.13-0.03,10.71,0.02
						c0.82,0.01,1.06-0.44,1.35-1.03c1.92-3.87,3.85-7.72,5.78-11.58C94.61,82.15,96.41,78.53,98.36,74.62z M98.4,98.36
						c3.7,0,7.12-0.04,10.54,0.02c0.98,0.02,1.47-0.3,1.9-1.19c3.49-7.08,7.05-14.13,10.57-21.19c0.2-0.4,0.58-0.77,0.37-1.38
						c-3.4,0-6.82,0.04-10.24-0.02c-0.98-0.02-1.47,0.3-1.9,1.19c-3.09,6.28-6.24,12.53-9.37,18.79
						C99.68,95.75,99.11,96.92,98.4,98.36z M145.81,74.62c-3.7,0-7.13,0.04-10.55-0.02c-0.99-0.02-1.47,0.31-1.9,1.19
						c-3.49,7.08-7.05,14.13-10.57,21.19c-0.2,0.39-0.59,0.77-0.36,1.37c3.4,0,6.82-0.04,10.24,0.02c0.99,0.02,1.46-0.31,1.9-1.19
						c3.25-6.61,6.57-13.19,9.87-19.78C144.87,76.57,145.27,75.73,145.81,74.62z"/>
				</g>
			</g>
		</g>
	</g>
</g>
<g>
	<rect x="-505.01" y="-140" class="st3" width="46" height="46"/>
	<rect x="-459.01" y="-140" class="st4" width="46" height="46"/>
</g>
<g>
	<rect x="-505.01" y="-85" class="st5" width="46" height="46"/>
	<rect x="-459.01" y="-85" class="st6" width="46" height="46"/>
</g>
<g>
	<rect x="-505.01" y="-19" class="st7" width="46" height="46"/>
	<rect x="-459.01" y="-19" class="st8" width="46" height="46"/>
</g>
<g>
	<rect x="-505.01" y="51" class="st9" width="46" height="46"/>
	<rect x="-459.01" y="51" class="st10" width="46" height="46"/>
</g>
<g>
	<rect x="-505.01" y="121" class="st11" width="46" height="46"/>
	<rect x="-459.01" y="121" class="st12" width="46" height="46"/>
</g>
<g>
	<rect x="-505.01" y="196" class="st1" width="46" height="46"/>
	<rect x="-459.01" y="196" class="st0" width="46" height="46"/>
</g>
</svg>
