<?xml version="1.0" encoding="utf-8"?>
<!-- Generator: Adobe Illustrator 27.0.0, SVG Export Plug-In . SVG Version: 6.00 Build 0)  -->
<svg version="1.1" id="Layer_1" xmlns="http://www.w3.org/2000/svg" xmlns:xlink="http://www.w3.org/1999/xlink" x="0px" y="0px"
	 viewBox="0 0 284.06 409.46" style="enable-background:new 0 0 284.06 409.46;" xml:space="preserve">
<style type="text/css">
	.st0{fill:#727373;}
	.st1{fill:#FFFFFF;}
</style>
<g>
	<g>
		<path class="st0" d="M24.25,261.04c-2.52,0-5.05-0.5-7.52-1.5c-5.04-2.03-8.89-5.79-10.83-10.59c-2.05-5.06-1.84-10.87,0.6-16.37
			c3.29-7.42,6.74-14.92,10.07-22.16c1.71-3.73,3.43-7.46,5.13-11.19c2.94-6.46,5.9-12.92,8.85-19.38
			c8.01-17.51,16.29-35.61,24.22-53.5c4.23-9.53,11.32-14.36,21.09-14.38c5.16-0.01,10.32-0.05,15.48-0.08
			c5.71-0.04,11.41-0.08,17.12-0.08c10,0,18.15,0.14,25.67,0.43c7.29,0.28,13.05,3.65,17.12,10.02c4.43,6.93,9.01,13.94,13.44,20.72
			c4.21,6.44,8.56,13.1,12.79,19.7c5.43-2.14,10.78-4.07,15.93-5.74c0.7-0.23,0.91-0.39,0.94-0.41c0,0,0.12-0.24,0.23-0.92
			c2.96-18.62,6.21-37.3,8.73-51.63c-10.1-0.79-16.98-6.8-20.45-17.9c-2.59-8.27-5.85-16.56-9-24.58l-0.9-2.3
			c-3.05-7.79-1.92-14.93,3.37-21.22c7.96-9.46,15.72-18.96,21.59-26.18c2.64-3.24,5.99-5.02,8.94-6.59l1.36-0.72h8.59l0.57,0.15
			c4.93,1.31,9.93,2.07,15.22,2.88c3.25,0.5,6.61,1.01,9.93,1.66c2.31,0.45,4.21,0.75,6.01,0.94c9.13,0.96,15.37,6.15,18.55,15.42
			c3.4,9.94,7.2,19.87,10.8,29.13c3.07,7.89,1.87,15.14-3.56,21.55l-0.58,0.68c-6.42,7.57-13.06,15.4-19.17,23.36
			c-4.67,6.08-10.43,9.17-17.12,9.17c-2.03,0-4.17-0.29-6.35-0.87c-0.03-0.01-0.06-0.01-0.08-0.02
			c-1.84,12.34-4.02,24.81-6.13,36.87c-0.61,3.5-1.22,6.99-1.83,10.49c0.01,0.01,0.03,0.02,0.04,0.04
			c5.74,4.67,8.58,11.5,7.59,18.25c-1,6.82-5.74,12.61-12.68,15.5c-0.99,0.41-1.18,0.64-1.49,1.35c-2.19,4.98-7,8.2-12.27,8.2
			c-2.25,0-4.51-0.6-6.51-1.73c-0.08-0.05-0.36-0.2-0.49-0.2c-0.13,0-0.43,0.05-1.12,0.29c-1.67,0.59-3.34,1.19-5.01,1.79
			c-4.99,1.79-10.15,3.65-15.36,5.22c-2.59,0.78-4.94,1.16-7.19,1.16c-6.48,0-11.77-3.18-16.18-9.73c-0.66-0.98-1.31-1.96-1.96-2.95
			c-0.03,11.74-0.04,23.7,0.06,35.49c0.02,1.88-0.2,4.28-2.01,6.11c-1.83,1.85-4.29,2.06-5.98,2.06
			c-13.31-0.06-26.51-0.09-39.32-0.09c-13.15,0-26.3,0.03-39.08,0.1c0,0,0,0,0,0c-1.84,0-4.38-0.22-6.26-2.14
			c-1.86-1.89-2.06-4.37-2.02-6.32c0.06-3.18,0.08-6.33,0.09-9.52c-0.54,1.18-1.08,2.36-1.61,3.54
			c-3.93,8.62-7.99,17.53-12.04,26.27C38.64,256.38,31.91,261.04,24.25,261.04z M113.97,149.88c0.8,5.67,2.19,12.05,5.88,17.46
			c0.74,1.08,1.31,1.59,1.6,1.78c0.27-0.18,0.8-0.65,1.48-1.62c3.67-5.24,5.12-11.51,6.04-17.62c-2.52-0.99-5.05-1.48-7.52-1.48
			C118.98,148.39,116.47,148.89,113.97,149.88z"/>
		<path class="st1" d="M216.23,9c8.36,2.22,16.99,2.95,25.45,4.61c2.12,0.41,4.26,0.77,6.41,0.99c7.74,0.81,12.27,5.13,14.76,12.4
			c3.37,9.85,7.09,19.59,10.86,29.3c2.46,6.33,1.6,11.82-2.8,17.01c-6.75,7.97-13.53,15.93-19.89,24.21
			c-3.78,4.93-8.24,7.41-13.55,7.41c-1.65,0-3.38-0.24-5.21-0.72c-1-0.26-1.84-0.42-2.54-0.42c-1.77,0-2.68,1.03-3.14,4.07
			c-2.37,15.84-5.24,31.6-7.97,47.38c-0.31,1.82,0.13,2.96,1.65,4.2c9.65,7.86,7.58,21.3-3.98,26.1c-1.87,0.78-3.03,1.74-3.89,3.69
			c-1.53,3.48-4.76,5.52-8.15,5.52c-1.44,0-2.91-0.37-4.29-1.15c-0.99-0.56-1.86-0.78-2.7-0.78c-0.86,0-1.69,0.23-2.62,0.55
			c-6.71,2.37-13.37,4.89-20.17,6.94c-2.14,0.64-4.09,0.97-5.9,0.97c-5.06,0-8.95-2.54-12.45-7.75c-3.19-4.74-6.25-9.57-9.44-14.46
			c-1.32,1.19-0.73,2.53-0.73,3.68c-0.05,15.29-0.1,30.58,0.03,45.87c0.02,2.79-0.63,3.63-3.49,3.63c-0.02,0-0.05,0-0.07,0
			c-13.11-0.06-26.21-0.09-39.32-0.09c-13.01,0-26.02,0.03-39.03,0.1c-0.02,0-0.05,0-0.07,0c-3.05,0-3.74-0.98-3.69-3.88
			c0.17-9.41,0.06-18.82,0.06-28.67c-1.6,1.05-1.84,2.48-2.37,3.65c-6.63,14.44-13.16,28.92-19.84,43.34
			c-2.94,6.35-8.17,9.85-13.93,9.85c-1.91,0-3.87-0.38-5.83-1.17c-8.3-3.35-11.7-12.17-7.8-20.96
			c4.95-11.15,10.12-22.21,15.18-33.31c11.07-24.29,22.27-48.52,33.1-72.92c3.41-7.68,8.76-11.69,16.98-11.7
			c10.87-0.01,21.74-0.17,32.6-0.17c8.49,0,16.99,0.09,25.48,0.42c5.87,0.23,10.27,2.89,13.51,7.95
			c8.71,13.62,17.68,27.07,26.39,40.68c0.92,1.44,1.75,2.13,2.91,2.13c0.55,0,1.17-0.15,1.91-0.45c5.31-2.11,10.69-4.06,16.13-5.83
			c2.57-0.84,3.77-2.03,4.23-4.9c2.77-17.45,5.78-34.86,8.84-52.26c0.52-2.96-0.03-4.38-3.27-4.51
			c-9.63-0.38-14.66-5.94-17.44-14.81c-2.88-9.2-6.48-18.19-10-27.17c-2.42-6.19-1.66-11.58,2.63-16.68
			c7.29-8.68,14.48-17.44,21.64-26.23c2.15-2.65,5.05-4.11,7.94-5.65C211.65,9,213.94,9,216.23,9 M121.46,173.68
			c1.74,0,3.48-1.2,5.17-3.6c4.32-6.17,5.94-13.33,6.99-20.88c0.06-1.55-0.94-2.66-2.43-3.28c-3.24-1.35-6.49-2.02-9.73-2.02
			c-3.27,0-6.54,0.69-9.79,2.07c-1.5,0.63-2.52,1.8-2.28,3.57c0.96,7.21,2.59,14.23,6.75,20.34
			C117.87,172.41,119.66,173.68,121.46,173.68 M217.41,0h-1.17h-6.88h-2.24l-1.98,1.05l-0.37,0.19c-3.17,1.68-7.11,3.77-10.32,7.72
			c-5.87,7.21-13.62,16.69-21.55,26.12c-6.34,7.54-7.76,16.45-4.12,25.76l0.91,2.33c3.12,7.94,6.34,16.15,8.88,24.25
			c4.1,13.1,12.05,18.39,19.53,20.25c-2.41,13.74-5.1,29.41-7.68,45.5c-3.64,1.21-7.37,2.54-11.14,3.97
			c-3.61-5.6-7.27-11.2-10.83-16.65c-4.42-6.77-8.99-13.76-13.41-20.67c-4.84-7.57-12.01-11.75-20.74-12.09
			c-7.57-0.29-15.78-0.43-25.83-0.43c-5.73,0-11.54,0.04-17.16,0.09c-5.07,0.04-10.31,0.08-15.46,0.08
			c-8.05,0.01-18.96,2.98-25.2,17.05c-7.91,17.84-16.18,35.91-24.18,53.39c-2.96,6.48-5.93,12.96-8.88,19.44
			c-1.69,3.71-3.39,7.41-5.09,11.11c-3.35,7.28-6.81,14.81-10.13,22.29c-2.93,6.62-3.17,13.68-0.66,19.88
			c2.41,5.94,7.13,10.58,13.32,13.07c3.01,1.21,6.1,1.83,9.2,1.83c9.46,0,17.72-5.63,22.09-15.07c2.26-4.87,4.52-9.79,6.75-14.69
			c0.41,0.68,0.91,1.34,1.53,1.97c3.42,3.49,7.9,3.49,9.38,3.49l0.11,0c12.74-0.06,25.86-0.1,38.99-0.1
			c12.8,0,26.02,0.03,39.28,0.09l0.11,0c1.44,0,5.82,0,9.18-3.39c3.37-3.4,3.33-7.86,3.31-9.32c-0.07-7.65-0.09-15.37-0.08-23.05
			c4,3.19,8.57,4.79,13.67,4.79c2.7,0,5.47-0.44,8.49-1.35c5.33-1.6,10.54-3.48,15.58-5.29c1.41-0.51,2.82-1.01,4.24-1.52
			c2.32,1.07,4.84,1.63,7.37,1.63c6.77,0,12.98-3.95,16.03-10.13c8.13-3.57,13.67-10.55,14.87-18.77c1.1-7.51-1.58-15.04-7.23-20.62
			c0.46-2.66,0.93-5.32,1.39-7.98c1.86-10.61,3.77-21.54,5.46-32.44c0.91,0.09,1.8,0.14,2.68,0.14c5.61,0,13.75-1.9,20.69-10.92
			c6.04-7.87,12.64-15.65,19.03-23.18l0.59-0.69c6.49-7.66,7.99-16.68,4.33-26.1c-3.58-9.21-7.36-19.09-10.74-28.95
			c-4.72-13.8-14.75-17.64-22.34-18.44c-1.66-0.17-3.45-0.45-5.62-0.88c-3.42-0.67-6.82-1.19-10.12-1.69
			c-5.17-0.79-10.05-1.54-14.75-2.78L217.41,0L217.41,0z M119.07,153.09c0.8-0.13,1.59-0.2,2.38-0.2c0.8,0,1.59,0.07,2.39,0.2
			c-0.55,2.72-1.29,5.4-2.39,7.88C120.34,158.43,119.6,155.74,119.07,153.09L119.07,153.09z"/>
	</g>
	<g>
		<path class="st0" d="M78.5,404.96c-11.68,0-21.36-9.07-22.52-21.09c-0.12-1.29-0.12-2.5-0.12-3.67l0-30
			c0.01-33.06,0.02-67.24-0.08-100.86c-0.01-2.48,0.26-5.05,2.23-7.02c2.01-2.01,4.76-2.25,6.66-2.25h0.15
			c12.17,0.09,24.6,0.13,38.01,0.13c12.22,0,25.02-0.04,39.11-0.11h0.11c1.95,0,4.42,0.24,6.31,2.14c1.89,1.91,2.12,4.42,2.11,6.4
			c-0.1,16.96-0.09,34.22-0.08,50.91c0,3.93,0.01,11.8,0.01,11.8l0.02,4.5c0,6.47,0.01,12.95,0.02,19.42
			c0.02,15.43,0.05,31.39-0.07,47.09c-0.1,12.84-9.87,22.52-22.73,22.52c-0.6,0-1.2-0.02-1.81-0.06
			c-10.48-0.74-19.6-9.85-20.34-20.31c-0.15-2.07-0.17-4.12-0.17-6.04l-0.01-16.21c-0.01-27.26-0.02-55.44,0.06-83.17
			c-1.51,0.02-3.04,0.04-4,0.13c-0.09,1.07-0.09,2.83-0.09,4.54l0,26.27c0,23.34-0.01,46.67,0.01,70.01
			c0.01,9.96-3.77,17.26-11.23,21.68C86.52,403.84,82.51,404.96,78.5,404.96z"/>
		<path class="st1" d="M64.69,244.58c0.04,0,0.08,0,0.12,0c12.68,0.09,25.36,0.13,38.04,0.13c13.05,0,26.09-0.04,39.14-0.11
			c0.03,0,0.06,0,0.09,0c3.11,0,3.94,0.88,3.93,4.01c-0.13,22.41-0.07,44.83-0.07,67.24c0.01,0,0.01,0,0.02,0
			c0,22.16,0.12,44.32-0.05,66.48c-0.08,10.56-8,18.05-18.23,18.05c-0.49,0-0.99-0.02-1.5-0.05c-8.3-0.58-15.58-7.83-16.17-16.14
			c-0.13-1.9-0.16-3.82-0.16-5.73c-0.01-33.24-0.04-66.48,0.06-99.72c0.01-3-0.63-4.17-3.77-4.17c-0.06,0-0.13,0-0.19,0
			c-9.13,0.13-9.13-0.02-9.13,9.18c0,32.09-0.01,64.19,0.01,96.28c0.01,7.5-2.33,13.84-9.02,17.8c-3.01,1.79-6.2,2.61-9.3,2.61
			c-8.91,0-17.05-6.82-18.04-17.03c-0.12-1.26-0.09-2.54-0.09-3.82c0-43.43,0.05-86.86-0.07-130.29
			C60.29,245.84,60.94,244.58,64.69,244.58 M64.69,235.58c-1.55,0-6.28,0-9.84,3.57c-3.56,3.57-3.55,8.22-3.54,10.21
			c0.09,33.69,0.08,67.95,0.07,101.09c0,9.72,0,19.45,0,29.17l0,0.56c0,1.22-0.01,2.6,0.14,4.12c1.38,14.35,12.99,25.16,26.99,25.16
			c4.82,0,9.62-1.34,13.89-3.87c3.85-2.28,8.16-6.04,10.83-12.11c3.92,8.71,12.52,15.14,22.32,15.83c0.71,0.05,1.43,0.08,2.13,0.08
			c15.41,0,27.11-11.6,27.23-26.98c0.12-15.73,0.09-31.69,0.07-47.14c-0.01-6.47-0.02-12.94-0.02-19.41v-9h-0.02
			c0-2.42,0-4.84,0-7.26c-0.01-16.7-0.02-33.96,0.08-50.93c0.01-1.51,0.04-6.12-3.42-9.6c-3.45-3.47-8.01-3.47-9.5-3.47l-0.14,0
			c-14.07,0.07-26.86,0.11-39.08,0.11c-13.4,0-25.82-0.04-37.98-0.13L64.69,235.58L64.69,235.58z"/>
	</g>
	<g>
		<path class="st0" d="M103.06,114.1c-21.16,0-38.52-16.79-39.54-38.22c-0.03-0.73,0.01-1.36,0.06-2.16
			c0.02-0.39,0.05-0.85,0.08-1.42l0.37-7.71l6.53,4.12c6.67,4.21,13.83,4.79,20.58,4.79c1.86,0,3.77-0.05,5.62-0.09l1.43-0.03
			c0.96-0.02,1.91-0.03,2.87-0.03c2.17,0,4.36,0.05,6.47,0.09c2.07,0.04,4.2,0.09,6.28,0.09c4.84,0,8.5-0.26,11.88-0.84
			c2.77-0.48,5.33-1.34,7.63-2.56c1.22-0.65,2.56-1.25,4.09-1.25c1.5,0,2.88,0.59,3.88,1.67c1.59,1.71,1.66,3.93,1.54,5.68
			c-1.14,16.5-9.61,28.52-24.48,34.77C113.43,113.05,108.28,114.1,103.06,114.1z"/>
		<path class="st1" d="M68.16,72.52c7.46,4.71,15.21,5.49,22.98,5.49c2.39,0,4.78-0.07,7.16-0.13c0.92-0.02,1.85-0.03,2.77-0.03
			c4.25,0,8.5,0.18,12.74,0.18c4.22,0,8.44-0.18,12.65-0.91c3.15-0.55,6.17-1.53,8.98-3.03c0.85-0.45,1.5-0.72,1.97-0.72
			c0.77,0,1.06,0.71,0.93,2.53c-1.02,14.72-8.29,25.29-21.73,30.93c-4.5,1.89-9.09,2.77-13.55,2.77
			c-18.01,0-34.11-14.25-35.04-33.93C67.99,74.92,68.08,74.17,68.16,72.52 M59.91,56.66l-0.74,15.43c-0.03,0.54-0.05,0.98-0.08,1.34
			c-0.06,0.86-0.11,1.68-0.06,2.66c1.12,23.84,20.46,42.51,44.03,42.51c5.82,0,11.56-1.17,17.04-3.47
			c16.54-6.95,25.95-20.3,27.22-38.61c0.1-1.41,0.4-5.7-2.74-9.06c-1.86-2-4.41-3.1-7.18-3.1c-2.54,0-4.65,0.95-6.2,1.78
			c-1.87,1-3.98,1.7-6.28,2.1c-3.11,0.54-6.54,0.78-11.11,0.78c-2.03,0-4.04-0.04-6.18-0.09c-2.14-0.05-4.35-0.09-6.57-0.09
			c-1.06,0-2.03,0.01-2.98,0.03l-1.44,0.03c-1.91,0.05-3.71,0.09-5.51,0.09c-7.02,0-12.8-0.7-18.18-4.1L59.91,56.66L59.91,56.66z"/>
	</g>
	<g>
		<path class="st0" d="M141.26,40.25c-11.14-0.11-23.07-0.15-38.7-0.15c-6.39,0-12.78,0.01-19.17,0.02
			C77,40.12,70.6,40.13,64.21,40.13l-2,0c-3.87,0-7.98-2.53-10.99-6.76c-2.9-4.09-3.86-8.45-2.63-11.98
			c1.21-3.48,4.3-7.62,12.13-7.62c6.55,0.02,13.02,0.03,19.49,0.03l23.47-0.01l21.85,0.01c6.57,0,13.14,0,19.71-0.02h0.12
			c2.54,0,8.5,0,11.73,5.81c2.95,5.3,0.43,9.65-1.23,12.53l-0.38,0.66c-3.77,6.65-9.4,7.5-13.88,7.5L141.26,40.25z"/>
		<path class="st1" d="M60.71,18.25c0.02,0,0.05,0,0.07,0c6.46,0.02,12.91,0.03,19.37,0.03c7.68,0,15.37-0.01,23.05-0.01
			c0.13,0,0.26,0,0.38,0c7.31,0,14.62,0.01,21.93,0.01c6.58,0,13.15,0,19.72-0.02c0.03,0,0.07,0,0.1,0c3.16,0,6.09,0.41,7.8,3.5
			c1.86,3.34,0.04,5.91-1.59,8.78c-2.33,4.1-5.41,5.22-9.97,5.22c-0.09,0-0.18,0-0.28,0c-12.92-0.12-25.85-0.15-38.77-0.15
			c-12.81,0-25.62,0.03-38.42,0.03c-0.64,0-1.27,0-1.91,0c-4.95,0-11-8.1-9.37-12.77C54.1,19.22,57.12,18.25,60.71,18.25
			 M60.71,9.25L60.71,9.25c-11.03,0-15,6.67-16.38,10.65c-1.71,4.93-0.54,10.78,3.21,16.07c3.85,5.42,9.33,8.66,14.66,8.66l1.91,0
			c6.41,0,12.81-0.01,19.22-0.02c6.4-0.01,12.8-0.02,19.2-0.02c15.62,0,27.55,0.05,38.68,0.15l0.36,0c3.03,0,12.25,0,17.8-9.78
			c0.12-0.21,0.24-0.42,0.36-0.63c1.77-3.06,5.45-9.44,1.26-16.96c-4.52-8.12-12.91-8.12-15.67-8.12l-0.13,0
			c-6.56,0.02-13.13,0.02-19.7,0.02l-10.96,0l-10.97,0h-0.38c-3.79,0-7.58,0-11.36,0c-3.9,0-7.79,0-11.69,0
			c-7.6,0-13.74-0.01-19.34-0.03L60.71,9.25L60.71,9.25z"/>
	</g>
	<g>
		<path class="st0" d="M103.58,70.05c-5.04,0-10.18-0.04-15.72-0.14c-13.55-0.23-24.84-8.25-28.77-20.45l-1.89-5.88l82,0
			c2.44,0,5.78,0,7.45,2.93c1.67,2.93-0.05,5.84-1.3,7.96c-5.83,9.86-15.1,15.2-26.8,15.44C113.77,70,108.73,70.05,103.58,70.05z"/>
		<path class="st1" d="M112.23,48.08c8.99,0,17.99,0,26.98,0c4.23,0,4.47,0.39,2.28,4.09c-5.17,8.74-13.03,13.02-23.02,13.23
			c-4.96,0.1-9.92,0.15-14.89,0.15c-5.21,0-10.43-0.05-15.64-0.14c-11.58-0.19-21.22-6.95-24.56-17.33c6.54,0,12.76,0,18.97,0
			C92.31,48.08,102.27,48.08,112.23,48.08 M112.23,39.08l-14.94,0l-14.94,0H63.38H51.03l3.79,11.76
			c4.53,14.06,17.47,23.32,32.98,23.57c5.56,0.09,10.73,0.14,15.79,0.14c5.18,0,10.25-0.05,15.07-0.15
			c13.34-0.27,23.92-6.37,30.58-17.64c1.4-2.36,4.3-7.28,1.34-12.48c-2.96-5.19-8.63-5.2-11.36-5.2
			C130.22,39.08,121.22,39.08,112.23,39.08L112.23,39.08z"/>
	</g>
</g>
</svg>
