<svg xmlns="http://www.w3.org/2000/svg" width="100" height="100" viewBox="0 0 100 100">
  <g id="Group_5694" data-name="Group 5694" transform="translate(-675.228 -920.228)">
    <circle id="Ellipse_9" data-name="Ellipse 9" cx="50" cy="50" r="50" transform="translate(675.228 920.228)" fill="#141c3d"/>
    <g id="Group_5596" data-name="Group 5596" transform="translate(697.227 949.227)">
      <path id="Path_944" data-name="Path 944" d="M447.293,276.826v29.8a1.224,1.224,0,0,0-.082.2,6.606,6.606,0,0,1-6.991,5.647q-21.3,0-42.6,0a6.611,6.611,0,0,1-6.835-6.815q-.01-13.932,0-27.864a7.386,7.386,0,0,1,.166-1.639,6.6,6.6,0,0,1,6.664-5.175q21.242-.005,42.485,0c.258,0,.516-.006.772.007a6.586,6.586,0,0,1,5.065,2.624A7.617,7.617,0,0,1,447.293,276.826ZM395.2,287.1v.579q0,8.91,0,17.821a2.262,2.262,0,0,0,2.536,2.557h42.594a2.263,2.263,0,0,0,2.546-2.546q0-8.911,0-17.821v-.59Zm47.657-6.66c0-1.06.062-2.09-.016-3.11a2.2,2.2,0,0,0-2.457-1.939q-21.351,0-42.7,0c-.147,0-.295,0-.441.012a2.128,2.128,0,0,0-2,1.885c-.08,1.037-.017,2.084-.017,3.153Z" transform="translate(-390.786 -270.975)" fill="#fff"/>
      <path id="Path_945" data-name="Path 945" d="M445.272,416.064v-4.347h29.066v4.347Z" transform="translate(-437.741 -392.263)" fill="#fff"/>
    </g>
  </g>
</svg>
