<svg id="Group_398" data-name="Group 398" xmlns="http://www.w3.org/2000/svg" width="47" height="47" viewBox="0 0 47 47">
  <circle id="Ellipse_3" data-name="Ellipse 3" cx="23.5" cy="23.5" r="23.5" fill="#ffe5b9"/>
  <g id="wallet" transform="translate(10.997 11)">
    <g id="Group_412" data-name="Group 412" transform="translate(0.003 0)">
      <g id="Group_411" data-name="Group 411">
        <path id="Path_23" data-name="Path 23" d="M24.076,12.716V9.171A2.288,2.288,0,0,0,21.966,6.9l-3.292-5.75A2.268,2.268,0,0,0,15.562.309L4.278,6.879H2.3A2.3,2.3,0,0,0,0,9.171V22.927A2.3,2.3,0,0,0,2.3,25.22H21.784a2.3,2.3,0,0,0,2.293-2.293V19.383a1.717,1.717,0,0,0,1.146-1.614V14.33A1.717,1.717,0,0,0,24.076,12.716ZM20.634,6.879h-5L19.385,4.7ZM18.816,3.7,13.36,6.879H11.1L18.25,2.714ZM16.139,1.3a1.108,1.108,0,0,1,.851-.115,1.124,1.124,0,0,1,.689.532v0L8.819,6.879H6.556ZM22.93,22.927a1.148,1.148,0,0,1-1.146,1.146H2.3a1.148,1.148,0,0,1-1.146-1.146V9.171A1.148,1.148,0,0,1,2.3,8.025H21.784A1.148,1.148,0,0,1,22.93,9.171V12.61H19.491a3.439,3.439,0,1,0,0,6.878H22.93Zm1.146-5.159a.574.574,0,0,1-.573.573H19.491a2.293,2.293,0,1,1,0-4.585H23.5a.574.574,0,0,1,.573.573Z" transform="translate(-0.003 0)" fill="#ec6421"/>
        <path id="Path_24" data-name="Path 24" d="M342.483,277.341a1.146,1.146,0,1,0,1.146,1.146A1.148,1.148,0,0,0,342.483,277.341Z" transform="translate(-322.995 -262.438)" fill="#ec6421"/>
      </g>
    </g>
  </g>
</svg>
