<svg xmlns="http://www.w3.org/2000/svg" width="100" height="100" viewBox="0 0 100 100">
  <g id="Group_5695" data-name="Group 5695" transform="translate(-675.228 -920.228)">
    <path id="Path_2664" data-name="Path 2664" d="M50,0A50,50,0,1,1,0,50,50,50,0,0,1,50,0Z" transform="translate(675.228 920.228)" fill="#ef0078"/>
    <g id="Group_5696" data-name="Group 5696" transform="translate(211.077 722.57)">
      <path id="Path_190" data-name="Path 190" d="M503.193,291.306a15.971,15.971,0,0,1,10.124,3.2.9.9,0,0,0,1.314.025,15.687,15.687,0,0,1,25.028,10.66c.554,4.264-.957,7.815-3.3,11.142a60,60,0,0,1-12.6,12.514c-2.734,2.127-5.6,4.079-8.413,6.11a2.134,2.134,0,0,1-2.672.024,102.125,102.125,0,0,1-17.1-13.872,34.5,34.5,0,0,1-5.658-7.52,13.769,13.769,0,0,1,.051-13.562C492.9,294.4,497.661,291.518,503.193,291.306Zm.17,3.862a11.435,11.435,0,0,0-9.962,6.579,10.138,10.138,0,0,0,.434,10.952,39.525,39.525,0,0,0,3.473,4.6,90.656,90.656,0,0,0,16.172,13.612c.5.347.808.15,1.183-.134,3.071-2.322,6.224-4.543,9.2-6.982a49.3,49.3,0,0,0,9.414-9.734c1.823-2.611,3.162-5.362,2.5-8.7-.929-4.695-3.527-8.048-8.087-9.568a11.182,11.182,0,0,0-11.829,2.738c-1.481,1.389-2.283,1.4-3.758-.017A11.913,11.913,0,0,0,503.363,295.168Z" transform="translate(0 -56.631)" fill="#fff"/>
      <path id="Path_191" data-name="Path 191" d="M591.035,221.952c0,1.028.019,2.056-.005,3.083a1.934,1.934,0,1,1-3.842-.016q-.035-3.083,0-6.166a1.94,1.94,0,1,1,3.844.016C591.049,219.9,591.035,220.924,591.035,221.952Z" transform="translate(-75.12 0)" fill="#fff"/>
      <path id="Path_192" data-name="Path 192" d="M540.807,251.387c-.311.421-.59,1.135-1.1,1.393a2.086,2.086,0,0,1-1.843.005,40.554,40.554,0,0,1-3.947-3.894,1.665,1.665,0,0,1,.22-2.276,1.587,1.587,0,0,1,2.173-.366c1.466,1.269,2.791,2.7,4.145,4.1C540.634,250.533,540.644,250.881,540.807,251.387Z" transform="translate(-34.45 -22.222)" fill="#fff"/>
      <path id="Path_193" data-name="Path 193" d="M634.6,247.9a9.748,9.748,0,0,1-.96,1.622c-.929,1.013-1.917,1.974-2.911,2.925a1.934,1.934,0,1,1-2.71-2.719q1.533-1.587,3.14-3.1a1.62,1.62,0,0,1,2.114-.293A8.087,8.087,0,0,1,634.6,247.9Z" transform="translate(-105.536 -22.3)" fill="#fff"/>
    </g>
  </g>
</svg>
