<?xml version="1.0" encoding="utf-8"?>
<!-- Generator: Adobe Illustrator 27.0.0, SVG Export Plug-In . SVG Version: 6.00 Build 0)  -->
<svg version="1.1" id="Layer_1" xmlns="http://www.w3.org/2000/svg" xmlns:xlink="http://www.w3.org/1999/xlink" x="0px" y="0px"
	 viewBox="0 0 196.74 273" style="enable-background:new 0 0 196.74 273;" xml:space="preserve">
<style type="text/css">
	.st0{fill:#006318;}
	.st1{fill:#279436;}
	.st2{fill:#5E5DA9;}
	.st3{fill:#534A9E;}
	.st4{fill:#3BA2DB;}
	.st5{fill:#0A62AE;}
	.st6{fill:#EAA325;}
	.st7{fill:#E57B15;}
	.st8{fill:#E82828;}
	.st9{fill:#BB000C;}
	.st10{fill:#7B7B7B;}
	.st11{fill:#434343;}
	.st12{fill:#FFFFFF;}
</style>
<g>
	<g>
		<g>
			<polygon class="st0" points="132.08,273 132.08,196.74 196.74,196.74 			"/>
			<g>
				<g>
					<rect class="st1" width="196.74" height="196.74"/>
				</g>
			</g>
		</g>
	</g>
</g>
<g>
	<rect x="-505.01" y="-140" class="st2" width="46" height="46"/>
	<rect x="-459.01" y="-140" class="st3" width="46" height="46"/>
</g>
<g>
	<rect x="-505.01" y="-85" class="st1" width="46" height="46"/>
	<rect x="-459.01" y="-85" class="st0" width="46" height="46"/>
</g>
<g>
	<rect x="-505.01" y="-19" class="st4" width="46" height="46"/>
	<rect x="-459.01" y="-19" class="st5" width="46" height="46"/>
</g>
<g>
	<rect x="-505.01" y="51" class="st6" width="46" height="46"/>
	<rect x="-459.01" y="51" class="st7" width="46" height="46"/>
</g>
<g>
	<rect x="-505.01" y="121" class="st8" width="46" height="46"/>
	<rect x="-459.01" y="121" class="st9" width="46" height="46"/>
</g>
<g>
	<rect x="-505.01" y="196" class="st10" width="46" height="46"/>
	<rect x="-459.01" y="196" class="st11" width="46" height="46"/>
</g>
<g>
	<path class="st12" d="M154.23,87.9c0,8.56,0.01,17.12,0,25.68c-0.01,5.34-2.41,9.2-7.26,11.48c-0.53,0.25-0.75,0.51-0.73,1.1
		c0.04,1.29,0.03,2.58,0.01,3.86c-0.06,4.52-3.47,7.97-7.97,8.03c-2.66,0.03-5.32,0.03-7.98,0c-4.5-0.06-7.92-3.51-7.98-8.02
		c-0.01-1.04-0.04-2.08,0.01-3.12c0.03-0.67-0.22-0.84-0.86-0.83c-4.74,0.02-9.47,0.02-14.21,0c-0.69,0-0.92,0.18-0.92,0.9
		c0,1.57,0.17,3.16-0.17,4.72c-0.79,3.67-3.87,6.28-7.61,6.35c-2.78,0.05-5.57,0.06-8.35,0c-4.29-0.09-7.69-3.53-7.78-7.84
		c-0.03-1.37-0.03-2.74,0-4.11c0.01-0.53-0.16-0.79-0.66-1.02c-4.97-2.3-7.34-6.24-7.33-11.68c0.01-16.87,0-33.74,0.01-50.61
		c0-11.76,8.72-20.46,20.48-20.47c12.96-0.01,25.93-0.01,38.89,0c11.68,0.01,20.41,8.73,20.42,20.4
		C154.23,71.11,154.23,79.51,154.23,87.9z M114.33,94.18c9.14,0,18.28,0,27.42,0c2.9,0,4.49-1.58,4.49-4.45
		c0.01-7.69,0.01-15.37,0-23.06c-0.01-4.99-3.39-8.39-8.36-8.39c-15.7-0.01-31.41-0.01-47.11,0c-4.97,0-8.35,3.4-8.35,8.4
		c-0.01,7.64-0.01,15.29,0,22.93c0,3.04,1.56,4.57,4.62,4.57C96.14,94.18,105.24,94.18,114.33,94.18z M98.36,110.16
		c0.01-2.17-1.76-3.98-3.93-4.01c-2.23-0.03-4.05,1.79-4.04,4.02c0.01,2.16,1.84,3.96,3.99,3.95
		C96.57,114.11,98.35,112.33,98.36,110.16z M138.26,110.11c-0.02-2.17-1.81-3.96-3.98-3.95c-2.23,0-4.03,1.84-3.99,4.07
		c0.04,2.15,1.89,3.93,4.04,3.89C136.52,114.08,138.28,112.28,138.26,110.11z"/>
	<path class="st12" d="M50.5,100.19c0-11.17-0.01-22.35,0.02-33.52c0-0.79-0.17-1.22-0.97-1.58c-5.58-2.51-8.33-8.77-6.45-14.55
		c1.84-5.68,7.74-9.21,13.51-8.08c6.13,1.2,10.33,6.54,9.8,12.65c-0.39,4.52-2.68,7.89-6.79,9.87c-0.89,0.43-1.16,0.88-1.16,1.84
		c0.03,22.14,0.02,44.28,0.02,66.42c0,0.7,0.03,1.4-0.22,2.09c-0.62,1.76-2.34,2.89-4.16,2.7c-1.86-0.18-3.39-1.72-3.58-3.59
		c-0.04-0.41-0.02-0.83-0.02-1.25C50.5,122.21,50.5,111.2,50.5,100.19z"/>
</g>
</svg>
