<?xml version="1.0" encoding="utf-8"?>
<!-- Generator: Adobe Illustrator 27.0.0, SVG Export Plug-In . SVG Version: 6.00 Build 0)  -->
<svg version="1.1" id="Layer_1" xmlns="http://www.w3.org/2000/svg" xmlns:xlink="http://www.w3.org/1999/xlink" x="0px" y="0px"
	 viewBox="0 0 196.74 273" style="enable-background:new 0 0 196.74 273;" xml:space="preserve">
<style type="text/css">
	.st0{fill:#E57B15;}
	.st1{fill:#EAA325;}
	.st2{fill:#020202;}
</style>
<g>
	<g>
		<g>
			<polygon class="st0" points="132.08,273 132.08,196.74 196.74,196.74 			"/>
			<g>
				<rect class="st1" width="196.74" height="196.74"/>
				<g>
					<path class="st2" d="M102.85,161.87c-2.89,0-5.79,0-8.68,0c-0.36-0.08-0.72-0.2-1.08-0.23c-5.55-0.41-10.92-1.62-16.15-3.5
						c-28.89-10.39-46.25-39.82-41.22-70.12c2.39-14.4,8.95-26.72,19.84-36.49c15.22-13.66,33.13-18.93,53.3-15.77
						c14.44,2.27,26.6,9.11,36.45,19.91c8.24,9.03,13.47,19.59,15.57,31.66c0.38,2.18,0.66,4.39,0.98,6.58c0,2.98,0,5.95,0,8.93
						c-0.26,0.31-0.23,0.7-0.24,1.06c-0.11,2.11-0.42,4.19-0.83,6.25c-2.81,14.19-9.53,26.19-20.37,35.79
						c-9.31,8.25-20.16,13.31-32.47,15.18C106.26,161.39,104.55,161.62,102.85,161.87z M45.52,98.36
						c0.02,29.22,23.59,52.85,52.72,52.88c29.35,0.02,53.02-23.64,53-52.98c-0.02-29.14-23.67-52.74-52.85-52.74
						C69.16,45.51,45.5,69.15,45.52,98.36z"/>
					<path class="st2" d="M82.52,102.96c0-8.51,0-17.03,0-25.54c0-3.26,2.24-5.53,5.52-5.54c6.2-0.02,12.4-0.07,18.6,0.01
						c10.14,0.13,18.33,8.57,18.25,18.7c-0.08,9.97-8.2,18.21-18.19,18.39c-4.13,0.07-8.26,0.04-12.4,0
						c-0.91-0.01-1.18,0.22-1.18,1.16c0.04,6.24,0,12.48,0.05,18.72c0.01,1.06-0.31,1.3-1.32,1.28c-2.68-0.07-5.37-0.07-8.06,0
						c-1.01,0.03-1.31-0.22-1.3-1.27C82.54,120.23,82.52,111.59,82.52,102.96z M93.14,90.37c0,2.35,0.03,4.71-0.02,7.06
						c-0.02,0.78,0.23,0.97,0.98,0.96c4.05-0.04,8.09,0.02,12.14-0.03c4.49-0.06,8-3.58,8.01-7.92c0-4.35-3.51-7.87-8-7.93
						c-4.05-0.05-8.09,0.01-12.14-0.03c-0.88-0.01-1,0.34-0.99,1.08C93.16,85.83,93.14,88.1,93.14,90.37z"/>
				</g>
			</g>
		</g>
	</g>
</g>
</svg>
